<svg width="17" height="16" viewBox="0 0 17 16" fill="none" xmlns="http://www.w3.org/2000/svg">
<g clip-path="url(#clip0_11815_39549)">
<path d="M10.8316 0.666016C9.25164 0.666016 7.82164 1.31735 6.79297 2.36468C10.1756 2.68202 12.8316 5.53535 12.8316 8.99935C12.8316 10.0113 12.5983 10.9673 12.1936 11.8273C14.6616 11.2147 16.4983 8.98735 16.4983 6.33268C16.4983 3.20802 13.9563 0.666016 10.8316 0.666016Z" fill="white"/>
<path d="M6.16667 3.33398C3.042 3.33398 0.5 5.87598 0.5 9.00065C0.5 12.1253 3.042 14.6673 6.16667 14.6673C9.29133 14.6673 11.8333 12.1253 11.8333 9.00065C11.8333 5.87598 9.29133 3.33398 6.16667 3.33398ZM5.91333 8.50065H6.42C7.19933 8.50065 7.83333 9.13465 7.83333 9.91399C7.83333 10.6147 7.328 11.1913 6.66667 11.3087V11.8333C6.66667 12.1093 6.44267 12.3333 6.16667 12.3333C5.89067 12.3333 5.66667 12.1093 5.66667 11.8333V11.334H5C4.724 11.334 4.5 11.11 4.5 10.834C4.5 10.558 4.724 10.334 5 10.334H6.42C6.648 10.334 6.83333 10.1487 6.83333 9.92065C6.83333 9.68599 6.648 9.50065 6.42 9.50065H5.91333C5.134 9.50065 4.5 8.86665 4.5 8.08732C4.5 7.38665 5.00533 6.80998 5.66667 6.69265V6.16732C5.66667 5.89132 5.89067 5.66732 6.16667 5.66732C6.44267 5.66732 6.66667 5.89132 6.66667 6.16732V6.66732H7.33333C7.60933 6.66732 7.83333 6.89132 7.83333 7.16732C7.83333 7.44332 7.60933 7.66732 7.33333 7.66732H5.91333C5.68533 7.66732 5.5 7.85265 5.5 8.08065C5.5 8.31532 5.68533 8.50065 5.91333 8.50065Z" fill="white"/>
<path d="M5.91333 8.50065H6.42C7.19933 8.50065 7.83333 9.13465 7.83333 9.91399C7.83333 10.6147 7.328 11.1913 6.66667 11.3087V11.8333C6.66667 12.1093 6.44267 12.3333 6.16667 12.3333C5.89067 12.3333 5.66667 12.1093 5.66667 11.8333V11.334H5C4.724 11.334 4.5 11.11 4.5 10.834C4.5 10.558 4.724 10.334 5 10.334H6.42C6.648 10.334 6.83333 10.1487 6.83333 9.92065C6.83333 9.68599 6.648 9.50065 6.42 9.50065H5.91333C5.134 9.50065 4.5 8.86665 4.5 8.08732C4.5 7.38665 5.00533 6.80998 5.66667 6.69265V6.16732C5.66667 5.89132 5.89067 5.66732 6.16667 5.66732C6.44267 5.66732 6.66667 5.89132 6.66667 6.16732V6.66732H7.33333C7.60933 6.66732 7.83333 6.89132 7.83333 7.16732C7.83333 7.44332 7.60933 7.66732 7.33333 7.66732H5.91333C5.68533 7.66732 5.5 7.85265 5.5 8.08065C5.5 8.31532 5.68533 8.50065 5.91333 8.50065Z" fill="white"/>
</g>
<defs>
<clipPath id="clip0_11815_39549">
<rect width="16" height="16" fill="white" transform="translate(0.5)"/>
</clipPath>
</defs>
</svg>
