<svg width="24" height="24" viewBox="0 0 24 24" fill="none" xmlns="http://www.w3.org/2000/svg">
<path fill-rule="evenodd" clip-rule="evenodd" d="M12 3C10.1686 3 8.71429 4.45401 8.71429 6.21053C8.71429 7.96704 10.1686 9.42105 12 9.42105C13.8314 9.42105 15.2857 7.96704 15.2857 6.21053C15.2857 4.45401 13.8314 3 12 3ZM6.71429 6.21053C6.71429 3.31622 9.09754 1 12 1C14.9025 1 17.2857 3.31622 17.2857 6.21053C17.2857 9.10483 14.9025 11.4211 12 11.4211C9.09754 11.4211 6.71429 9.10483 6.71429 6.21053ZM3.5 17.7895C3.5 14.8952 5.88326 12.5789 8.78571 12.5789H15.2143C18.1167 12.5789 20.5 14.8952 20.5 17.7895C20.5 20.6838 18.1167 23 15.2143 23H8.78571C5.88325 23 3.5 20.6838 3.5 17.7895ZM8.78571 14.5789C6.9543 14.5789 5.5 16.033 5.5 17.7895C5.5 19.546 6.9543 21 8.78571 21H15.2143C17.0457 21 18.5 19.546 18.5 17.7895C18.5 16.033 17.0457 14.5789 15.2143 14.5789H8.78571Z" fill="white"/>
</svg>
