<svg width="258" height="284" viewBox="0 0 258 284" fill="none" xmlns="http://www.w3.org/2000/svg">
<path d="M1 57.5V0" stroke="#444444"/>
<path d="M98.604 29.75H94.391V31.18H93.665V29.09H94.248C94.38 28.892 94.4863 28.7013 94.567 28.518C94.6477 28.3347 94.71 28.1257 94.754 27.891C94.798 27.649 94.8273 27.3703 94.842 27.055C94.864 26.7397 94.875 26.3547 94.875 25.9V24.25H98.56V29.09H99.33V31.18H98.604V29.75ZM95.601 25.9C95.601 26.3547 95.59 26.747 95.568 27.077C95.5533 27.3997 95.524 27.682 95.48 27.924C95.4433 28.166 95.392 28.3787 95.326 28.562C95.26 28.738 95.183 28.914 95.095 29.09H97.834V24.91H95.601V25.9ZM104.267 25.086L103.585 26.23L101.385 29.75H100.483V24.25H101.209V28.925L101.891 27.77L104.091 24.25H104.993V29.75H104.267V25.086ZM108.184 29.827C107.634 29.827 107.212 29.6877 106.919 29.409C106.625 29.123 106.479 28.7307 106.479 28.232C106.479 27.968 106.519 27.7297 106.6 27.517C106.688 27.297 106.823 27.1137 107.007 26.967C107.197 26.8203 107.439 26.7067 107.733 26.626C108.026 26.5453 108.378 26.505 108.789 26.505H110.043V26.01C110.043 25.614 109.944 25.3243 109.746 25.141C109.555 24.9503 109.236 24.855 108.789 24.855C108.385 24.855 108.081 24.9357 107.876 25.097C107.678 25.251 107.564 25.4637 107.535 25.735H106.754C106.768 25.5077 106.82 25.2987 106.908 25.108C106.996 24.9173 107.124 24.7523 107.293 24.613C107.461 24.4737 107.67 24.3673 107.92 24.294C108.169 24.2133 108.459 24.173 108.789 24.173C109.441 24.173 109.933 24.3343 110.263 24.657C110.6 24.9797 110.769 25.4307 110.769 26.01V29.75H110.208L110.098 28.716C109.907 29.068 109.643 29.343 109.306 29.541C108.976 29.7317 108.602 29.827 108.184 29.827ZM108.239 29.145C108.488 29.145 108.723 29.101 108.943 29.013C109.163 28.9177 109.353 28.793 109.515 28.639C109.683 28.4777 109.812 28.2943 109.9 28.089C109.995 27.8763 110.043 27.6527 110.043 27.418V27.165H108.789C108.224 27.165 107.821 27.264 107.579 27.462C107.344 27.66 107.227 27.9167 107.227 28.232C107.227 28.5107 107.311 28.7343 107.48 28.903C107.656 29.0643 107.909 29.145 108.239 29.145ZM113.899 26.23L113.305 25.042V29.75H112.579V24.25H113.591L115.395 27.649L117.199 24.25H118.189V29.75H117.463V25.042L116.869 26.23L115.747 28.375H115.021L113.899 26.23ZM122.09 29.827C121.364 29.827 120.788 29.607 120.363 29.167C119.938 28.7197 119.725 28.078 119.725 27.242V26.758C119.725 25.9293 119.938 25.2913 120.363 24.844C120.796 24.3967 121.371 24.173 122.09 24.173C122.809 24.173 123.381 24.3967 123.806 24.844C124.239 25.2913 124.455 25.9293 124.455 26.758V27.209H120.473V27.242C120.473 27.88 120.62 28.3567 120.913 28.672C121.206 28.9873 121.599 29.145 122.09 29.145C122.545 29.145 122.889 29.0497 123.124 28.859C123.366 28.6683 123.542 28.43 123.652 28.144H124.4C124.341 28.3787 124.253 28.5987 124.136 28.804C124.019 29.0093 123.865 29.189 123.674 29.343C123.483 29.4897 123.256 29.607 122.992 29.695C122.728 29.783 122.427 29.827 122.09 29.827ZM122.09 24.855C121.613 24.855 121.232 25.0053 120.946 25.306C120.667 25.5993 120.51 26.021 120.473 26.571H123.696C123.667 25.999 123.505 25.57 123.212 25.284C122.926 24.998 122.552 24.855 122.09 24.855ZM125.121 24.25H129.521V24.91H127.684V29.75H126.958V24.91H125.121V24.25ZM133.197 29.827C132.816 29.827 132.478 29.7573 132.185 29.618C131.892 29.4713 131.65 29.2477 131.459 28.947V31.95H130.733V24.25H131.294L131.382 25.174C131.573 24.8367 131.818 24.5873 132.119 24.426C132.427 24.2573 132.786 24.173 133.197 24.173C133.512 24.173 133.802 24.228 134.066 24.338C134.33 24.448 134.557 24.613 134.748 24.833C134.939 25.0457 135.085 25.3133 135.188 25.636C135.298 25.9587 135.353 26.3327 135.353 26.758V27.242C135.353 27.66 135.298 28.0303 135.188 28.353C135.085 28.6757 134.939 28.947 134.748 29.167C134.557 29.387 134.33 29.552 134.066 29.662C133.802 29.772 133.512 29.827 133.197 29.827ZM133.032 29.145C133.509 29.145 133.89 28.991 134.176 28.683C134.462 28.3677 134.605 27.8873 134.605 27.242V26.758C134.605 26.12 134.458 25.6433 134.165 25.328C133.879 25.0127 133.501 24.855 133.032 24.855C132.592 24.855 132.222 25.009 131.921 25.317C131.628 25.625 131.474 26.076 131.459 26.67V27.242C131.459 27.858 131.606 28.331 131.899 28.661C132.192 28.9837 132.57 29.145 133.032 29.145Z" fill="#444444"/>
<path d="M2 39.75L7 42.6368V36.8632L2 39.75ZM228 39.75L223 36.8632V42.6368L228 39.75ZM6.5 40.25H223.5V39.25H6.5V40.25Z" fill="#444444"/>
<path d="M229 57.5V0" stroke="#444444"/>
<mask id="mask0_11590_36790" style="mask-type:alpha" maskUnits="userSpaceOnUse" x="1" y="56" width="228" height="228">
<path d="M115 67.5C171.609 67.5 217.5 113.391 217.5 170C217.5 226.609 171.609 272.5 115 272.5C58.3908 272.5 12.5 226.609 12.5 170C12.5 113.391 58.3908 67.5 115 67.5Z" stroke="black" stroke-width="23"/>
</mask>
<g mask="url(#mask0_11590_36790)">
<path d="M22.8929 46.5L-215.5 284.893" stroke="#EEEEEE" stroke-width="1.27143"/>
<path d="M28.6136 46.5L-209.779 284.893" stroke="#EEEEEE" stroke-width="1.27143"/>
<path d="M34.3362 46.5L-204.057 284.893" stroke="#EEEEEE" stroke-width="1.27143"/>
<path d="M40.0569 46.5L-198.336 284.893" stroke="#EEEEEE" stroke-width="1.27143"/>
<path d="M45.7776 46.5L-192.615 284.893" stroke="#EEEEEE" stroke-width="1.27143"/>
<path d="M51.5003 46.5L-186.893 284.893" stroke="#EEEEEE" stroke-width="1.27143"/>
<path d="M57.221 46.5L-181.172 284.893" stroke="#EEEEEE" stroke-width="1.27143"/>
<path d="M62.9436 46.5L-175.449 284.893" stroke="#EEEEEE" stroke-width="1.27143"/>
<path d="M68.6643 46.5L-169.729 284.893" stroke="#EEEEEE" stroke-width="1.27143"/>
<path d="M74.385 46.5L-164.008 284.893" stroke="#EEEEEE" stroke-width="1.27143"/>
<path d="M80.1077 46.5L-158.285 284.893" stroke="#EEEEEE" stroke-width="1.27143"/>
<path d="M85.8284 46.5L-152.564 284.893" stroke="#EEEEEE" stroke-width="1.27143"/>
<path d="M91.5491 46.5L-146.844 284.893" stroke="#EEEEEE" stroke-width="1.27143"/>
<path d="M97.2718 46.5L-141.121 284.893" stroke="#EEEEEE" stroke-width="1.27143"/>
<path d="M102.992 46.5L-135.4 284.893" stroke="#EEEEEE" stroke-width="1.27143"/>
<path d="M108.715 46.5L-129.678 284.893" stroke="#EEEEEE" stroke-width="1.27143"/>
<path d="M114.436 46.5L-123.957 284.893" stroke="#EEEEEE" stroke-width="1.27143"/>
<path d="M120.157 46.5L-118.236 284.893" stroke="#EEEEEE" stroke-width="1.27143"/>
<path d="M125.879 46.5L-112.514 284.893" stroke="#EEEEEE" stroke-width="1.27143"/>
<path d="M131.6 46.5L-106.793 284.893" stroke="#EEEEEE" stroke-width="1.27143"/>
<path d="M137.321 46.5L-101.072 284.893" stroke="#EEEEEE" stroke-width="1.27143"/>
<path d="M143.043 46.5L-95.3496 284.893" stroke="#EEEEEE" stroke-width="1.27143"/>
<path d="M148.764 46.5L-89.6289 284.893" stroke="#EEEEEE" stroke-width="1.27143"/>
<path d="M154.485 46.5L-83.9082 284.893" stroke="#EEEEEE" stroke-width="1.27143"/>
<path d="M160.207 46.5L-78.1855 284.893" stroke="#EEEEEE" stroke-width="1.27143"/>
<path d="M165.928 46.5L-72.4648 284.893" stroke="#EEEEEE" stroke-width="1.27143"/>
<path d="M171.651 46.5L-66.7422 284.893" stroke="#EEEEEE" stroke-width="1.27143"/>
<path d="M177.371 46.5L-61.0215 284.893" stroke="#EEEEEE" stroke-width="1.27143"/>
<path d="M183.092 46.5L-55.3008 284.893" stroke="#EEEEEE" stroke-width="1.27143"/>
<path d="M188.815 46.5L-49.5781 284.893" stroke="#EEEEEE" stroke-width="1.27143"/>
<path d="M194.535 46.5L-43.8574 284.893" stroke="#EEEEEE" stroke-width="1.27143"/>
<path d="M200.256 46.5L-38.1367 284.893" stroke="#EEEEEE" stroke-width="1.27143"/>
<path d="M205.979 46.5L-32.4141 284.893" stroke="#EEEEEE" stroke-width="1.27143"/>
<path d="M211.7 46.5L-26.6934 284.893" stroke="#EEEEEE" stroke-width="1.27143"/>
<path d="M217.42 46.5L-20.9727 284.893" stroke="#EEEEEE" stroke-width="1.27143"/>
<path d="M223.143 46.5L-15.25 284.893" stroke="#EEEEEE" stroke-width="1.27143"/>
<path d="M228.864 46.5L-9.5293 284.893" stroke="#EEEEEE" stroke-width="1.27143"/>
<path d="M234.586 46.5L-3.80664 284.893" stroke="#EEEEEE" stroke-width="1.27143"/>
<path d="M240.307 46.5L1.91406 284.893" stroke="#EEEEEE" stroke-width="1.27143"/>
<path d="M246.028 46.5L7.63477 284.893" stroke="#EEEEEE" stroke-width="1.27143"/>
<path d="M251.75 46.5L13.3574 284.893" stroke="#EEEEEE" stroke-width="1.27143"/>
<path d="M257.471 46.5L19.0781 284.893" stroke="#EEEEEE" stroke-width="1.27143"/>
<path d="M263.192 46.5L24.7988 284.893" stroke="#EEEEEE" stroke-width="1.27143"/>
<path d="M268.914 46.5L30.5215 284.893" stroke="#EEEEEE" stroke-width="1.27143"/>
<path d="M274.635 46.5L36.2422 284.893" stroke="#EEEEEE" stroke-width="1.27143"/>
<path d="M280.358 46.5L41.9648 284.893" stroke="#EEEEEE" stroke-width="1.27143"/>
<path d="M286.078 46.5L47.6855 284.893" stroke="#EEEEEE" stroke-width="1.27143"/>
<path d="M291.799 46.5L53.4062 284.893" stroke="#EEEEEE" stroke-width="1.27143"/>
<path d="M297.522 46.5L59.1289 284.893" stroke="#EEEEEE" stroke-width="1.27143"/>
<path d="M303.242 46.5L64.8496 284.893" stroke="#EEEEEE" stroke-width="1.27143"/>
<path d="M308.963 46.5L70.5703 284.893" stroke="#EEEEEE" stroke-width="1.27143"/>
<path d="M314.686 46.5L76.293 284.893" stroke="#EEEEEE" stroke-width="1.27143"/>
<path d="M320.407 46.5L82.0137 284.893" stroke="#EEEEEE" stroke-width="1.27143"/>
<path d="M326.129 46.5L87.7363 284.893" stroke="#EEEEEE" stroke-width="1.27143"/>
<path d="M331.85 46.5L93.457 284.893" stroke="#EEEEEE" stroke-width="1.27143"/>
<path d="M337.571 46.5L99.1777 284.893" stroke="#EEEEEE" stroke-width="1.27143"/>
<path d="M343.293 46.5L104.9 284.893" stroke="#EEEEEE" stroke-width="1.27143"/>
<path d="M349.014 46.5L110.621 284.893" stroke="#EEEEEE" stroke-width="1.27143"/>
<path d="M354.737 46.5L116.344 284.893" stroke="#EEEEEE" stroke-width="1.27143"/>
<path d="M360.455 46.5L122.062 284.893" stroke="#EEEEEE" stroke-width="1.27143"/>
<path d="M366.178 46.5L127.785 284.893" stroke="#EEEEEE" stroke-width="1.27143"/>
<path d="M371.901 46.5L133.508 284.893" stroke="#EEEEEE" stroke-width="1.27143"/>
<path d="M377.619 46.5L139.227 284.893" stroke="#EEEEEE" stroke-width="1.27143"/>
<path d="M383.342 46.5L144.949 284.893" stroke="#EEEEEE" stroke-width="1.27143"/>
<path d="M389.065 46.5L150.672 284.893" stroke="#EEEEEE" stroke-width="1.27143"/>
<path d="M394.787 46.5L156.395 284.893" stroke="#EEEEEE" stroke-width="1.27143"/>
<path d="M400.506 46.5L162.113 284.893" stroke="#EEEEEE" stroke-width="1.27143"/>
<path d="M406.229 46.5L167.836 284.893" stroke="#EEEEEE" stroke-width="1.27143"/>
<path d="M411.951 46.5L173.559 284.893" stroke="#EEEEEE" stroke-width="1.27143"/>
<path d="M417.67 46.5L179.277 284.893" stroke="#EEEEEE" stroke-width="1.27143"/>
<path d="M423.393 46.5L185 284.893" stroke="#EEEEEE" stroke-width="1.27143"/>
<path d="M429.116 46.5L190.723 284.893" stroke="#EEEEEE" stroke-width="1.27143"/>
<path d="M434.834 46.5L196.441 284.893" stroke="#EEEEEE" stroke-width="1.27143"/>
<path d="M440.557 46.5L202.164 284.893" stroke="#EEEEEE" stroke-width="1.27143"/>
<path d="M446.28 46.5L207.887 284.893" stroke="#EEEEEE" stroke-width="1.27143"/>
<path d="M451.998 46.5L213.605 284.893" stroke="#EEEEEE" stroke-width="1.27143"/>
<path d="M457.721 46.5L219.328 284.893" stroke="#EEEEEE" stroke-width="1.27143"/>
<path d="M463.444 46.5L225.051 284.893" stroke="#EEEEEE" stroke-width="1.27143"/>
<path fill-rule="evenodd" clip-rule="evenodd" d="M115 79C64.7421 79 24 119.742 24 170C24 220.258 64.7421 261 115 261C165.258 261 206 220.258 206 170C206 119.742 165.258 79 115 79ZM1 170C1 107.04 52.0395 56 115 56C177.96 56 229 107.04 229 170C229 232.96 177.96 284 115 284C52.0395 284 1 232.96 1 170Z" stroke="#BEBEBE"/>
</g>
<path d="M177.775 154.3H183.605V155.004H181.075V162H180.305V155.004H177.775V154.3ZM185.37 162.077C185.003 162.077 184.669 162.018 184.369 161.901C184.075 161.784 183.822 161.615 183.61 161.395C183.397 161.175 183.232 160.907 183.115 160.592C183.005 160.269 182.95 159.903 182.95 159.492V159.008C182.95 158.605 183.008 158.245 183.126 157.93C183.243 157.607 183.404 157.336 183.61 157.116C183.822 156.889 184.075 156.716 184.369 156.599C184.669 156.482 185.003 156.423 185.37 156.423C185.736 156.423 186.066 156.482 186.36 156.599C186.66 156.716 186.917 156.885 187.13 157.105C187.342 157.325 187.504 157.596 187.614 157.919C187.731 158.242 187.79 158.605 187.79 159.008V159.492C187.79 159.895 187.731 160.258 187.614 160.581C187.496 160.896 187.331 161.168 187.119 161.395C186.913 161.615 186.66 161.784 186.36 161.901C186.059 162.018 185.729 162.077 185.37 162.077ZM185.37 161.395C185.868 161.395 186.272 161.234 186.58 160.911C186.888 160.581 187.042 160.108 187.042 159.492V159.008C187.042 158.399 186.884 157.93 186.569 157.6C186.261 157.27 185.861 157.105 185.37 157.105C184.871 157.105 184.468 157.27 184.16 157.6C183.852 157.923 183.698 158.392 183.698 159.008V159.492C183.698 160.101 183.852 160.57 184.16 160.9C184.475 161.23 184.878 161.395 185.37 161.395ZM188.505 161.395H188.67C188.802 161.395 188.923 161.366 189.033 161.307C189.15 161.241 189.249 161.124 189.33 160.955C189.418 160.786 189.484 160.559 189.528 160.273C189.579 159.98 189.605 159.602 189.605 159.14V156.5H193.345V162H192.619V157.16H190.331V159.14C190.331 159.712 190.291 160.189 190.21 160.57C190.137 160.944 190.027 161.245 189.88 161.472C189.733 161.692 189.557 161.85 189.352 161.945C189.147 162.033 188.919 162.077 188.67 162.077H188.505V161.395ZM195.214 156.5H195.94V161.34H198.096V156.5H198.822V161.34H200.978V156.5H201.704V161.34H202.529V163.43H201.803V162H195.214V156.5ZM207.463 157.336L206.781 158.48L204.581 162H203.679V156.5H204.405V161.175L205.087 160.02L207.287 156.5H208.189V162H207.463V157.336ZM213.844 159.525H210.786V162H210.06V156.5H210.786V158.865H213.844V156.5H214.57V162H213.844V159.525ZM217.761 162.077C217.211 162.077 216.789 161.938 216.496 161.659C216.203 161.373 216.056 160.981 216.056 160.482C216.056 160.218 216.096 159.98 216.177 159.767C216.265 159.547 216.401 159.364 216.584 159.217C216.775 159.07 217.017 158.957 217.31 158.876C217.603 158.795 217.955 158.755 218.366 158.755H219.62V158.26C219.62 157.864 219.521 157.574 219.323 157.391C219.132 157.2 218.813 157.105 218.366 157.105C217.963 157.105 217.658 157.186 217.453 157.347C217.255 157.501 217.141 157.714 217.112 157.985H216.331C216.346 157.758 216.397 157.549 216.485 157.358C216.573 157.167 216.701 157.002 216.87 156.863C217.039 156.724 217.248 156.617 217.497 156.544C217.746 156.463 218.036 156.423 218.366 156.423C219.019 156.423 219.51 156.584 219.84 156.907C220.177 157.23 220.346 157.681 220.346 158.26V162H219.785L219.675 160.966C219.484 161.318 219.22 161.593 218.883 161.791C218.553 161.982 218.179 162.077 217.761 162.077ZM217.816 161.395C218.065 161.395 218.3 161.351 218.52 161.263C218.74 161.168 218.931 161.043 219.092 160.889C219.261 160.728 219.389 160.544 219.477 160.339C219.572 160.126 219.62 159.903 219.62 159.668V159.415H218.366C217.801 159.415 217.398 159.514 217.156 159.712C216.921 159.91 216.804 160.167 216.804 160.482C216.804 160.761 216.888 160.984 217.057 161.153C217.233 161.314 217.486 161.395 217.816 161.395ZM226.941 162.077C226.589 162.077 226.266 162.018 225.973 161.901C225.687 161.784 225.437 161.615 225.225 161.395C225.019 161.175 224.858 160.907 224.741 160.592C224.631 160.269 224.576 159.903 224.576 159.492V159.008C224.576 158.605 224.631 158.245 224.741 157.93C224.858 157.607 225.019 157.336 225.225 157.116C225.437 156.889 225.687 156.716 225.973 156.599C226.266 156.482 226.589 156.423 226.941 156.423C227.249 156.423 227.52 156.463 227.755 156.544C227.997 156.625 228.206 156.738 228.382 156.885C228.565 157.024 228.712 157.189 228.822 157.38C228.939 157.571 229.027 157.772 229.086 157.985H228.316C228.206 157.736 228.044 157.527 227.832 157.358C227.626 157.189 227.329 157.105 226.941 157.105C226.471 157.105 226.083 157.27 225.775 157.6C225.474 157.923 225.324 158.392 225.324 159.008V159.492C225.324 159.793 225.364 160.064 225.445 160.306C225.525 160.541 225.639 160.739 225.786 160.9C225.932 161.061 226.101 161.186 226.292 161.274C226.49 161.355 226.706 161.395 226.941 161.395C227.337 161.395 227.637 161.307 227.843 161.131C228.048 160.955 228.206 160.713 228.316 160.405H229.086C228.976 160.889 228.745 161.289 228.393 161.604C228.041 161.919 227.557 162.077 226.941 162.077ZM229.585 156.5H233.985V157.16H232.148V162H231.422V157.16H229.585V156.5ZM237.017 162.077C236.291 162.077 235.715 161.857 235.29 161.417C234.865 160.97 234.652 160.328 234.652 159.492V159.008C234.652 158.179 234.865 157.541 235.29 157.094C235.723 156.647 236.298 156.423 237.017 156.423C237.736 156.423 238.308 156.647 238.733 157.094C239.166 157.541 239.382 158.179 239.382 159.008V159.459H235.4V159.492C235.4 160.13 235.547 160.607 235.84 160.922C236.133 161.237 236.526 161.395 237.017 161.395C237.472 161.395 237.816 161.3 238.051 161.109C238.293 160.918 238.469 160.68 238.579 160.394H239.327C239.268 160.629 239.18 160.849 239.063 161.054C238.946 161.259 238.792 161.439 238.601 161.593C238.41 161.74 238.183 161.857 237.919 161.945C237.655 162.033 237.354 162.077 237.017 162.077ZM237.017 157.105C236.54 157.105 236.159 157.255 235.873 157.556C235.594 157.849 235.437 158.271 235.4 158.821H238.623C238.594 158.249 238.432 157.82 238.139 157.534C237.853 157.248 237.479 157.105 237.017 157.105ZM244.706 159.525H241.648V162H240.922V156.5H241.648V158.865H244.706V156.5H245.432V162H244.706V159.525ZM249.008 159.47H248.029V162H247.303V156.5H248.029V158.81H249.008L250.581 156.5H251.483L249.668 159.151L251.703 162H250.801L249.008 159.47ZM256.695 157.336L256.013 158.48L253.813 162H252.911V156.5H253.637V161.175L254.319 160.02L256.519 156.5H257.421V162H256.695V157.336Z" fill="#444444"/>
<path d="M207 172L212 174.887V169.113L207 172ZM229 172L224 169.113V174.887L229 172ZM211.5 172.5H224.5V171.5H211.5V172.5Z" fill="#444444"/>
</svg>
