<svg width="329" height="285" viewBox="0 0 329 285" fill="none" xmlns="http://www.w3.org/2000/svg">
<path d="M72.5 57.5V0" stroke="#444444"/>
<path d="M167.435 24.25H168.161V29.09H170.317V24.25H171.043V29.09H173.199V24.25H173.925V29.75H167.435V24.25ZM179.576 25.086L178.894 26.23L176.694 29.75H175.792V24.25H176.518V28.925L177.2 27.77L179.4 24.25H180.302V29.75H179.576V25.086ZM184.637 29.827C184.256 29.827 183.919 29.7573 183.625 29.618C183.332 29.4713 183.09 29.2477 182.899 28.947V31.95H182.173V24.25H182.734L182.822 25.174C183.013 24.8367 183.259 24.5873 183.559 24.426C183.867 24.2573 184.227 24.173 184.637 24.173C184.953 24.173 185.242 24.228 185.506 24.338C185.77 24.448 185.998 24.613 186.188 24.833C186.379 25.0457 186.526 25.3133 186.628 25.636C186.738 25.9587 186.793 26.3327 186.793 26.758V27.242C186.793 27.66 186.738 28.0303 186.628 28.353C186.526 28.6757 186.379 28.947 186.188 29.167C185.998 29.387 185.77 29.552 185.506 29.662C185.242 29.772 184.953 29.827 184.637 29.827ZM184.472 29.145C184.949 29.145 185.33 28.991 185.616 28.683C185.902 28.3677 186.045 27.8873 186.045 27.242V26.758C186.045 26.12 185.899 25.6433 185.605 25.328C185.319 25.0127 184.942 24.855 184.472 24.855C184.032 24.855 183.662 25.009 183.361 25.317C183.068 25.625 182.914 26.076 182.899 26.67V27.242C182.899 27.858 183.046 28.331 183.339 28.661C183.633 28.9837 184.01 29.145 184.472 29.145ZM192.113 25.086L191.431 26.23L189.231 29.75H188.329V24.25H189.055V28.925L189.737 27.77L191.937 24.25H192.839V29.75H192.113V25.086ZM198.493 27.275H195.435V29.75H194.709V24.25H195.435V26.615H198.493V24.25H199.219V29.75H198.493V27.275ZM202.41 29.827C201.86 29.827 201.439 29.6877 201.145 29.409C200.852 29.123 200.705 28.7307 200.705 28.232C200.705 27.968 200.746 27.7297 200.826 27.517C200.914 27.297 201.05 27.1137 201.233 26.967C201.424 26.8203 201.666 26.7067 201.959 26.626C202.253 26.5453 202.605 26.505 203.015 26.505H204.269V26.01C204.269 25.614 204.17 25.3243 203.972 25.141C203.782 24.9503 203.463 24.855 203.015 24.855C202.612 24.855 202.308 24.9357 202.102 25.097C201.904 25.251 201.791 25.4637 201.761 25.735H200.98C200.995 25.5077 201.046 25.2987 201.134 25.108C201.222 24.9173 201.351 24.7523 201.519 24.613C201.688 24.4737 201.897 24.3673 202.146 24.294C202.396 24.2133 202.685 24.173 203.015 24.173C203.668 24.173 204.159 24.3343 204.489 24.657C204.827 24.9797 204.995 25.4307 204.995 26.01V29.75H204.434L204.324 28.716C204.134 29.068 203.87 29.343 203.532 29.541C203.202 29.7317 202.828 29.827 202.41 29.827ZM202.465 29.145C202.715 29.145 202.949 29.101 203.169 29.013C203.389 28.9177 203.58 28.793 203.741 28.639C203.91 28.4777 204.038 28.2943 204.126 28.089C204.222 27.8763 204.269 27.6527 204.269 27.418V27.165H203.015C202.451 27.165 202.047 27.264 201.805 27.462C201.571 27.66 201.453 27.9167 201.453 28.232C201.453 28.5107 201.538 28.7343 201.706 28.903C201.882 29.0643 202.135 29.145 202.465 29.145Z" fill="#444444"/>
<path d="M73.5 39.75L78.5 42.6368V36.8632L73.5 39.75ZM299.5 39.75L294.5 36.8632V42.6368L299.5 39.75ZM78 40.25H295V39.25H78V40.25Z" fill="#444444"/>
<path d="M300.5 57.5V0" stroke="#444444"/>
<path d="M57.5 284.5L0 284.5" stroke="#444444"/>
<path d="M22.05 193.51L22.05 191.145C22.05 190.236 22.2333 189.579 22.6 189.176C22.9593 188.765 23.458 188.56 24.096 188.56C24.4627 188.56 24.789 188.648 25.075 188.824C25.3537 188.993 25.5773 189.257 25.746 189.616C25.9073 189.176 26.1457 188.853 26.461 188.648C26.7763 188.443 27.154 188.34 27.594 188.34C28.2907 188.34 28.826 188.545 29.2 188.956C29.5667 189.359 29.75 190.016 29.75 190.925L29.75 193.51L22.05 193.51ZM26.142 192.74L29.046 192.74L29.046 190.925C29.046 190.28 28.925 189.821 28.683 189.55C28.4337 189.271 28.0707 189.132 27.594 189.132C27.1173 189.132 26.758 189.271 26.516 189.55C26.2667 189.821 26.142 190.28 26.142 190.925L26.142 192.74ZM22.754 192.74L25.438 192.74L25.438 191.145C25.438 190.5 25.3207 190.041 25.086 189.77C24.844 189.491 24.514 189.352 24.096 189.352C23.678 189.352 23.3517 189.491 23.117 189.77C22.875 190.041 22.754 190.5 22.754 191.145L22.754 192.74ZM24.25 186.744L24.25 186.018L26.23 186.018L26.23 184.797C26.23 184.019 26.3877 183.455 26.703 183.103C27.0183 182.743 27.4473 182.564 27.99 182.564C28.518 182.564 28.9433 182.743 29.266 183.103C29.5887 183.462 29.75 184.027 29.75 184.797L29.75 186.744L24.25 186.744ZM26.89 186.018L29.09 186.018L29.09 184.797C29.09 184.254 28.9947 183.873 28.804 183.653C28.606 183.425 28.3347 183.312 27.99 183.312C27.6453 183.312 27.3777 183.425 27.187 183.653C26.989 183.88 26.89 184.261 26.89 184.797L26.89 186.018ZM24.25 181.53L24.25 180.804L29.75 180.804L29.75 181.53L24.25 181.53ZM29.827 176.899C29.827 177.251 29.7683 177.574 29.651 177.867C29.5337 178.153 29.365 178.402 29.145 178.615C28.925 178.82 28.6573 178.982 28.342 179.099C28.0193 179.209 27.6527 179.264 27.242 179.264L26.758 179.264C26.3547 179.264 25.9953 179.209 25.68 179.099C25.3573 178.982 25.086 178.82 24.866 178.615C24.6387 178.402 24.4663 178.153 24.349 177.867C24.2317 177.574 24.173 177.251 24.173 176.899C24.173 176.591 24.2133 176.32 24.294 176.085C24.3747 175.843 24.4883 175.634 24.635 175.458C24.7743 175.275 24.9393 175.128 25.13 175.018C25.3207 174.901 25.5223 174.813 25.735 174.754L25.735 175.524C25.4857 175.634 25.2767 175.795 25.108 176.008C24.9393 176.213 24.855 176.51 24.855 176.899C24.855 177.368 25.02 177.757 25.35 178.065C25.6727 178.366 26.142 178.516 26.758 178.516L27.242 178.516C27.5427 178.516 27.814 178.476 28.056 178.395C28.2907 178.314 28.4887 178.201 28.65 178.054C28.8113 177.907 28.936 177.739 29.024 177.548C29.1047 177.35 29.145 177.134 29.145 176.899C29.145 176.503 29.057 176.202 28.881 175.997C28.705 175.792 28.463 175.634 28.155 175.524L28.155 174.754C28.639 174.864 29.0387 175.095 29.354 175.447C29.6693 175.799 29.827 176.283 29.827 176.899ZM29.827 171.29C29.827 171.657 29.7683 171.991 29.651 172.291C29.5337 172.585 29.365 172.838 29.145 173.05C28.925 173.263 28.6573 173.428 28.342 173.545C28.0193 173.655 27.6527 173.71 27.242 173.71L26.758 173.71C26.3547 173.71 25.9953 173.652 25.68 173.534C25.3573 173.417 25.086 173.256 24.866 173.05C24.6387 172.838 24.4663 172.585 24.349 172.291C24.2317 171.991 24.173 171.657 24.173 171.29C24.173 170.924 24.2317 170.594 24.349 170.3C24.4663 170 24.635 169.743 24.855 169.53C25.075 169.318 25.3463 169.156 25.669 169.046C25.9917 168.929 26.3547 168.87 26.758 168.87L27.242 168.87C27.6453 168.87 28.0083 168.929 28.331 169.046C28.6463 169.164 28.9177 169.329 29.145 169.541C29.365 169.747 29.5337 170 29.651 170.3C29.7683 170.601 29.827 170.931 29.827 171.29ZM29.145 171.29C29.145 170.792 28.9837 170.388 28.661 170.08C28.331 169.772 27.858 169.618 27.242 169.618L26.758 169.618C26.1493 169.618 25.68 169.776 25.35 170.091C25.02 170.399 24.855 170.799 24.855 171.29C24.855 171.789 25.02 172.192 25.35 172.5C25.6727 172.808 26.142 172.962 26.758 172.962L27.242 172.962C27.8507 172.962 28.32 172.808 28.65 172.5C28.98 172.185 29.145 171.782 29.145 171.29ZM24.25 168.207L24.25 163.807L24.91 163.807L24.91 165.644L29.75 165.644L29.75 166.37L24.91 166.37L24.91 168.207L24.25 168.207ZM29.827 161.383C29.827 161.933 29.6877 162.354 29.409 162.648C29.123 162.941 28.7307 163.088 28.232 163.088C27.968 163.088 27.7297 163.047 27.517 162.967C27.297 162.879 27.1137 162.743 26.967 162.56C26.8203 162.369 26.7067 162.127 26.626 161.834C26.5453 161.54 26.505 161.188 26.505 160.778L26.505 159.524L26.01 159.524C25.614 159.524 25.3243 159.623 25.141 159.821C24.9503 160.011 24.855 160.33 24.855 160.778C24.855 161.181 24.9357 161.485 25.097 161.691C25.251 161.889 25.4637 162.002 25.735 162.032L25.735 162.813C25.5077 162.798 25.2987 162.747 25.108 162.659C24.9173 162.571 24.7523 162.442 24.613 162.274C24.4737 162.105 24.3673 161.896 24.294 161.647C24.2133 161.397 24.173 161.108 24.173 160.778C24.173 160.125 24.3343 159.634 24.657 159.304C24.9797 158.966 25.4307 158.798 26.01 158.798L29.75 158.798L29.75 159.359L28.716 159.469C29.068 159.659 29.343 159.923 29.541 160.261C29.7317 160.591 29.827 160.965 29.827 161.383ZM29.145 161.328C29.145 161.078 29.101 160.844 29.013 160.624C28.9177 160.404 28.793 160.213 28.639 160.052C28.4777 159.883 28.2943 159.755 28.089 159.667C27.8763 159.571 27.6527 159.524 27.418 159.524L27.165 159.524L27.165 160.778C27.165 161.342 27.264 161.746 27.462 161.988C27.66 162.222 27.9167 162.34 28.232 162.34C28.5107 162.34 28.7343 162.255 28.903 162.087C29.0643 161.911 29.145 161.658 29.145 161.328Z" fill="#444444"/>
<path d="M39.75 283.5L42.6368 278.5L36.8632 278.5L39.75 283.5ZM39.75 68.5L36.8632 73.5L42.6367 73.5L39.75 68.5ZM40.25 279L40.25 73L39.25 73L39.25 279L40.25 279Z" fill="#444444"/>
<path d="M57.5 67.5L0 67.5" stroke="#444444"/>
<mask id="mask0_11590_36526" style="mask-type:alpha" maskUnits="userSpaceOnUse" x="72" y="67" width="229" height="218">
<path d="M115 90C103.954 90 95 98.9543 95 110V242C95 253.046 103.954 262 115 262H258C269.046 262 278 253.046 278 242V110C278 98.9543 269.046 90 258 90H115ZM73 110C73 86.804 91.804 68 115 68H258C281.196 68 300 86.804 300 110V242C300 265.196 281.196 284 258 284H115C91.804 284 73 265.196 73 242V110Z" fill="black" stroke="black"/>
</mask>
<g mask="url(#mask0_11590_36526)">
<path d="M94.3929 51L-144 289.393" stroke="#EEEEEE" stroke-width="1.27143"/>
<path d="M100.114 51L-138.279 289.393" stroke="#EEEEEE" stroke-width="1.27143"/>
<path d="M105.836 51L-132.557 289.393" stroke="#EEEEEE" stroke-width="1.27143"/>
<path d="M111.557 51L-126.836 289.393" stroke="#EEEEEE" stroke-width="1.27143"/>
<path d="M117.278 51L-121.115 289.393" stroke="#EEEEEE" stroke-width="1.27143"/>
<path d="M123 51L-115.393 289.393" stroke="#EEEEEE" stroke-width="1.27143"/>
<path d="M128.721 51L-109.672 289.393" stroke="#EEEEEE" stroke-width="1.27143"/>
<path d="M134.444 51L-103.949 289.393" stroke="#EEEEEE" stroke-width="1.27143"/>
<path d="M140.164 51L-98.2285 289.393" stroke="#EEEEEE" stroke-width="1.27143"/>
<path d="M145.885 51L-92.5078 289.393" stroke="#EEEEEE" stroke-width="1.27143"/>
<path d="M151.608 51L-86.7852 289.393" stroke="#EEEEEE" stroke-width="1.27143"/>
<path d="M157.328 51L-81.0645 289.393" stroke="#EEEEEE" stroke-width="1.27143"/>
<path d="M163.049 51L-75.3438 289.393" stroke="#EEEEEE" stroke-width="1.27143"/>
<path d="M168.772 51L-69.6211 289.393" stroke="#EEEEEE" stroke-width="1.27143"/>
<path d="M174.492 51L-63.9004 289.393" stroke="#EEEEEE" stroke-width="1.27143"/>
<path d="M180.215 51L-58.1777 289.393" stroke="#EEEEEE" stroke-width="1.27143"/>
<path d="M185.936 51L-52.457 289.393" stroke="#EEEEEE" stroke-width="1.27143"/>
<path d="M191.657 51L-46.7363 289.393" stroke="#EEEEEE" stroke-width="1.27143"/>
<path d="M197.379 51L-41.0137 289.393" stroke="#EEEEEE" stroke-width="1.27143"/>
<path d="M203.1 51L-35.293 289.393" stroke="#EEEEEE" stroke-width="1.27143"/>
<path d="M208.821 51L-29.5723 289.393" stroke="#EEEEEE" stroke-width="1.27143"/>
<path d="M214.543 51L-23.8496 289.393" stroke="#EEEEEE" stroke-width="1.27143"/>
<path d="M220.264 51L-18.1289 289.393" stroke="#EEEEEE" stroke-width="1.27143"/>
<path d="M225.985 51L-12.4082 289.393" stroke="#EEEEEE" stroke-width="1.27143"/>
<path d="M231.707 51L-6.68555 289.393" stroke="#EEEEEE" stroke-width="1.27143"/>
<path d="M237.428 51L-0.964844 289.393" stroke="#EEEEEE" stroke-width="1.27143"/>
<path d="M243.151 51L4.75781 289.393" stroke="#EEEEEE" stroke-width="1.27143"/>
<path d="M248.871 51L10.4785 289.393" stroke="#EEEEEE" stroke-width="1.27143"/>
<path d="M254.592 51L16.1992 289.393" stroke="#EEEEEE" stroke-width="1.27143"/>
<path d="M260.315 51L21.9219 289.393" stroke="#EEEEEE" stroke-width="1.27143"/>
<path d="M266.035 51L27.6426 289.393" stroke="#EEEEEE" stroke-width="1.27143"/>
<path d="M271.756 51L33.3633 289.393" stroke="#EEEEEE" stroke-width="1.27143"/>
<path d="M277.479 51L39.0859 289.393" stroke="#EEEEEE" stroke-width="1.27143"/>
<path d="M283.2 51L44.8066 289.393" stroke="#EEEEEE" stroke-width="1.27143"/>
<path d="M288.92 51L50.5273 289.393" stroke="#EEEEEE" stroke-width="1.27143"/>
<path d="M294.643 51L56.25 289.393" stroke="#EEEEEE" stroke-width="1.27143"/>
<path d="M300.364 51L61.9707 289.393" stroke="#EEEEEE" stroke-width="1.27143"/>
<path d="M306.086 51L67.6934 289.393" stroke="#EEEEEE" stroke-width="1.27143"/>
<path d="M311.807 51L73.4141 289.393" stroke="#EEEEEE" stroke-width="1.27143"/>
<path d="M317.528 51L79.1348 289.393" stroke="#EEEEEE" stroke-width="1.27143"/>
<path d="M323.25 51L84.8574 289.393" stroke="#EEEEEE" stroke-width="1.27143"/>
<path d="M328.971 51L90.5781 289.393" stroke="#EEEEEE" stroke-width="1.27143"/>
<path d="M334.692 51L96.2988 289.393" stroke="#EEEEEE" stroke-width="1.27143"/>
<path d="M340.414 51L102.021 289.393" stroke="#EEEEEE" stroke-width="1.27143"/>
<path d="M346.135 51L107.742 289.393" stroke="#EEEEEE" stroke-width="1.27143"/>
<path d="M351.858 51L113.465 289.393" stroke="#EEEEEE" stroke-width="1.27143"/>
<path d="M357.578 51L119.186 289.393" stroke="#EEEEEE" stroke-width="1.27143"/>
<path d="M363.299 51L124.906 289.393" stroke="#EEEEEE" stroke-width="1.27143"/>
<path d="M369.022 51L130.629 289.393" stroke="#EEEEEE" stroke-width="1.27143"/>
<path d="M374.742 51L136.35 289.393" stroke="#EEEEEE" stroke-width="1.27143"/>
<path d="M380.463 51L142.07 289.393" stroke="#EEEEEE" stroke-width="1.27143"/>
<path d="M386.186 51L147.793 289.393" stroke="#EEEEEE" stroke-width="1.27143"/>
<path d="M391.907 51L153.514 289.393" stroke="#EEEEEE" stroke-width="1.27143"/>
<path d="M397.629 51L159.236 289.393" stroke="#EEEEEE" stroke-width="1.27143"/>
<path d="M403.35 51L164.957 289.393" stroke="#EEEEEE" stroke-width="1.27143"/>
<path d="M409.071 51L170.678 289.393" stroke="#EEEEEE" stroke-width="1.27143"/>
<path d="M414.793 51L176.4 289.393" stroke="#EEEEEE" stroke-width="1.27143"/>
<path d="M420.514 51L182.121 289.393" stroke="#EEEEEE" stroke-width="1.27143"/>
<path d="M426.235 51L187.842 289.393" stroke="#EEEEEE" stroke-width="1.27143"/>
<path d="M431.957 51L193.564 289.393" stroke="#EEEEEE" stroke-width="1.27143"/>
<path d="M437.678 51L199.285 289.393" stroke="#EEEEEE" stroke-width="1.27143"/>
<path d="M443.401 51L205.008 289.393" stroke="#EEEEEE" stroke-width="1.27143"/>
<path d="M449.121 51L210.729 289.393" stroke="#EEEEEE" stroke-width="1.27143"/>
<path d="M454.842 51L216.449 289.393" stroke="#EEEEEE" stroke-width="1.27143"/>
<path d="M460.565 51L222.172 289.393" stroke="#EEEEEE" stroke-width="1.27143"/>
<path d="M466.285 51L227.893 289.393" stroke="#EEEEEE" stroke-width="1.27143"/>
<path d="M472.006 51L233.613 289.393" stroke="#EEEEEE" stroke-width="1.27143"/>
<path d="M477.729 51L239.336 289.393" stroke="#EEEEEE" stroke-width="1.27143"/>
<path d="M483.45 51L245.057 289.393" stroke="#EEEEEE" stroke-width="1.27143"/>
<path d="M489.172 51L250.779 289.393" stroke="#EEEEEE" stroke-width="1.27143"/>
<path d="M494.893 51L256.5 289.393" stroke="#EEEEEE" stroke-width="1.27143"/>
<path d="M500.614 51L262.221 289.393" stroke="#EEEEEE" stroke-width="1.27143"/>
<path d="M506.336 51L267.943 289.393" stroke="#EEEEEE" stroke-width="1.27143"/>
<path d="M512.057 51L273.664 289.393" stroke="#EEEEEE" stroke-width="1.27143"/>
<path d="M517.778 51L279.385 289.393" stroke="#EEEEEE" stroke-width="1.27143"/>
<path d="M523.5 51L285.107 289.393" stroke="#EEEEEE" stroke-width="1.27143"/>
<path d="M529.221 51L290.828 289.393" stroke="#EEEEEE" stroke-width="1.27143"/>
<path d="M534.944 51L296.551 289.393" stroke="#EEEEEE" stroke-width="1.27143"/>
<path d="M115 90C103.954 90 95 98.9543 95 110V242C95 253.046 103.954 262 115 262H258C269.046 262 278 253.046 278 242V110C278 98.9543 269.046 90 258 90H115ZM73 110C73 86.804 91.804 68 115 68H258C281.196 68 300 86.804 300 110V242C300 265.196 281.196 284 258 284H115C91.804 284 73 265.196 73 242V110Z" stroke="#BEBEBE"/>
</g>
<path d="M248.775 169.3H254.605V170.004H252.075V177H251.305V170.004H248.775V169.3ZM256.37 177.077C256.003 177.077 255.669 177.018 255.369 176.901C255.075 176.784 254.822 176.615 254.61 176.395C254.397 176.175 254.232 175.907 254.115 175.592C254.005 175.269 253.95 174.903 253.95 174.492V174.008C253.95 173.605 254.008 173.245 254.126 172.93C254.243 172.607 254.404 172.336 254.61 172.116C254.822 171.889 255.075 171.716 255.369 171.599C255.669 171.482 256.003 171.423 256.37 171.423C256.736 171.423 257.066 171.482 257.36 171.599C257.66 171.716 257.917 171.885 258.13 172.105C258.342 172.325 258.504 172.596 258.614 172.919C258.731 173.242 258.79 173.605 258.79 174.008V174.492C258.79 174.895 258.731 175.258 258.614 175.581C258.496 175.896 258.331 176.168 258.119 176.395C257.913 176.615 257.66 176.784 257.36 176.901C257.059 177.018 256.729 177.077 256.37 177.077ZM256.37 176.395C256.868 176.395 257.272 176.234 257.58 175.911C257.888 175.581 258.042 175.108 258.042 174.492V174.008C258.042 173.399 257.884 172.93 257.569 172.6C257.261 172.27 256.861 172.105 256.37 172.105C255.871 172.105 255.468 172.27 255.16 172.6C254.852 172.923 254.698 173.392 254.698 174.008V174.492C254.698 175.101 254.852 175.57 255.16 175.9C255.475 176.23 255.878 176.395 256.37 176.395ZM259.505 176.395H259.67C259.802 176.395 259.923 176.366 260.033 176.307C260.15 176.241 260.249 176.124 260.33 175.955C260.418 175.786 260.484 175.559 260.528 175.273C260.579 174.98 260.605 174.602 260.605 174.14V171.5H264.345V177H263.619V172.16H261.331V174.14C261.331 174.712 261.291 175.189 261.21 175.57C261.137 175.944 261.027 176.245 260.88 176.472C260.733 176.692 260.557 176.85 260.352 176.945C260.147 177.033 259.919 177.077 259.67 177.077H259.505V176.395ZM266.214 171.5H266.94V176.34H269.096V171.5H269.822V176.34H271.978V171.5H272.704V176.34H273.529V178.43H272.803V177H266.214V171.5ZM278.463 172.336L277.781 173.48L275.581 177H274.679V171.5H275.405V176.175L276.087 175.02L278.287 171.5H279.189V177H278.463V172.336ZM284.844 174.525H281.786V177H281.06V171.5H281.786V173.865H284.844V171.5H285.57V177H284.844V174.525ZM288.761 177.077C288.211 177.077 287.789 176.938 287.496 176.659C287.203 176.373 287.056 175.981 287.056 175.482C287.056 175.218 287.096 174.98 287.177 174.767C287.265 174.547 287.401 174.364 287.584 174.217C287.775 174.07 288.017 173.957 288.31 173.876C288.603 173.795 288.955 173.755 289.366 173.755H290.62V173.26C290.62 172.864 290.521 172.574 290.323 172.391C290.132 172.2 289.813 172.105 289.366 172.105C288.963 172.105 288.658 172.186 288.453 172.347C288.255 172.501 288.141 172.714 288.112 172.985H287.331C287.346 172.758 287.397 172.549 287.485 172.358C287.573 172.167 287.701 172.002 287.87 171.863C288.039 171.724 288.248 171.617 288.497 171.544C288.746 171.463 289.036 171.423 289.366 171.423C290.019 171.423 290.51 171.584 290.84 171.907C291.177 172.23 291.346 172.681 291.346 173.26V177H290.785L290.675 175.966C290.484 176.318 290.22 176.593 289.883 176.791C289.553 176.982 289.179 177.077 288.761 177.077ZM288.816 176.395C289.065 176.395 289.3 176.351 289.52 176.263C289.74 176.168 289.931 176.043 290.092 175.889C290.261 175.728 290.389 175.544 290.477 175.339C290.572 175.126 290.62 174.903 290.62 174.668V174.415H289.366C288.801 174.415 288.398 174.514 288.156 174.712C287.921 174.91 287.804 175.167 287.804 175.482C287.804 175.761 287.888 175.984 288.057 176.153C288.233 176.314 288.486 176.395 288.816 176.395ZM297.941 177.077C297.589 177.077 297.266 177.018 296.973 176.901C296.687 176.784 296.437 176.615 296.225 176.395C296.019 176.175 295.858 175.907 295.741 175.592C295.631 175.269 295.576 174.903 295.576 174.492V174.008C295.576 173.605 295.631 173.245 295.741 172.93C295.858 172.607 296.019 172.336 296.225 172.116C296.437 171.889 296.687 171.716 296.973 171.599C297.266 171.482 297.589 171.423 297.941 171.423C298.249 171.423 298.52 171.463 298.755 171.544C298.997 171.625 299.206 171.738 299.382 171.885C299.565 172.024 299.712 172.189 299.822 172.38C299.939 172.571 300.027 172.772 300.086 172.985H299.316C299.206 172.736 299.044 172.527 298.832 172.358C298.626 172.189 298.329 172.105 297.941 172.105C297.471 172.105 297.083 172.27 296.775 172.6C296.474 172.923 296.324 173.392 296.324 174.008V174.492C296.324 174.793 296.364 175.064 296.445 175.306C296.525 175.541 296.639 175.739 296.786 175.9C296.932 176.061 297.101 176.186 297.292 176.274C297.49 176.355 297.706 176.395 297.941 176.395C298.337 176.395 298.637 176.307 298.843 176.131C299.048 175.955 299.206 175.713 299.316 175.405H300.086C299.976 175.889 299.745 176.289 299.393 176.604C299.041 176.919 298.557 177.077 297.941 177.077ZM300.585 171.5H304.985V172.16H303.148V177H302.422V172.16H300.585V171.5ZM308.017 177.077C307.291 177.077 306.715 176.857 306.29 176.417C305.865 175.97 305.652 175.328 305.652 174.492V174.008C305.652 173.179 305.865 172.541 306.29 172.094C306.723 171.647 307.298 171.423 308.017 171.423C308.736 171.423 309.308 171.647 309.733 172.094C310.166 172.541 310.382 173.179 310.382 174.008V174.459H306.4V174.492C306.4 175.13 306.547 175.607 306.84 175.922C307.133 176.237 307.526 176.395 308.017 176.395C308.472 176.395 308.816 176.3 309.051 176.109C309.293 175.918 309.469 175.68 309.579 175.394H310.327C310.268 175.629 310.18 175.849 310.063 176.054C309.946 176.259 309.792 176.439 309.601 176.593C309.41 176.74 309.183 176.857 308.919 176.945C308.655 177.033 308.354 177.077 308.017 177.077ZM308.017 172.105C307.54 172.105 307.159 172.255 306.873 172.556C306.594 172.849 306.437 173.271 306.4 173.821H309.623C309.594 173.249 309.432 172.82 309.139 172.534C308.853 172.248 308.479 172.105 308.017 172.105ZM315.706 174.525H312.648V177H311.922V171.5H312.648V173.865H315.706V171.5H316.432V177H315.706V174.525ZM320.008 174.47H319.029V177H318.303V171.5H319.029V173.81H320.008L321.581 171.5H322.483L320.668 174.151L322.703 177H321.801L320.008 174.47ZM327.695 172.336L327.013 173.48L324.813 177H323.911V171.5H324.637V176.175L325.319 175.02L327.519 171.5H328.421V177H327.695V172.336Z" fill="#444444"/>
<path d="M278 187L283 189.887V184.113L278 187ZM300 187L295 184.113V189.887L300 187ZM282.5 187.5H295.5V186.5H282.5V187.5Z" fill="#444444"/>
</svg>
