<svg width="230" height="284" viewBox="0 0 230 284" fill="none" xmlns="http://www.w3.org/2000/svg">
<path d="M1 57.5V0" stroke="#444444"/>
<path d="M98.604 29.75H94.391V31.18H93.665V29.09H94.248C94.38 28.892 94.4863 28.7013 94.567 28.518C94.6477 28.3347 94.71 28.1257 94.754 27.891C94.798 27.649 94.8273 27.3703 94.842 27.055C94.864 26.7397 94.875 26.3547 94.875 25.9V24.25H98.56V29.09H99.33V31.18H98.604V29.75ZM95.601 25.9C95.601 26.3547 95.59 26.747 95.568 27.077C95.5533 27.3997 95.524 27.682 95.48 27.924C95.4433 28.166 95.392 28.3787 95.326 28.562C95.26 28.738 95.183 28.914 95.095 29.09H97.834V24.91H95.601V25.9ZM104.267 25.086L103.585 26.23L101.385 29.75H100.483V24.25H101.209V28.925L101.891 27.77L104.091 24.25H104.993V29.75H104.267V25.086ZM108.184 29.827C107.634 29.827 107.212 29.6877 106.919 29.409C106.625 29.123 106.479 28.7307 106.479 28.232C106.479 27.968 106.519 27.7297 106.6 27.517C106.688 27.297 106.823 27.1137 107.007 26.967C107.197 26.8203 107.439 26.7067 107.733 26.626C108.026 26.5453 108.378 26.505 108.789 26.505H110.043V26.01C110.043 25.614 109.944 25.3243 109.746 25.141C109.555 24.9503 109.236 24.855 108.789 24.855C108.385 24.855 108.081 24.9357 107.876 25.097C107.678 25.251 107.564 25.4637 107.535 25.735H106.754C106.768 25.5077 106.82 25.2987 106.908 25.108C106.996 24.9173 107.124 24.7523 107.293 24.613C107.461 24.4737 107.67 24.3673 107.92 24.294C108.169 24.2133 108.459 24.173 108.789 24.173C109.441 24.173 109.933 24.3343 110.263 24.657C110.6 24.9797 110.769 25.4307 110.769 26.01V29.75H110.208L110.098 28.716C109.907 29.068 109.643 29.343 109.306 29.541C108.976 29.7317 108.602 29.827 108.184 29.827ZM108.239 29.145C108.488 29.145 108.723 29.101 108.943 29.013C109.163 28.9177 109.353 28.793 109.515 28.639C109.683 28.4777 109.812 28.2943 109.9 28.089C109.995 27.8763 110.043 27.6527 110.043 27.418V27.165H108.789C108.224 27.165 107.821 27.264 107.579 27.462C107.344 27.66 107.227 27.9167 107.227 28.232C107.227 28.5107 107.311 28.7343 107.48 28.903C107.656 29.0643 107.909 29.145 108.239 29.145ZM113.899 26.23L113.305 25.042V29.75H112.579V24.25H113.591L115.395 27.649L117.199 24.25H118.189V29.75H117.463V25.042L116.869 26.23L115.747 28.375H115.021L113.899 26.23ZM122.09 29.827C121.364 29.827 120.788 29.607 120.363 29.167C119.938 28.7197 119.725 28.078 119.725 27.242V26.758C119.725 25.9293 119.938 25.2913 120.363 24.844C120.796 24.3967 121.371 24.173 122.09 24.173C122.809 24.173 123.381 24.3967 123.806 24.844C124.239 25.2913 124.455 25.9293 124.455 26.758V27.209H120.473V27.242C120.473 27.88 120.62 28.3567 120.913 28.672C121.206 28.9873 121.599 29.145 122.09 29.145C122.545 29.145 122.889 29.0497 123.124 28.859C123.366 28.6683 123.542 28.43 123.652 28.144H124.4C124.341 28.3787 124.253 28.5987 124.136 28.804C124.019 29.0093 123.865 29.189 123.674 29.343C123.483 29.4897 123.256 29.607 122.992 29.695C122.728 29.783 122.427 29.827 122.09 29.827ZM122.09 24.855C121.613 24.855 121.232 25.0053 120.946 25.306C120.667 25.5993 120.51 26.021 120.473 26.571H123.696C123.667 25.999 123.505 25.57 123.212 25.284C122.926 24.998 122.552 24.855 122.09 24.855ZM125.121 24.25H129.521V24.91H127.684V29.75H126.958V24.91H125.121V24.25ZM133.197 29.827C132.816 29.827 132.478 29.7573 132.185 29.618C131.892 29.4713 131.65 29.2477 131.459 28.947V31.95H130.733V24.25H131.294L131.382 25.174C131.573 24.8367 131.818 24.5873 132.119 24.426C132.427 24.2573 132.786 24.173 133.197 24.173C133.512 24.173 133.802 24.228 134.066 24.338C134.33 24.448 134.557 24.613 134.748 24.833C134.939 25.0457 135.085 25.3133 135.188 25.636C135.298 25.9587 135.353 26.3327 135.353 26.758V27.242C135.353 27.66 135.298 28.0303 135.188 28.353C135.085 28.6757 134.939 28.947 134.748 29.167C134.557 29.387 134.33 29.552 134.066 29.662C133.802 29.772 133.512 29.827 133.197 29.827ZM133.032 29.145C133.509 29.145 133.89 28.991 134.176 28.683C134.462 28.3677 134.605 27.8873 134.605 27.242V26.758C134.605 26.12 134.458 25.6433 134.165 25.328C133.879 25.0127 133.501 24.855 133.032 24.855C132.592 24.855 132.222 25.009 131.921 25.317C131.628 25.625 131.474 26.076 131.459 26.67V27.242C131.459 27.858 131.606 28.331 131.899 28.661C132.192 28.9837 132.57 29.145 133.032 29.145Z" fill="#444444"/>
<path d="M2 39.75L7 42.6368V36.8632L2 39.75ZM228 39.75L223 36.8632V42.6368L228 39.75ZM6.5 40.25H223.5V39.25H6.5V40.25Z" fill="#444444"/>
<path d="M229 57.5V0" stroke="#444444"/>
<mask id="mask0_234_15294" style="mask-type:alpha" maskUnits="userSpaceOnUse" x="1" y="56" width="228" height="228">
<path d="M115 67.5C171.609 67.5 217.5 113.391 217.5 170C217.5 226.609 171.609 272.5 115 272.5C58.3908 272.5 12.5 226.609 12.5 170C12.5 113.391 58.3908 67.5 115 67.5Z" fill="#D9D9D9" stroke="black" stroke-width="23"/>
</mask>
<g mask="url(#mask0_234_15294)">
<path d="M22.8929 47.9121L-215.5 286.305" stroke="#EEEEEE" stroke-width="1.27143"/>
<path d="M28.6136 47.9121L-209.779 286.305" stroke="#EEEEEE" stroke-width="1.27143"/>
<path d="M34.3362 47.9121L-204.057 286.305" stroke="#EEEEEE" stroke-width="1.27143"/>
<path d="M40.0569 47.9121L-198.336 286.305" stroke="#EEEEEE" stroke-width="1.27143"/>
<path d="M45.7776 47.9121L-192.615 286.305" stroke="#EEEEEE" stroke-width="1.27143"/>
<path d="M51.5003 47.9121L-186.893 286.305" stroke="#EEEEEE" stroke-width="1.27143"/>
<path d="M57.221 47.9121L-181.172 286.305" stroke="#EEEEEE" stroke-width="1.27143"/>
<path d="M62.9436 47.9121L-175.449 286.305" stroke="#EEEEEE" stroke-width="1.27143"/>
<path d="M68.6643 47.9121L-169.729 286.305" stroke="#EEEEEE" stroke-width="1.27143"/>
<path d="M74.385 47.9121L-164.008 286.305" stroke="#EEEEEE" stroke-width="1.27143"/>
<path d="M80.1077 47.9121L-158.285 286.305" stroke="#EEEEEE" stroke-width="1.27143"/>
<path d="M85.8284 47.9121L-152.564 286.305" stroke="#EEEEEE" stroke-width="1.27143"/>
<path d="M91.5491 47.9121L-146.844 286.305" stroke="#EEEEEE" stroke-width="1.27143"/>
<path d="M97.2718 47.9121L-141.121 286.305" stroke="#EEEEEE" stroke-width="1.27143"/>
<path d="M102.992 47.9121L-135.4 286.305" stroke="#EEEEEE" stroke-width="1.27143"/>
<path d="M108.715 47.9121L-129.678 286.305" stroke="#EEEEEE" stroke-width="1.27143"/>
<path d="M114.436 47.9121L-123.957 286.305" stroke="#EEEEEE" stroke-width="1.27143"/>
<path d="M120.157 47.9121L-118.236 286.305" stroke="#EEEEEE" stroke-width="1.27143"/>
<path d="M125.879 47.9121L-112.514 286.305" stroke="#EEEEEE" stroke-width="1.27143"/>
<path d="M131.6 47.9121L-106.793 286.305" stroke="#EEEEEE" stroke-width="1.27143"/>
<path d="M137.321 47.9121L-101.072 286.305" stroke="#EEEEEE" stroke-width="1.27143"/>
<path d="M143.043 47.9121L-95.3496 286.305" stroke="#EEEEEE" stroke-width="1.27143"/>
<path d="M148.764 47.9121L-89.6289 286.305" stroke="#EEEEEE" stroke-width="1.27143"/>
<path d="M154.485 47.9121L-83.9082 286.305" stroke="#EEEEEE" stroke-width="1.27143"/>
<path d="M160.207 47.9121L-78.1855 286.305" stroke="#EEEEEE" stroke-width="1.27143"/>
<path d="M165.928 47.9121L-72.4648 286.305" stroke="#EEEEEE" stroke-width="1.27143"/>
<path d="M171.651 47.9121L-66.7422 286.305" stroke="#EEEEEE" stroke-width="1.27143"/>
<path d="M177.371 47.9121L-61.0215 286.305" stroke="#EEEEEE" stroke-width="1.27143"/>
<path d="M183.092 47.9121L-55.3008 286.305" stroke="#EEEEEE" stroke-width="1.27143"/>
<path d="M188.815 47.9121L-49.5781 286.305" stroke="#EEEEEE" stroke-width="1.27143"/>
<path d="M194.535 47.9121L-43.8574 286.305" stroke="#EEEEEE" stroke-width="1.27143"/>
<path d="M200.256 47.9121L-38.1367 286.305" stroke="#EEEEEE" stroke-width="1.27143"/>
<path d="M205.979 47.9121L-32.4141 286.305" stroke="#EEEEEE" stroke-width="1.27143"/>
<path d="M211.7 47.9121L-26.6934 286.305" stroke="#EEEEEE" stroke-width="1.27143"/>
<path d="M217.42 47.9121L-20.9727 286.305" stroke="#EEEEEE" stroke-width="1.27143"/>
<path d="M223.143 47.9121L-15.25 286.305" stroke="#EEEEEE" stroke-width="1.27143"/>
<path d="M228.864 47.9121L-9.5293 286.305" stroke="#EEEEEE" stroke-width="1.27143"/>
<path d="M234.586 47.9121L-3.80664 286.305" stroke="#EEEEEE" stroke-width="1.27143"/>
<path d="M240.307 47.9121L1.91406 286.305" stroke="#EEEEEE" stroke-width="1.27143"/>
<path d="M246.028 47.9121L7.63477 286.305" stroke="#EEEEEE" stroke-width="1.27143"/>
<path d="M251.75 47.9121L13.3574 286.305" stroke="#EEEEEE" stroke-width="1.27143"/>
<path d="M257.471 47.9121L19.0781 286.305" stroke="#EEEEEE" stroke-width="1.27143"/>
<path d="M263.192 47.9121L24.7988 286.305" stroke="#EEEEEE" stroke-width="1.27143"/>
<path d="M268.914 47.9121L30.5215 286.305" stroke="#EEEEEE" stroke-width="1.27143"/>
<path d="M274.635 47.9121L36.2422 286.305" stroke="#EEEEEE" stroke-width="1.27143"/>
<path d="M280.358 47.9121L41.9648 286.305" stroke="#EEEEEE" stroke-width="1.27143"/>
<path d="M286.078 47.9121L47.6855 286.305" stroke="#EEEEEE" stroke-width="1.27143"/>
<path d="M291.799 47.9121L53.4062 286.305" stroke="#EEEEEE" stroke-width="1.27143"/>
<path d="M297.522 47.9121L59.1289 286.305" stroke="#EEEEEE" stroke-width="1.27143"/>
<path d="M303.242 47.9121L64.8496 286.305" stroke="#EEEEEE" stroke-width="1.27143"/>
<path d="M308.963 47.9121L70.5703 286.305" stroke="#EEEEEE" stroke-width="1.27143"/>
<path d="M314.686 47.9121L76.293 286.305" stroke="#EEEEEE" stroke-width="1.27143"/>
<path d="M320.407 47.9121L82.0137 286.305" stroke="#EEEEEE" stroke-width="1.27143"/>
<path d="M326.129 47.9121L87.7363 286.305" stroke="#EEEEEE" stroke-width="1.27143"/>
<path d="M331.85 47.9121L93.457 286.305" stroke="#EEEEEE" stroke-width="1.27143"/>
<path d="M337.571 47.9121L99.1777 286.305" stroke="#EEEEEE" stroke-width="1.27143"/>
<path d="M343.293 47.9121L104.9 286.305" stroke="#EEEEEE" stroke-width="1.27143"/>
<path d="M349.014 47.9121L110.621 286.305" stroke="#EEEEEE" stroke-width="1.27143"/>
<path d="M354.735 47.9121L116.342 286.305" stroke="#EEEEEE" stroke-width="1.27143"/>
<path d="M360.457 47.9121L122.064 286.305" stroke="#EEEEEE" stroke-width="1.27143"/>
<path d="M366.178 47.9121L127.785 286.305" stroke="#EEEEEE" stroke-width="1.27143"/>
<path d="M371.901 47.9121L133.508 286.305" stroke="#EEEEEE" stroke-width="1.27143"/>
<path d="M377.621 47.9121L139.229 286.305" stroke="#EEEEEE" stroke-width="1.27143"/>
<path d="M383.342 47.9121L144.949 286.305" stroke="#EEEEEE" stroke-width="1.27143"/>
<path d="M389.065 47.9121L150.672 286.305" stroke="#EEEEEE" stroke-width="1.27143"/>
<path d="M394.785 47.9121L156.393 286.305" stroke="#EEEEEE" stroke-width="1.27143"/>
<path d="M400.506 47.9121L162.113 286.305" stroke="#EEEEEE" stroke-width="1.27143"/>
<path d="M406.229 47.9121L167.836 286.305" stroke="#EEEEEE" stroke-width="1.27143"/>
<path d="M411.95 47.9121L173.557 286.305" stroke="#EEEEEE" stroke-width="1.27143"/>
<path d="M417.672 47.9121L179.279 286.305" stroke="#EEEEEE" stroke-width="1.27143"/>
<path d="M423.393 47.9121L185 286.305" stroke="#EEEEEE" stroke-width="1.27143"/>
<path d="M429.114 47.9121L190.721 286.305" stroke="#EEEEEE" stroke-width="1.27143"/>
<path d="M434.836 47.9121L196.443 286.305" stroke="#EEEEEE" stroke-width="1.27143"/>
<path d="M440.557 47.9121L202.164 286.305" stroke="#EEEEEE" stroke-width="1.27143"/>
<path d="M446.278 47.9121L207.885 286.305" stroke="#EEEEEE" stroke-width="1.27143"/>
<path d="M452 47.9121L213.607 286.305" stroke="#EEEEEE" stroke-width="1.27143"/>
<path d="M457.721 47.9121L219.328 286.305" stroke="#EEEEEE" stroke-width="1.27143"/>
<path d="M463.444 47.9121L225.051 286.305" stroke="#EEEEEE" stroke-width="1.27143"/>
<path fill-rule="evenodd" clip-rule="evenodd" d="M1 170C1 107.04 52.0395 56 115 56C177.96 56 229 107.04 229 170C229 232.96 177.96 284 115 284C52.0395 284 1 232.96 1 170Z" stroke="#BEBEBE"/>
</g>
</svg>
