<svg width="269" height="286" viewBox="0 0 269 286" fill="none" xmlns="http://www.w3.org/2000/svg">
<path d="M40 57.5V0" stroke="#444444"/>
<path d="M137.604 29.75H133.391V31.18H132.665V29.09H133.248C133.38 28.892 133.486 28.7013 133.567 28.518C133.648 28.3347 133.71 28.1257 133.754 27.891C133.798 27.649 133.827 27.3703 133.842 27.055C133.864 26.7397 133.875 26.3547 133.875 25.9V24.25H137.56V29.09H138.33V31.18H137.604V29.75ZM134.601 25.9C134.601 26.3547 134.59 26.747 134.568 27.077C134.553 27.3997 134.524 27.682 134.48 27.924C134.443 28.166 134.392 28.3787 134.326 28.562C134.26 28.738 134.183 28.914 134.095 29.09H136.834V24.91H134.601V25.9ZM143.267 25.086L142.585 26.23L140.385 29.75H139.483V24.25H140.209V28.925L140.891 27.77L143.091 24.25H143.993V29.75H143.267V25.086ZM147.184 29.827C146.634 29.827 146.212 29.6877 145.919 29.409C145.625 29.123 145.479 28.7307 145.479 28.232C145.479 27.968 145.519 27.7297 145.6 27.517C145.688 27.297 145.823 27.1137 146.007 26.967C146.197 26.8203 146.439 26.7067 146.733 26.626C147.026 26.5453 147.378 26.505 147.789 26.505H149.043V26.01C149.043 25.614 148.944 25.3243 148.746 25.141C148.555 24.9503 148.236 24.855 147.789 24.855C147.385 24.855 147.081 24.9357 146.876 25.097C146.678 25.251 146.564 25.4637 146.535 25.735H145.754C145.768 25.5077 145.82 25.2987 145.908 25.108C145.996 24.9173 146.124 24.7523 146.293 24.613C146.461 24.4737 146.67 24.3673 146.92 24.294C147.169 24.2133 147.459 24.173 147.789 24.173C148.441 24.173 148.933 24.3343 149.263 24.657C149.6 24.9797 149.769 25.4307 149.769 26.01V29.75H149.208L149.098 28.716C148.907 29.068 148.643 29.343 148.306 29.541C147.976 29.7317 147.602 29.827 147.184 29.827ZM147.239 29.145C147.488 29.145 147.723 29.101 147.943 29.013C148.163 28.9177 148.353 28.793 148.515 28.639C148.683 28.4777 148.812 28.2943 148.9 28.089C148.995 27.8763 149.043 27.6527 149.043 27.418V27.165H147.789C147.224 27.165 146.821 27.264 146.579 27.462C146.344 27.66 146.227 27.9167 146.227 28.232C146.227 28.5107 146.311 28.7343 146.48 28.903C146.656 29.0643 146.909 29.145 147.239 29.145ZM152.899 26.23L152.305 25.042V29.75H151.579V24.25H152.591L154.395 27.649L156.199 24.25H157.189V29.75H156.463V25.042L155.869 26.23L154.747 28.375H154.021L152.899 26.23ZM161.09 29.827C160.364 29.827 159.788 29.607 159.363 29.167C158.938 28.7197 158.725 28.078 158.725 27.242V26.758C158.725 25.9293 158.938 25.2913 159.363 24.844C159.796 24.3967 160.371 24.173 161.09 24.173C161.809 24.173 162.381 24.3967 162.806 24.844C163.239 25.2913 163.455 25.9293 163.455 26.758V27.209H159.473V27.242C159.473 27.88 159.62 28.3567 159.913 28.672C160.206 28.9873 160.599 29.145 161.09 29.145C161.545 29.145 161.889 29.0497 162.124 28.859C162.366 28.6683 162.542 28.43 162.652 28.144H163.4C163.341 28.3787 163.253 28.5987 163.136 28.804C163.019 29.0093 162.865 29.189 162.674 29.343C162.483 29.4897 162.256 29.607 161.992 29.695C161.728 29.783 161.427 29.827 161.09 29.827ZM161.09 24.855C160.613 24.855 160.232 25.0053 159.946 25.306C159.667 25.5993 159.51 26.021 159.473 26.571H162.696C162.667 25.999 162.505 25.57 162.212 25.284C161.926 24.998 161.552 24.855 161.09 24.855ZM164.121 24.25H168.521V24.91H166.684V29.75H165.958V24.91H164.121V24.25ZM172.197 29.827C171.816 29.827 171.478 29.7573 171.185 29.618C170.892 29.4713 170.65 29.2477 170.459 28.947V31.95H169.733V24.25H170.294L170.382 25.174C170.573 24.8367 170.818 24.5873 171.119 24.426C171.427 24.2573 171.786 24.173 172.197 24.173C172.512 24.173 172.802 24.228 173.066 24.338C173.33 24.448 173.557 24.613 173.748 24.833C173.939 25.0457 174.085 25.3133 174.188 25.636C174.298 25.9587 174.353 26.3327 174.353 26.758V27.242C174.353 27.66 174.298 28.0303 174.188 28.353C174.085 28.6757 173.939 28.947 173.748 29.167C173.557 29.387 173.33 29.552 173.066 29.662C172.802 29.772 172.512 29.827 172.197 29.827ZM172.032 29.145C172.509 29.145 172.89 28.991 173.176 28.683C173.462 28.3677 173.605 27.8873 173.605 27.242V26.758C173.605 26.12 173.458 25.6433 173.165 25.328C172.879 25.0127 172.501 24.855 172.032 24.855C171.592 24.855 171.222 25.009 170.921 25.317C170.628 25.625 170.474 26.076 170.459 26.67V27.242C170.459 27.858 170.606 28.331 170.899 28.661C171.192 28.9837 171.57 29.145 172.032 29.145Z" fill="#444444"/>
<path d="M41 39.75L46 42.6368V36.8632L41 39.75ZM267 39.75L262 36.8632V42.6368L267 39.75ZM45.5 40.25H262.5V39.25H45.5V40.25Z" fill="#444444"/>
<path d="M268 57.5V0" stroke="#444444"/>
<mask id="mask0_234_15046" style="mask-type:alpha" maskUnits="userSpaceOnUse" x="53" y="54" width="202" height="232">
<path d="M154 67.5L242.768 118.75V221.25L154 272.5L65.2324 221.25V118.75L154 67.5Z" fill="#D9D9D9" stroke="black" stroke-width="23"/>
</mask>
<g mask="url(#mask0_234_15046)">
<path d="M61.8929 47.9121L-176.5 286.305" stroke="#EEEEEE" stroke-width="1.27143"/>
<path d="M67.6136 47.9121L-170.779 286.305" stroke="#EEEEEE" stroke-width="1.27143"/>
<path d="M73.3362 47.9121L-165.057 286.305" stroke="#EEEEEE" stroke-width="1.27143"/>
<path d="M79.0569 47.9121L-159.336 286.305" stroke="#EEEEEE" stroke-width="1.27143"/>
<path d="M84.7776 47.9121L-153.615 286.305" stroke="#EEEEEE" stroke-width="1.27143"/>
<path d="M90.5003 47.9121L-147.893 286.305" stroke="#EEEEEE" stroke-width="1.27143"/>
<path d="M96.221 47.9121L-142.172 286.305" stroke="#EEEEEE" stroke-width="1.27143"/>
<path d="M101.944 47.9121L-136.449 286.305" stroke="#EEEEEE" stroke-width="1.27143"/>
<path d="M107.664 47.9121L-130.729 286.305" stroke="#EEEEEE" stroke-width="1.27143"/>
<path d="M113.385 47.9121L-125.008 286.305" stroke="#EEEEEE" stroke-width="1.27143"/>
<path d="M119.108 47.9121L-119.285 286.305" stroke="#EEEEEE" stroke-width="1.27143"/>
<path d="M124.828 47.9121L-113.564 286.305" stroke="#EEEEEE" stroke-width="1.27143"/>
<path d="M130.549 47.9121L-107.844 286.305" stroke="#EEEEEE" stroke-width="1.27143"/>
<path d="M136.272 47.9121L-102.121 286.305" stroke="#EEEEEE" stroke-width="1.27143"/>
<path d="M141.992 47.9121L-96.4004 286.305" stroke="#EEEEEE" stroke-width="1.27143"/>
<path d="M147.715 47.9121L-90.6777 286.305" stroke="#EEEEEE" stroke-width="1.27143"/>
<path d="M153.436 47.9121L-84.957 286.305" stroke="#EEEEEE" stroke-width="1.27143"/>
<path d="M159.157 47.9121L-79.2363 286.305" stroke="#EEEEEE" stroke-width="1.27143"/>
<path d="M164.879 47.9121L-73.5137 286.305" stroke="#EEEEEE" stroke-width="1.27143"/>
<path d="M170.6 47.9121L-67.793 286.305" stroke="#EEEEEE" stroke-width="1.27143"/>
<path d="M176.321 47.9121L-62.0723 286.305" stroke="#EEEEEE" stroke-width="1.27143"/>
<path d="M182.043 47.9121L-56.3496 286.305" stroke="#EEEEEE" stroke-width="1.27143"/>
<path d="M187.764 47.9121L-50.6289 286.305" stroke="#EEEEEE" stroke-width="1.27143"/>
<path d="M193.485 47.9121L-44.9082 286.305" stroke="#EEEEEE" stroke-width="1.27143"/>
<path d="M199.207 47.9121L-39.1855 286.305" stroke="#EEEEEE" stroke-width="1.27143"/>
<path d="M204.928 47.9121L-33.4648 286.305" stroke="#EEEEEE" stroke-width="1.27143"/>
<path d="M210.651 47.9121L-27.7422 286.305" stroke="#EEEEEE" stroke-width="1.27143"/>
<path d="M216.371 47.9121L-22.0215 286.305" stroke="#EEEEEE" stroke-width="1.27143"/>
<path d="M222.092 47.9121L-16.3008 286.305" stroke="#EEEEEE" stroke-width="1.27143"/>
<path d="M227.815 47.9121L-10.5781 286.305" stroke="#EEEEEE" stroke-width="1.27143"/>
<path d="M233.535 47.9121L-4.85742 286.305" stroke="#EEEEEE" stroke-width="1.27143"/>
<path d="M239.256 47.9121L0.863281 286.305" stroke="#EEEEEE" stroke-width="1.27143"/>
<path d="M244.979 47.9121L6.58594 286.305" stroke="#EEEEEE" stroke-width="1.27143"/>
<path d="M250.7 47.9121L12.3066 286.305" stroke="#EEEEEE" stroke-width="1.27143"/>
<path d="M256.42 47.9121L18.0273 286.305" stroke="#EEEEEE" stroke-width="1.27143"/>
<path d="M262.143 47.9121L23.75 286.305" stroke="#EEEEEE" stroke-width="1.27143"/>
<path d="M267.864 47.9121L29.4707 286.305" stroke="#EEEEEE" stroke-width="1.27143"/>
<path d="M273.586 47.9121L35.1934 286.305" stroke="#EEEEEE" stroke-width="1.27143"/>
<path d="M279.307 47.9121L40.9141 286.305" stroke="#EEEEEE" stroke-width="1.27143"/>
<path d="M285.028 47.9121L46.6348 286.305" stroke="#EEEEEE" stroke-width="1.27143"/>
<path d="M290.75 47.9121L52.3574 286.305" stroke="#EEEEEE" stroke-width="1.27143"/>
<path d="M296.471 47.9121L58.0781 286.305" stroke="#EEEEEE" stroke-width="1.27143"/>
<path d="M302.192 47.9121L63.7988 286.305" stroke="#EEEEEE" stroke-width="1.27143"/>
<path d="M307.914 47.9121L69.5215 286.305" stroke="#EEEEEE" stroke-width="1.27143"/>
<path d="M313.635 47.9121L75.2422 286.305" stroke="#EEEEEE" stroke-width="1.27143"/>
<path d="M319.358 47.9121L80.9648 286.305" stroke="#EEEEEE" stroke-width="1.27143"/>
<path d="M325.078 47.9121L86.6855 286.305" stroke="#EEEEEE" stroke-width="1.27143"/>
<path d="M330.799 47.9121L92.4062 286.305" stroke="#EEEEEE" stroke-width="1.27143"/>
<path d="M336.522 47.9121L98.1289 286.305" stroke="#EEEEEE" stroke-width="1.27143"/>
<path d="M342.242 47.9121L103.85 286.305" stroke="#EEEEEE" stroke-width="1.27143"/>
<path d="M347.963 47.9121L109.57 286.305" stroke="#EEEEEE" stroke-width="1.27143"/>
<path d="M353.686 47.9121L115.293 286.305" stroke="#EEEEEE" stroke-width="1.27143"/>
<path d="M359.407 47.9121L121.014 286.305" stroke="#EEEEEE" stroke-width="1.27143"/>
<path d="M365.129 47.9121L126.736 286.305" stroke="#EEEEEE" stroke-width="1.27143"/>
<path d="M370.85 47.9121L132.457 286.305" stroke="#EEEEEE" stroke-width="1.27143"/>
<path d="M376.571 47.9121L138.178 286.305" stroke="#EEEEEE" stroke-width="1.27143"/>
<path d="M382.293 47.9121L143.9 286.305" stroke="#EEEEEE" stroke-width="1.27143"/>
<path d="M388.014 47.9121L149.621 286.305" stroke="#EEEEEE" stroke-width="1.27143"/>
<path d="M393.735 47.9121L155.342 286.305" stroke="#EEEEEE" stroke-width="1.27143"/>
<path d="M399.457 47.9121L161.064 286.305" stroke="#EEEEEE" stroke-width="1.27143"/>
<path d="M405.178 47.9121L166.785 286.305" stroke="#EEEEEE" stroke-width="1.27143"/>
<path d="M410.901 47.9121L172.508 286.305" stroke="#EEEEEE" stroke-width="1.27143"/>
<path d="M416.621 47.9121L178.229 286.305" stroke="#EEEEEE" stroke-width="1.27143"/>
<path d="M422.342 47.9121L183.949 286.305" stroke="#EEEEEE" stroke-width="1.27143"/>
<path d="M428.065 47.9121L189.672 286.305" stroke="#EEEEEE" stroke-width="1.27143"/>
<path d="M433.785 47.9121L195.393 286.305" stroke="#EEEEEE" stroke-width="1.27143"/>
<path d="M439.506 47.9121L201.113 286.305" stroke="#EEEEEE" stroke-width="1.27143"/>
<path d="M445.229 47.9121L206.836 286.305" stroke="#EEEEEE" stroke-width="1.27143"/>
<path d="M450.95 47.9121L212.557 286.305" stroke="#EEEEEE" stroke-width="1.27143"/>
<path d="M456.672 47.9121L218.279 286.305" stroke="#EEEEEE" stroke-width="1.27143"/>
<path d="M462.393 47.9121L224 286.305" stroke="#EEEEEE" stroke-width="1.27143"/>
<path d="M468.114 47.9121L229.721 286.305" stroke="#EEEEEE" stroke-width="1.27143"/>
<path d="M473.836 47.9121L235.443 286.305" stroke="#EEEEEE" stroke-width="1.27143"/>
<path d="M479.557 47.9121L241.164 286.305" stroke="#EEEEEE" stroke-width="1.27143"/>
<path d="M485.278 47.9121L246.885 286.305" stroke="#EEEEEE" stroke-width="1.27143"/>
<path d="M491 47.9121L252.607 286.305" stroke="#EEEEEE" stroke-width="1.27143"/>
<path fill-rule="evenodd" clip-rule="evenodd" d="M154 54.2207L254.268 112.11V227.889L154 285.779L53.7324 227.889V112.11L154 54.2207Z" stroke="#BEBEBE"/>
</g>
</svg>
