<svg width="302" height="222" viewBox="0 0 302 222" fill="none" xmlns="http://www.w3.org/2000/svg">
<path d="M73 57.5V0" stroke="#444444"/>
<path d="M176.604 29.75H172.391V31.18H171.665V29.09H172.248C172.38 28.892 172.486 28.7013 172.567 28.518C172.648 28.3347 172.71 28.1257 172.754 27.891C172.798 27.649 172.827 27.3703 172.842 27.055C172.864 26.7397 172.875 26.3547 172.875 25.9V24.25H176.56V29.09H177.33V31.18H176.604V29.75ZM173.601 25.9C173.601 26.3547 173.59 26.747 173.568 27.077C173.553 27.3997 173.524 27.682 173.48 27.924C173.443 28.166 173.392 28.3787 173.326 28.562C173.26 28.738 173.183 28.914 173.095 29.09H175.834V24.91H173.601V25.9ZM177.983 29.145H178.148C178.28 29.145 178.401 29.1157 178.511 29.057C178.628 28.991 178.727 28.8737 178.808 28.705C178.896 28.5363 178.962 28.309 179.006 28.023C179.057 27.7297 179.083 27.352 179.083 26.89V24.25H182.823V29.75H182.097V24.91H179.809V26.89C179.809 27.462 179.768 27.9387 179.688 28.32C179.614 28.694 179.504 28.9947 179.358 29.222C179.211 29.442 179.035 29.5997 178.83 29.695C178.624 29.783 178.397 29.827 178.148 29.827H177.983V29.145ZM188.476 25.086L187.794 26.23L185.594 29.75H184.692V24.25H185.418V28.925L186.1 27.77L188.3 24.25H189.202V29.75H188.476V25.086ZM194.857 27.275H191.799V29.75H191.073V24.25H191.799V26.615H194.857V24.25H195.583V29.75H194.857V27.275ZM198.774 29.827C198.224 29.827 197.802 29.6877 197.509 29.409C197.215 29.123 197.069 28.7307 197.069 28.232C197.069 27.968 197.109 27.7297 197.19 27.517C197.278 27.297 197.413 27.1137 197.597 26.967C197.787 26.8203 198.029 26.7067 198.323 26.626C198.616 26.5453 198.968 26.505 199.379 26.505H200.633V26.01C200.633 25.614 200.534 25.3243 200.336 25.141C200.145 24.9503 199.826 24.855 199.379 24.855C198.975 24.855 198.671 24.9357 198.466 25.097C198.268 25.251 198.154 25.4637 198.125 25.735H197.344C197.358 25.5077 197.41 25.2987 197.498 25.108C197.586 24.9173 197.714 24.7523 197.883 24.613C198.051 24.4737 198.26 24.3673 198.51 24.294C198.759 24.2133 199.049 24.173 199.379 24.173C200.031 24.173 200.523 24.3343 200.853 24.657C201.19 24.9797 201.359 25.4307 201.359 26.01V29.75H200.798L200.688 28.716C200.497 29.068 200.233 29.343 199.896 29.541C199.566 29.7317 199.192 29.827 198.774 29.827ZM198.829 29.145C199.078 29.145 199.313 29.101 199.533 29.013C199.753 28.9177 199.943 28.793 200.105 28.639C200.273 28.4777 200.402 28.2943 200.49 28.089C200.585 27.8763 200.633 27.6527 200.633 27.418V27.165H199.379C198.814 27.165 198.411 27.264 198.169 27.462C197.934 27.66 197.817 27.9167 197.817 28.232C197.817 28.5107 197.901 28.7343 198.07 28.903C198.246 29.0643 198.499 29.145 198.829 29.145Z" fill="#444444"/>
<path d="M74 39.75L79 42.6368V36.8632L74 39.75ZM300 39.75L295 36.8632V42.6368L300 39.75ZM78.5 40.25H295.5V39.25H78.5V40.25Z" fill="#444444"/>
<path d="M301 57.5V0" stroke="#444444"/>
<path d="M58.25 221.5L0.75 221.5" stroke="#444444"/>
<path d="M25 163.565L25 162.839L29.84 162.839L29.84 160.683L25 160.683L25 159.957L29.84 159.957L29.84 157.801L25 157.801L25 157.075L30.5 157.075L30.5 163.565L25 163.565ZM25.836 151.424L26.98 152.106L30.5 154.306L30.5 155.208L25 155.208L25 154.482L29.675 154.482L28.52 153.8L25 151.6L25 150.698L30.5 150.698L30.5 151.424L25.836 151.424ZM30.577 146.363C30.577 146.744 30.5073 147.081 30.368 147.375C30.2213 147.668 29.9977 147.91 29.697 148.101L32.7 148.101L32.7 148.827L25 148.827L25 148.266L25.924 148.178C25.5867 147.987 25.3373 147.741 25.176 147.441C25.0073 147.133 24.923 146.773 24.923 146.363C24.923 146.047 24.978 145.758 25.088 145.494C25.198 145.23 25.363 145.002 25.583 144.812C25.7957 144.621 26.0633 144.474 26.386 144.372C26.7087 144.262 27.0827 144.207 27.508 144.207L27.992 144.207C28.41 144.207 28.7803 144.262 29.103 144.372C29.4257 144.474 29.697 144.621 29.917 144.812C30.137 145.002 30.302 145.23 30.412 145.494C30.522 145.758 30.577 146.047 30.577 146.363ZM29.895 146.528C29.895 146.051 29.741 145.67 29.433 145.384C29.1177 145.098 28.6373 144.955 27.992 144.955L27.508 144.955C26.87 144.955 26.3933 145.101 26.078 145.395C25.7627 145.681 25.605 146.058 25.605 146.528C25.605 146.968 25.759 147.338 26.067 147.639C26.375 147.932 26.826 148.086 27.42 148.101L27.992 148.101C28.608 148.101 29.081 147.954 29.411 147.661C29.7337 147.367 29.895 146.99 29.895 146.528ZM25.836 138.887L26.98 139.569L30.5 141.769L30.5 142.671L25 142.671L25 141.945L29.675 141.945L28.52 141.263L25 139.063L25 138.161L30.5 138.161L30.5 138.887L25.836 138.887ZM28.025 132.507L28.025 135.565L30.5 135.565L30.5 136.291L25 136.291L25 135.565L27.365 135.565L27.365 132.507L25 132.507L25 131.781L30.5 131.781L30.5 132.507L28.025 132.507ZM30.577 128.59C30.577 129.14 30.4377 129.561 30.159 129.855C29.873 130.148 29.4807 130.295 28.982 130.295C28.718 130.295 28.4797 130.254 28.267 130.174C28.047 130.086 27.8637 129.95 27.717 129.767C27.5703 129.576 27.4567 129.334 27.376 129.041C27.2953 128.747 27.255 128.395 27.255 127.985L27.255 126.731L26.76 126.731C26.364 126.731 26.0743 126.83 25.891 127.028C25.7003 127.218 25.605 127.537 25.605 127.985C25.605 128.388 25.6857 128.692 25.847 128.898C26.001 129.096 26.2137 129.209 26.485 129.239L26.485 130.02C26.2577 130.005 26.0487 129.954 25.858 129.866C25.6673 129.778 25.5023 129.649 25.363 129.481C25.2237 129.312 25.1173 129.103 25.044 128.854C24.9633 128.604 24.923 128.315 24.923 127.985C24.923 127.332 25.0843 126.841 25.407 126.511C25.7297 126.173 26.1807 126.005 26.76 126.005L30.5 126.005L30.5 126.566L29.466 126.676C29.818 126.866 30.093 127.13 30.291 127.468C30.4817 127.798 30.577 128.172 30.577 128.59ZM29.895 128.535C29.895 128.285 29.851 128.051 29.763 127.831C29.6677 127.611 29.543 127.42 29.389 127.259C29.2277 127.09 29.0443 126.962 28.839 126.874C28.6263 126.778 28.4027 126.731 28.168 126.731L27.915 126.731L27.915 127.985C27.915 128.549 28.014 128.953 28.212 129.195C28.41 129.429 28.6667 129.547 28.982 129.547C29.2607 129.547 29.4843 129.462 29.653 129.294C29.8143 129.118 29.895 128.865 29.895 128.535Z" fill="#444444"/>
<path d="M40.5 220.5L43.3868 215.5L37.6132 215.5L40.5 220.5ZM40.5 68.5L37.6132 73.5L43.3867 73.5L40.5 68.5ZM41 216L41 73L40 73L40 216L41 216Z" fill="#444444"/>
<path d="M58.25 67.5L0.75 67.5" stroke="#444444"/>
<mask id="mask0_234_14138" style="mask-type:alpha" maskUnits="userSpaceOnUse" x="73" y="67" width="228" height="154">
<path fill-rule="evenodd" clip-rule="evenodd" d="M73 67.5H301V220.5H73V67.5ZM96 90.5V197.5H278V90.5H96Z" fill="black"/>
<path d="M96 197.5V90.5H278V197.5H96Z" fill="black"/>
</mask>
<g mask="url(#mask0_234_14138)">
<path d="M81.8929 60.2373L-156.5 298.63" stroke="#EEEEEE" stroke-width="1.27143"/>
<path d="M87.6136 60.2373L-150.779 298.63" stroke="#EEEEEE" stroke-width="1.27143"/>
<path d="M93.3362 60.2373L-145.057 298.63" stroke="#EEEEEE" stroke-width="1.27143"/>
<path d="M99.0569 60.2373L-139.336 298.63" stroke="#EEEEEE" stroke-width="1.27143"/>
<path d="M104.778 60.2373L-133.615 298.63" stroke="#EEEEEE" stroke-width="1.27143"/>
<path d="M110.5 60.2373L-127.893 298.63" stroke="#EEEEEE" stroke-width="1.27143"/>
<path d="M116.221 60.2373L-122.172 298.63" stroke="#EEEEEE" stroke-width="1.27143"/>
<path d="M121.944 60.2373L-116.449 298.63" stroke="#EEEEEE" stroke-width="1.27143"/>
<path d="M127.664 60.2373L-110.729 298.63" stroke="#EEEEEE" stroke-width="1.27143"/>
<path d="M133.385 60.2373L-105.008 298.63" stroke="#EEEEEE" stroke-width="1.27143"/>
<path d="M139.108 60.2373L-99.2852 298.63" stroke="#EEEEEE" stroke-width="1.27143"/>
<path d="M144.828 60.2373L-93.5645 298.63" stroke="#EEEEEE" stroke-width="1.27143"/>
<path d="M150.549 60.2373L-87.8438 298.63" stroke="#EEEEEE" stroke-width="1.27143"/>
<path d="M156.272 60.2373L-82.1211 298.63" stroke="#EEEEEE" stroke-width="1.27143"/>
<path d="M161.992 60.2373L-76.4004 298.63" stroke="#EEEEEE" stroke-width="1.27143"/>
<path d="M167.715 60.2373L-70.6777 298.63" stroke="#EEEEEE" stroke-width="1.27143"/>
<path d="M173.436 60.2373L-64.957 298.63" stroke="#EEEEEE" stroke-width="1.27143"/>
<path d="M179.157 60.2373L-59.2363 298.63" stroke="#EEEEEE" stroke-width="1.27143"/>
<path d="M184.879 60.2373L-53.5137 298.63" stroke="#EEEEEE" stroke-width="1.27143"/>
<path d="M190.6 60.2373L-47.793 298.63" stroke="#EEEEEE" stroke-width="1.27143"/>
<path d="M196.321 60.2373L-42.0723 298.63" stroke="#EEEEEE" stroke-width="1.27143"/>
<path d="M202.043 60.2373L-36.3496 298.63" stroke="#EEEEEE" stroke-width="1.27143"/>
<path d="M207.764 60.2373L-30.6289 298.63" stroke="#EEEEEE" stroke-width="1.27143"/>
<path d="M213.485 60.2373L-24.9082 298.63" stroke="#EEEEEE" stroke-width="1.27143"/>
<path d="M219.207 60.2373L-19.1855 298.63" stroke="#EEEEEE" stroke-width="1.27143"/>
<path d="M224.928 60.2373L-13.4648 298.63" stroke="#EEEEEE" stroke-width="1.27143"/>
<path d="M230.651 60.2373L-7.74219 298.63" stroke="#EEEEEE" stroke-width="1.27143"/>
<path d="M236.371 60.2373L-2.02148 298.63" stroke="#EEEEEE" stroke-width="1.27143"/>
<path d="M242.092 60.2373L3.69922 298.63" stroke="#EEEEEE" stroke-width="1.27143"/>
<path d="M247.815 60.2373L9.42188 298.63" stroke="#EEEEEE" stroke-width="1.27143"/>
<path d="M253.535 60.2373L15.1426 298.63" stroke="#EEEEEE" stroke-width="1.27143"/>
<path d="M259.256 60.2373L20.8633 298.63" stroke="#EEEEEE" stroke-width="1.27143"/>
<path d="M264.979 60.2373L26.5859 298.63" stroke="#EEEEEE" stroke-width="1.27143"/>
<path d="M270.7 60.2373L32.3066 298.63" stroke="#EEEEEE" stroke-width="1.27143"/>
<path d="M276.42 60.2373L38.0273 298.63" stroke="#EEEEEE" stroke-width="1.27143"/>
<path d="M282.143 60.2373L43.75 298.63" stroke="#EEEEEE" stroke-width="1.27143"/>
<path d="M287.864 60.2373L49.4707 298.63" stroke="#EEEEEE" stroke-width="1.27143"/>
<path d="M293.586 60.2373L55.1934 298.63" stroke="#EEEEEE" stroke-width="1.27143"/>
<path d="M299.307 60.2373L60.9141 298.63" stroke="#EEEEEE" stroke-width="1.27143"/>
<path d="M305.028 60.2373L66.6348 298.63" stroke="#EEEEEE" stroke-width="1.27143"/>
<path d="M310.75 60.2373L72.3574 298.63" stroke="#EEEEEE" stroke-width="1.27143"/>
<path d="M316.471 60.2373L78.0781 298.63" stroke="#EEEEEE" stroke-width="1.27143"/>
<path d="M322.192 60.2373L83.7988 298.63" stroke="#EEEEEE" stroke-width="1.27143"/>
<path d="M327.914 60.2373L89.5215 298.63" stroke="#EEEEEE" stroke-width="1.27143"/>
<path d="M333.635 60.2373L95.2422 298.63" stroke="#EEEEEE" stroke-width="1.27143"/>
<path d="M339.358 60.2373L100.965 298.63" stroke="#EEEEEE" stroke-width="1.27143"/>
<path d="M345.078 60.2373L106.686 298.63" stroke="#EEEEEE" stroke-width="1.27143"/>
<path d="M350.799 60.2373L112.406 298.63" stroke="#EEEEEE" stroke-width="1.27143"/>
<path d="M356.522 60.2373L118.129 298.63" stroke="#EEEEEE" stroke-width="1.27143"/>
<path d="M362.242 60.2373L123.85 298.63" stroke="#EEEEEE" stroke-width="1.27143"/>
<path d="M367.963 60.2373L129.57 298.63" stroke="#EEEEEE" stroke-width="1.27143"/>
<path d="M373.686 60.2373L135.293 298.63" stroke="#EEEEEE" stroke-width="1.27143"/>
<path d="M379.407 60.2373L141.014 298.63" stroke="#EEEEEE" stroke-width="1.27143"/>
<path d="M385.129 60.2373L146.736 298.63" stroke="#EEEEEE" stroke-width="1.27143"/>
<path d="M390.85 60.2373L152.457 298.63" stroke="#EEEEEE" stroke-width="1.27143"/>
<path d="M396.571 60.2373L158.178 298.63" stroke="#EEEEEE" stroke-width="1.27143"/>
<path d="M402.293 60.2373L163.9 298.63" stroke="#EEEEEE" stroke-width="1.27143"/>
<path d="M408.014 60.2373L169.621 298.63" stroke="#EEEEEE" stroke-width="1.27143"/>
<path d="M413.735 60.2373L175.342 298.63" stroke="#EEEEEE" stroke-width="1.27143"/>
<path d="M419.457 60.2373L181.064 298.63" stroke="#EEEEEE" stroke-width="1.27143"/>
<path d="M425.178 60.2373L186.785 298.63" stroke="#EEEEEE" stroke-width="1.27143"/>
<path d="M430.901 60.2373L192.508 298.63" stroke="#EEEEEE" stroke-width="1.27143"/>
<path d="M436.621 60.2373L198.229 298.63" stroke="#EEEEEE" stroke-width="1.27143"/>
<path d="M442.342 60.2373L203.949 298.63" stroke="#EEEEEE" stroke-width="1.27143"/>
<path d="M448.065 60.2373L209.672 298.63" stroke="#EEEEEE" stroke-width="1.27143"/>
<path d="M453.785 60.2373L215.393 298.63" stroke="#EEEEEE" stroke-width="1.27143"/>
<path d="M459.506 60.2373L221.113 298.63" stroke="#EEEEEE" stroke-width="1.27143"/>
<path d="M465.229 60.2373L226.836 298.63" stroke="#EEEEEE" stroke-width="1.27143"/>
<path d="M470.95 60.2373L232.557 298.63" stroke="#EEEEEE" stroke-width="1.27143"/>
<path d="M476.672 60.2373L238.279 298.63" stroke="#EEEEEE" stroke-width="1.27143"/>
<path d="M482.393 60.2373L244 298.63" stroke="#EEEEEE" stroke-width="1.27143"/>
<path d="M488.114 60.2373L249.721 298.63" stroke="#EEEEEE" stroke-width="1.27143"/>
<path d="M493.836 60.2373L255.443 298.63" stroke="#EEEEEE" stroke-width="1.27143"/>
<path d="M499.557 60.2373L261.164 298.63" stroke="#EEEEEE" stroke-width="1.27143"/>
<path d="M505.278 60.2373L266.885 298.63" stroke="#EEEEEE" stroke-width="1.27143"/>
<path d="M511 60.2373L272.607 298.63" stroke="#EEEEEE" stroke-width="1.27143"/>
<path d="M516.721 60.2373L278.328 298.63" stroke="#EEEEEE" stroke-width="1.27143"/>
<path d="M522.444 60.2373L284.051 298.63" stroke="#EEEEEE" stroke-width="1.27143"/>
<path d="M528.164 60.2373L289.771 298.63" stroke="#EEEEEE" stroke-width="1.27143"/>
<path d="M533.885 60.2373L295.492 298.63" stroke="#EEEEEE" stroke-width="1.27143"/>
<path d="M539.608 60.2373L301.215 298.63" stroke="#EEEEEE" stroke-width="1.27143"/>
<path fill-rule="evenodd" clip-rule="evenodd" d="M73 67.5H301V220.5H73V67.5Z" stroke="#BEBEBE"/>
</g>
</svg>
