<svg width="30" height="30" viewBox="0 0 30 30" fill="none" xmlns="http://www.w3.org/2000/svg">
<g clip-path="url(#clip0_10814_26036)">
<path d="M2.63672 15.8789H11.4844C12.9383 15.8789 14.1211 17.0617 14.1211 18.5156V27.3633C14.1211 28.8172 12.9383 30 11.4844 30H2.63672C1.18277 30 0 28.8172 0 27.3633V18.5156C0 17.0617 1.18277 15.8789 2.63672 15.8789ZM4.45312 23.7891H6.21094V25.5469C6.21094 26.0327 6.60404 26.4258 7.08984 26.4258C7.57564 26.4258 7.96875 26.0327 7.96875 25.5469V23.7891H9.72656C10.2124 23.7891 10.6055 23.396 10.6055 22.9102C10.6055 22.4244 10.2124 22.0312 9.72656 22.0312H7.96875V20.2734C7.96875 19.7876 7.57564 19.3945 7.08984 19.3945C6.60404 19.3945 6.21094 19.7876 6.21094 20.2734V22.0312H4.45312C3.96732 22.0312 3.57422 22.4244 3.57422 22.9102C3.57422 23.396 3.96732 23.7891 4.45312 23.7891Z" fill="#56C8D1"/>
<path d="M27.3633 30H18.5156C17.0617 30 15.8789 28.8172 15.8789 27.3633V18.5156C15.8789 17.0617 17.0617 15.8789 18.5156 15.8789H27.3633C28.8172 15.8789 30 17.0617 30 18.5156V27.3633C30 28.8172 28.8172 30 27.3633 30ZM25.6055 22.0312H20.2734C19.7876 22.0312 19.3945 22.4244 19.3945 22.9102C19.3945 23.396 19.7876 23.7891 20.2734 23.7891H25.6055C26.0913 23.7891 26.4844 23.396 26.4844 22.9102C26.4844 22.4244 26.0913 22.0312 25.6055 22.0312Z" fill="#56C8D1"/>
<path d="M27.3633 14.1211H18.5156C17.0617 14.1211 15.8789 12.9383 15.8789 11.4844V2.63672C15.8789 1.18277 17.0617 0 18.5156 0H27.3633C28.8172 0 30 1.18277 30 2.63672V11.4844C30 12.9383 28.8172 14.1211 27.3633 14.1211ZM25.6055 4.45312H20.2734C19.7876 4.45312 19.3945 4.84623 19.3945 5.33203C19.3945 5.81783 19.7876 6.21094 20.2734 6.21094H25.6055C26.0913 6.21094 26.4844 5.81783 26.4844 5.33203C26.4844 4.84623 26.0913 4.45312 25.6055 4.45312ZM25.6055 7.96875H20.2734C19.7876 7.96875 19.3945 8.36186 19.3945 8.84766C19.3945 9.33346 19.7876 9.72656 20.2734 9.72656H25.6055C26.0913 9.72656 26.4844 9.33346 26.4844 8.84766C26.4844 8.36186 26.0913 7.96875 25.6055 7.96875Z" fill="#56C8D1"/>
<path d="M14.1211 2.63672V11.4844C14.1211 12.9383 12.9383 14.1211 11.4844 14.1211H2.63672C1.18277 14.1211 0 12.9383 0 11.4844V2.63672C0 1.18277 1.18277 0 2.63672 0H11.4844C12.9383 0 14.1211 1.18277 14.1211 2.63672ZM9.57551 5.84701C9.91881 5.50371 9.91881 4.94748 9.57551 4.60418C9.23221 4.26088 8.67598 4.26088 8.33268 4.60418L7.08984 5.84701L5.84701 4.60418C5.50371 4.26088 4.94748 4.26088 4.60418 4.60418C4.26088 4.94748 4.26088 5.50371 4.60418 5.84701L5.84701 7.08984L4.60418 8.33268C4.26088 8.67598 4.26088 9.23221 4.60418 9.57551C4.94748 9.91881 5.50371 9.91881 5.84701 9.57551L7.08984 8.33268L8.33268 9.57551C8.67598 9.91881 9.23221 9.91881 9.57551 9.57551C9.91881 9.23221 9.91881 8.67598 9.57551 8.33268L8.33268 7.08984L9.57551 5.84701Z" fill="#56C8D1"/>
</g>
<defs>
<clipPath id="clip0_10814_26036">
<rect width="30" height="30" fill="white" transform="matrix(1 0 0 -1 0 30)"/>
</clipPath>
</defs>
</svg>
