<svg width="300" height="297" viewBox="0 0 300 297" fill="none" xmlns="http://www.w3.org/2000/svg">
<path d="M69.5 57.5V0" stroke="#444444"/>
<path d="M174.104 29.75H169.891V31.18H169.165V29.09H169.748C169.88 28.892 169.986 28.7013 170.067 28.518C170.148 28.3347 170.21 28.1257 170.254 27.891C170.298 27.649 170.327 27.3703 170.342 27.055C170.364 26.7397 170.375 26.3547 170.375 25.9V24.25H174.06V29.09H174.83V31.18H174.104V29.75ZM171.101 25.9C171.101 26.3547 171.09 26.747 171.068 27.077C171.053 27.3997 171.024 27.682 170.98 27.924C170.943 28.166 170.892 28.3787 170.826 28.562C170.76 28.738 170.683 28.914 170.595 29.09H173.334V24.91H171.101V25.9ZM175.483 29.145H175.648C175.78 29.145 175.901 29.1157 176.011 29.057C176.128 28.991 176.227 28.8737 176.308 28.705C176.396 28.5363 176.462 28.309 176.506 28.023C176.557 27.7297 176.583 27.352 176.583 26.89V24.25H180.323V29.75H179.597V24.91H177.309V26.89C177.309 27.462 177.268 27.9387 177.188 28.32C177.114 28.694 177.004 28.9947 176.858 29.222C176.711 29.442 176.535 29.5997 176.33 29.695C176.124 29.783 175.897 29.827 175.648 29.827H175.483V29.145ZM185.976 25.086L185.294 26.23L183.094 29.75H182.192V24.25H182.918V28.925L183.6 27.77L185.8 24.25H186.702V29.75H185.976V25.086ZM192.357 27.275H189.299V29.75H188.573V24.25H189.299V26.615H192.357V24.25H193.083V29.75H192.357V27.275ZM196.274 29.827C195.724 29.827 195.302 29.6877 195.009 29.409C194.715 29.123 194.569 28.7307 194.569 28.232C194.569 27.968 194.609 27.7297 194.69 27.517C194.778 27.297 194.913 27.1137 195.097 26.967C195.287 26.8203 195.529 26.7067 195.823 26.626C196.116 26.5453 196.468 26.505 196.879 26.505H198.133V26.01C198.133 25.614 198.034 25.3243 197.836 25.141C197.645 24.9503 197.326 24.855 196.879 24.855C196.475 24.855 196.171 24.9357 195.966 25.097C195.768 25.251 195.654 25.4637 195.625 25.735H194.844C194.858 25.5077 194.91 25.2987 194.998 25.108C195.086 24.9173 195.214 24.7523 195.383 24.613C195.551 24.4737 195.76 24.3673 196.01 24.294C196.259 24.2133 196.549 24.173 196.879 24.173C197.531 24.173 198.023 24.3343 198.353 24.657C198.69 24.9797 198.859 25.4307 198.859 26.01V29.75H198.298L198.188 28.716C197.997 29.068 197.733 29.343 197.396 29.541C197.066 29.7317 196.692 29.827 196.274 29.827ZM196.329 29.145C196.578 29.145 196.813 29.101 197.033 29.013C197.253 28.9177 197.443 28.793 197.605 28.639C197.773 28.4777 197.902 28.2943 197.99 28.089C198.085 27.8763 198.133 27.6527 198.133 27.418V27.165H196.879C196.314 27.165 195.911 27.264 195.669 27.462C195.434 27.66 195.317 27.9167 195.317 28.232C195.317 28.5107 195.401 28.7343 195.57 28.903C195.746 29.0643 195.999 29.145 196.329 29.145Z" fill="#444444"/>
<path d="M70.5 39.75L75.5 42.6368V36.8632L70.5 39.75ZM298.5 39.75L293.5 36.8632V42.6368L298.5 39.75ZM75 40.25H294V39.25H75V40.25Z" fill="#444444"/>
<path d="M299.5 57.5V0" stroke="#444444"/>
<path d="M58.25 296.5L0.75 296.5" stroke="#444444"/>
<path d="M25 201.065L25 200.339L29.84 200.339L29.84 198.183L25 198.183L25 197.457L29.84 197.457L29.84 195.301L25 195.301L25 194.575L30.5 194.575L30.5 201.065L25 201.065ZM25.836 188.924L26.98 189.606L30.5 191.806L30.5 192.708L25 192.708L25 191.982L29.675 191.982L28.52 191.3L25 189.1L25 188.198L30.5 188.198L30.5 188.924L25.836 188.924ZM30.577 183.863C30.577 184.244 30.5073 184.581 30.368 184.875C30.2213 185.168 29.9977 185.41 29.697 185.601L32.7 185.601L32.7 186.327L25 186.327L25 185.766L25.924 185.678C25.5867 185.487 25.3373 185.241 25.176 184.941C25.0073 184.633 24.923 184.273 24.923 183.863C24.923 183.547 24.978 183.258 25.088 182.994C25.198 182.73 25.363 182.502 25.583 182.312C25.7957 182.121 26.0633 181.974 26.386 181.872C26.7087 181.762 27.0827 181.707 27.508 181.707L27.992 181.707C28.41 181.707 28.7803 181.762 29.103 181.872C29.4257 181.974 29.697 182.121 29.917 182.312C30.137 182.502 30.302 182.73 30.412 182.994C30.522 183.258 30.577 183.547 30.577 183.863ZM29.895 184.028C29.895 183.551 29.741 183.17 29.433 182.884C29.1177 182.598 28.6373 182.455 27.992 182.455L27.508 182.455C26.87 182.455 26.3933 182.601 26.078 182.895C25.7627 183.181 25.605 183.558 25.605 184.028C25.605 184.468 25.759 184.838 26.067 185.139C26.375 185.432 26.826 185.586 27.42 185.601L27.992 185.601C28.608 185.601 29.081 185.454 29.411 185.161C29.7337 184.867 29.895 184.49 29.895 184.028ZM25.836 176.387L26.98 177.069L30.5 179.269L30.5 180.171L25 180.171L25 179.445L29.675 179.445L28.52 178.763L25 176.563L25 175.661L30.5 175.661L30.5 176.387L25.836 176.387ZM28.025 170.007L28.025 173.065L30.5 173.065L30.5 173.791L25 173.791L25 173.065L27.365 173.065L27.365 170.007L25 170.007L25 169.281L30.5 169.281L30.5 170.007L28.025 170.007ZM30.577 166.09C30.577 166.64 30.4377 167.061 30.159 167.355C29.873 167.648 29.4807 167.795 28.982 167.795C28.718 167.795 28.4797 167.754 28.267 167.674C28.047 167.586 27.8637 167.45 27.717 167.267C27.5703 167.076 27.4567 166.834 27.376 166.541C27.2953 166.247 27.255 165.895 27.255 165.485L27.255 164.231L26.76 164.231C26.364 164.231 26.0743 164.33 25.891 164.528C25.7003 164.718 25.605 165.037 25.605 165.485C25.605 165.888 25.6857 166.192 25.847 166.398C26.001 166.596 26.2137 166.709 26.485 166.739L26.485 167.52C26.2577 167.505 26.0487 167.454 25.858 167.366C25.6673 167.278 25.5023 167.149 25.363 166.981C25.2237 166.812 25.1173 166.603 25.044 166.354C24.9633 166.104 24.923 165.815 24.923 165.485C24.923 164.832 25.0843 164.341 25.407 164.011C25.7297 163.673 26.1807 163.505 26.76 163.505L30.5 163.505L30.5 164.066L29.466 164.176C29.818 164.366 30.093 164.63 30.291 164.968C30.4817 165.298 30.577 165.672 30.577 166.09ZM29.895 166.035C29.895 165.785 29.851 165.551 29.763 165.331C29.6677 165.111 29.543 164.92 29.389 164.759C29.2277 164.59 29.0443 164.462 28.839 164.374C28.6263 164.278 28.4027 164.231 28.168 164.231L27.915 164.231L27.915 165.485C27.915 166.049 28.014 166.453 28.212 166.695C28.41 166.929 28.6667 167.047 28.982 167.047C29.2607 167.047 29.4843 166.962 29.653 166.794C29.8143 166.618 29.895 166.365 29.895 166.035Z" fill="#444444"/>
<path d="M40.5 295.5L43.3868 290.5L37.6132 290.5L40.5 295.5ZM40.5 68.5L37.6132 73.5L43.3867 73.5L40.5 68.5ZM41 291L41 73L40 73L40 291L41 291Z" fill="#444444"/>
<path d="M58.25 67.5L0.75 67.5" stroke="#444444"/>
<mask id="mask0_234_14658" style="mask-type:alpha" maskUnits="userSpaceOnUse" x="73" y="67" width="227" height="229">
<path fill-rule="evenodd" clip-rule="evenodd" d="M84 274.68C77.9249 274.68 73 279.605 73 285.68V295.5H176H198.25L299.5 295.5V285.68C299.5 279.604 294.575 274.68 288.5 274.68H219.578C207.879 273.44 199 263.572 199 251.808L199 111.193C199 99.4278 207.879 89.5596 219.578 88.3205H288.5C294.575 88.3205 299.5 83.3956 299.5 77.3205V67.5L198.25 67.5H176L73 67.5L73 77.3205C73 83.3956 77.9249 88.3205 84 88.3205L154.673 88.3205C166.372 89.5596 175.25 99.4278 175.25 111.193L175.25 251.808C175.25 263.572 166.372 273.44 154.673 274.68L84 274.68Z" fill="black"/>
</mask>
<g mask="url(#mask0_234_14658)">
<path d="M76.9944 62.25L-161.398 300.643" stroke="#EEEEEE" stroke-width="1.27143"/>
<path d="M82.7171 62.25L-155.676 300.643" stroke="#EEEEEE" stroke-width="1.27143"/>
<path d="M88.4378 62.25L-149.955 300.643" stroke="#EEEEEE" stroke-width="1.27143"/>
<path d="M94.1585 62.25L-144.234 300.643" stroke="#EEEEEE" stroke-width="1.27143"/>
<path d="M99.8811 62.25L-138.512 300.643" stroke="#EEEEEE" stroke-width="1.27143"/>
<path d="M105.602 62.25L-132.791 300.643" stroke="#EEEEEE" stroke-width="1.27143"/>
<path d="M111.323 62.25L-127.07 300.643" stroke="#EEEEEE" stroke-width="1.27143"/>
<path d="M117.045 62.25L-121.348 300.643" stroke="#EEEEEE" stroke-width="1.27143"/>
<path d="M122.766 62.25L-115.627 300.643" stroke="#EEEEEE" stroke-width="1.27143"/>
<path d="M128.487 62.25L-109.906 300.643" stroke="#EEEEEE" stroke-width="1.27143"/>
<path d="M134.209 62.25L-104.184 300.643" stroke="#EEEEEE" stroke-width="1.27143"/>
<path d="M139.93 62.25L-98.4629 300.643" stroke="#EEEEEE" stroke-width="1.27143"/>
<path d="M145.653 62.25L-92.7402 300.643" stroke="#EEEEEE" stroke-width="1.27143"/>
<path d="M151.373 62.25L-87.0195 300.643" stroke="#EEEEEE" stroke-width="1.27143"/>
<path d="M157.094 62.25L-81.2988 300.643" stroke="#EEEEEE" stroke-width="1.27143"/>
<path d="M162.817 62.25L-75.5762 300.643" stroke="#EEEEEE" stroke-width="1.27143"/>
<path d="M168.537 62.25L-69.8555 300.643" stroke="#EEEEEE" stroke-width="1.27143"/>
<path d="M174.258 62.25L-64.1348 300.643" stroke="#EEEEEE" stroke-width="1.27143"/>
<path d="M179.981 62.25L-58.4121 300.643" stroke="#EEEEEE" stroke-width="1.27143"/>
<path d="M185.701 62.25L-52.6914 300.643" stroke="#EEEEEE" stroke-width="1.27143"/>
<path d="M191.422 62.25L-46.9707 300.643" stroke="#EEEEEE" stroke-width="1.27143"/>
<path d="M197.145 62.25L-41.248 300.643" stroke="#EEEEEE" stroke-width="1.27143"/>
<path d="M202.866 62.25L-35.5273 300.643" stroke="#EEEEEE" stroke-width="1.27143"/>
<path d="M208.588 62.25L-29.8047 300.643" stroke="#EEEEEE" stroke-width="1.27143"/>
<path d="M214.309 62.25L-24.084 300.643" stroke="#EEEEEE" stroke-width="1.27143"/>
<path d="M220.03 62.25L-18.3633 300.643" stroke="#EEEEEE" stroke-width="1.27143"/>
<path d="M225.752 62.25L-12.6406 300.643" stroke="#EEEEEE" stroke-width="1.27143"/>
<path d="M231.473 62.25L-6.91992 300.643" stroke="#EEEEEE" stroke-width="1.27143"/>
<path d="M237.194 62.25L-1.19922 300.643" stroke="#EEEEEE" stroke-width="1.27143"/>
<path d="M242.916 62.25L4.52344 300.643" stroke="#EEEEEE" stroke-width="1.27143"/>
<path d="M248.637 62.25L10.2441 300.643" stroke="#EEEEEE" stroke-width="1.27143"/>
<path d="M254.36 62.25L15.9668 300.643" stroke="#EEEEEE" stroke-width="1.27143"/>
<path d="M260.08 62.25L21.6875 300.643" stroke="#EEEEEE" stroke-width="1.27143"/>
<path d="M265.801 62.25L27.4082 300.643" stroke="#EEEEEE" stroke-width="1.27143"/>
<path d="M271.524 62.25L33.1309 300.643" stroke="#EEEEEE" stroke-width="1.27143"/>
<path d="M277.244 62.25L38.8516 300.643" stroke="#EEEEEE" stroke-width="1.27143"/>
<path d="M282.965 62.25L44.5723 300.643" stroke="#EEEEEE" stroke-width="1.27143"/>
<path d="M288.688 62.25L50.2949 300.643" stroke="#EEEEEE" stroke-width="1.27143"/>
<path d="M294.408 62.25L56.0156 300.643" stroke="#EEEEEE" stroke-width="1.27143"/>
<path d="M300.131 62.25L61.7383 300.643" stroke="#EEEEEE" stroke-width="1.27143"/>
<path d="M305.852 62.25L67.459 300.643" stroke="#EEEEEE" stroke-width="1.27143"/>
<path d="M311.573 62.25L73.1797 300.643" stroke="#EEEEEE" stroke-width="1.27143"/>
<path d="M317.295 62.25L78.9023 300.643" stroke="#EEEEEE" stroke-width="1.27143"/>
<path d="M323.016 62.25L84.623 300.643" stroke="#EEEEEE" stroke-width="1.27143"/>
<path d="M328.737 62.25L90.3438 300.643" stroke="#EEEEEE" stroke-width="1.27143"/>
<path d="M334.459 62.25L96.0664 300.643" stroke="#EEEEEE" stroke-width="1.27143"/>
<path d="M340.18 62.25L101.787 300.643" stroke="#EEEEEE" stroke-width="1.27143"/>
<path d="M345.903 62.25L107.51 300.643" stroke="#EEEEEE" stroke-width="1.27143"/>
<path d="M351.623 62.25L113.23 300.643" stroke="#EEEEEE" stroke-width="1.27143"/>
<path d="M357.344 62.25L118.951 300.643" stroke="#EEEEEE" stroke-width="1.27143"/>
<path d="M363.067 62.25L124.674 300.643" stroke="#EEEEEE" stroke-width="1.27143"/>
<path d="M368.787 62.25L130.395 300.643" stroke="#EEEEEE" stroke-width="1.27143"/>
<path d="M374.508 62.25L136.115 300.643" stroke="#EEEEEE" stroke-width="1.27143"/>
<path d="M380.231 62.25L141.838 300.643" stroke="#EEEEEE" stroke-width="1.27143"/>
<path d="M385.951 62.25L147.559 300.643" stroke="#EEEEEE" stroke-width="1.27143"/>
<path d="M391.674 62.25L153.281 300.643" stroke="#EEEEEE" stroke-width="1.27143"/>
<path d="M397.395 62.25L159.002 300.643" stroke="#EEEEEE" stroke-width="1.27143"/>
<path d="M403.116 62.25L164.723 300.643" stroke="#EEEEEE" stroke-width="1.27143"/>
<path d="M408.838 62.25L170.445 300.643" stroke="#EEEEEE" stroke-width="1.27143"/>
<path d="M414.559 62.25L176.166 300.643" stroke="#EEEEEE" stroke-width="1.27143"/>
<path d="M420.28 62.25L181.887 300.643" stroke="#EEEEEE" stroke-width="1.27143"/>
<path d="M426.002 62.25L187.609 300.643" stroke="#EEEEEE" stroke-width="1.27143"/>
<path d="M431.723 62.25L193.33 300.643" stroke="#EEEEEE" stroke-width="1.27143"/>
<path d="M437.446 62.25L199.053 300.643" stroke="#EEEEEE" stroke-width="1.27143"/>
<path d="M443.166 62.25L204.773 300.643" stroke="#EEEEEE" stroke-width="1.27143"/>
<path d="M448.887 62.25L210.494 300.643" stroke="#EEEEEE" stroke-width="1.27143"/>
<path d="M454.61 62.25L216.217 300.643" stroke="#EEEEEE" stroke-width="1.27143"/>
<path d="M460.33 62.25L221.938 300.643" stroke="#EEEEEE" stroke-width="1.27143"/>
<path d="M466.051 62.25L227.658 300.643" stroke="#EEEEEE" stroke-width="1.27143"/>
<path d="M471.774 62.25L233.381 300.643" stroke="#EEEEEE" stroke-width="1.27143"/>
<path d="M477.494 62.25L239.102 300.643" stroke="#EEEEEE" stroke-width="1.27143"/>
<path d="M483.217 62.25L244.824 300.643" stroke="#EEEEEE" stroke-width="1.27143"/>
<path d="M488.938 62.25L250.545 300.643" stroke="#EEEEEE" stroke-width="1.27143"/>
<path d="M494.658 62.25L256.266 300.643" stroke="#EEEEEE" stroke-width="1.27143"/>
<path d="M500.381 62.25L261.988 300.643" stroke="#EEEEEE" stroke-width="1.27143"/>
<path d="M506.102 62.25L267.709 300.643" stroke="#EEEEEE" stroke-width="1.27143"/>
<path d="M511.823 62.25L273.43 300.643" stroke="#EEEEEE" stroke-width="1.27143"/>
<path d="M517.545 62.25L279.152 300.643" stroke="#EEEEEE" stroke-width="1.27143"/>
<path d="M523.266 62.25L284.873 300.643" stroke="#EEEEEE" stroke-width="1.27143"/>
<path d="M528.989 62.25L290.596 300.643" stroke="#EEEEEE" stroke-width="1.27143"/>
<path d="M534.709 62.25L296.316 300.643" stroke="#EEEEEE" stroke-width="1.27143"/>
<path fill-rule="evenodd" clip-rule="evenodd" d="M84 274.68C77.9249 274.68 73 279.605 73 285.68V295.5H176H198.25L299.5 295.5V285.68C299.5 279.604 294.575 274.68 288.5 274.68H219.578C207.879 273.44 199 263.572 199 251.808L199 111.193C199 99.4278 207.879 89.5596 219.578 88.3205H288.5C294.575 88.3205 299.5 83.3956 299.5 77.3205V67.5L198.25 67.5H176L73 67.5L73 77.3205C73 83.3956 77.9249 88.3205 84 88.3205L154.673 88.3205C166.372 89.5596 175.25 99.4278 175.25 111.193L175.25 251.808C175.25 263.572 166.372 273.44 154.673 274.68L84 274.68Z" stroke="#BEBEBE"/>
</g>
</svg>
