<svg width="346" height="126" viewBox="0 0 346 126" fill="none" xmlns="http://www.w3.org/2000/svg">
<path d="M112 57.5V0" stroke="#444444"/>
<path d="M209.435 24.25H210.161V29.09H212.317V24.25H213.043V29.09H215.199V24.25H215.925V29.75H209.435V24.25ZM221.576 25.086L220.894 26.23L218.694 29.75H217.792V24.25H218.518V28.925L219.2 27.77L221.4 24.25H222.302V29.75H221.576V25.086ZM226.637 29.827C226.256 29.827 225.919 29.7573 225.625 29.618C225.332 29.4713 225.09 29.2477 224.899 28.947V31.95H224.173V24.25H224.734L224.822 25.174C225.013 24.8367 225.259 24.5873 225.559 24.426C225.867 24.2573 226.227 24.173 226.637 24.173C226.953 24.173 227.242 24.228 227.506 24.338C227.77 24.448 227.998 24.613 228.188 24.833C228.379 25.0457 228.526 25.3133 228.628 25.636C228.738 25.9587 228.793 26.3327 228.793 26.758V27.242C228.793 27.66 228.738 28.0303 228.628 28.353C228.526 28.6757 228.379 28.947 228.188 29.167C227.998 29.387 227.77 29.552 227.506 29.662C227.242 29.772 226.953 29.827 226.637 29.827ZM226.472 29.145C226.949 29.145 227.33 28.991 227.616 28.683C227.902 28.3677 228.045 27.8873 228.045 27.242V26.758C228.045 26.12 227.899 25.6433 227.605 25.328C227.319 25.0127 226.942 24.855 226.472 24.855C226.032 24.855 225.662 25.009 225.361 25.317C225.068 25.625 224.914 26.076 224.899 26.67V27.242C224.899 27.858 225.046 28.331 225.339 28.661C225.633 28.9837 226.01 29.145 226.472 29.145ZM234.113 25.086L233.431 26.23L231.231 29.75H230.329V24.25H231.055V28.925L231.737 27.77L233.937 24.25H234.839V29.75H234.113V25.086ZM240.493 27.275H237.435V29.75H236.709V24.25H237.435V26.615H240.493V24.25H241.219V29.75H240.493V27.275ZM244.41 29.827C243.86 29.827 243.439 29.6877 243.145 29.409C242.852 29.123 242.705 28.7307 242.705 28.232C242.705 27.968 242.746 27.7297 242.826 27.517C242.914 27.297 243.05 27.1137 243.233 26.967C243.424 26.8203 243.666 26.7067 243.959 26.626C244.253 26.5453 244.605 26.505 245.015 26.505H246.269V26.01C246.269 25.614 246.17 25.3243 245.972 25.141C245.782 24.9503 245.463 24.855 245.015 24.855C244.612 24.855 244.308 24.9357 244.102 25.097C243.904 25.251 243.791 25.4637 243.761 25.735H242.98C242.995 25.5077 243.046 25.2987 243.134 25.108C243.222 24.9173 243.351 24.7523 243.519 24.613C243.688 24.4737 243.897 24.3673 244.146 24.294C244.396 24.2133 244.685 24.173 245.015 24.173C245.668 24.173 246.159 24.3343 246.489 24.657C246.827 24.9797 246.995 25.4307 246.995 26.01V29.75H246.434L246.324 28.716C246.134 29.068 245.87 29.343 245.532 29.541C245.202 29.7317 244.828 29.827 244.41 29.827ZM244.465 29.145C244.715 29.145 244.949 29.101 245.169 29.013C245.389 28.9177 245.58 28.793 245.741 28.639C245.91 28.4777 246.038 28.2943 246.126 28.089C246.222 27.8763 246.269 27.6527 246.269 27.418V27.165H245.015C244.451 27.165 244.047 27.264 243.805 27.462C243.571 27.66 243.453 27.9167 243.453 28.232C243.453 28.5107 243.538 28.7343 243.706 28.903C243.882 29.0643 244.135 29.145 244.465 29.145Z" fill="#444444"/>
<path d="M113 39.75L118 42.6368V36.8632L113 39.75ZM344 39.75L339 36.8632V42.6368L344 39.75ZM117.5 40.25H339.5V39.25H117.5V40.25Z" fill="#444444"/>
<path d="M345 57.5V0" stroke="#444444"/>
<path d="M97.25 124.5L39.75 124.5" stroke="#444444"/>
<path d="M61.8 117.725L61.8 111.895L62.504 111.895L62.504 114.425L69.5 114.425L69.5 115.195L62.504 115.195L62.504 117.725L61.8 117.725ZM69.577 110.13C69.577 110.497 69.5183 110.831 69.401 111.131C69.2837 111.425 69.115 111.678 68.895 111.89C68.675 112.103 68.4073 112.268 68.092 112.385C67.7693 112.495 67.4027 112.55 66.992 112.55L66.508 112.55C66.1047 112.55 65.7453 112.492 65.43 112.374C65.1073 112.257 64.836 112.096 64.616 111.89C64.3887 111.678 64.2163 111.425 64.099 111.131C63.9817 110.831 63.923 110.497 63.923 110.13C63.923 109.764 63.9817 109.434 64.099 109.14C64.2163 108.84 64.385 108.583 64.605 108.37C64.825 108.158 65.0963 107.996 65.419 107.886C65.7417 107.769 66.1047 107.71 66.508 107.71L66.992 107.71C67.3953 107.71 67.7583 107.769 68.081 107.886C68.3963 108.004 68.6677 108.169 68.895 108.381C69.115 108.587 69.2837 108.84 69.401 109.14C69.5183 109.441 69.577 109.771 69.577 110.13ZM68.895 110.13C68.895 109.632 68.7337 109.228 68.411 108.92C68.081 108.612 67.608 108.458 66.992 108.458L66.508 108.458C65.8993 108.458 65.43 108.616 65.1 108.931C64.77 109.239 64.605 109.639 64.605 110.13C64.605 110.629 64.77 111.032 65.1 111.34C65.4227 111.648 65.892 111.802 66.508 111.802L66.992 111.802C67.6007 111.802 68.07 111.648 68.4 111.34C68.73 111.025 68.895 110.622 68.895 110.13ZM68.895 106.995L68.895 106.83C68.895 106.698 68.8657 106.577 68.807 106.467C68.741 106.35 68.6237 106.251 68.455 106.17C68.2863 106.082 68.059 106.016 67.773 105.972C67.4797 105.921 67.102 105.895 66.64 105.895L64 105.895L64 102.155L69.5 102.155L69.5 102.881L64.66 102.881L64.66 105.169L66.64 105.169C67.212 105.169 67.6887 105.209 68.07 105.29C68.444 105.363 68.7447 105.473 68.972 105.62C69.192 105.767 69.3497 105.943 69.445 106.148C69.533 106.353 69.577 106.581 69.577 106.83L69.577 106.995L68.895 106.995ZM64 100.286L64 99.5597L68.84 99.5597L68.84 97.4037L64 97.4037L64 96.6777L68.84 96.6777L68.84 94.5217L64 94.5217L64 93.7957L68.84 93.7957L68.84 92.9707L70.93 92.9707L70.93 93.6967L69.5 93.6967L69.5 100.286L64 100.286ZM64.836 88.0369L65.98 88.7189L69.5 90.9189L69.5 91.8209L64 91.8209L64 91.0949L68.675 91.0949L67.52 90.4129L64 88.2129L64 87.3109L69.5 87.3109L69.5 88.0369L64.836 88.0369ZM67.025 81.656L67.025 84.714L69.5 84.714L69.5 85.44L64 85.44L64 84.714L66.365 84.714L66.365 81.656L64 81.656L64 80.93L69.5 80.93L69.5 81.656L67.025 81.656ZM69.577 77.7391C69.577 78.2891 69.4377 78.7108 69.159 79.0041C68.873 79.2975 68.4807 79.4441 67.982 79.4441C67.718 79.4441 67.4797 79.4038 67.267 79.3231C67.047 79.2351 66.8637 79.0995 66.717 78.9161C66.5703 78.7255 66.4567 78.4835 66.376 78.1901C66.2953 77.8968 66.255 77.5448 66.255 77.1341L66.255 75.8801L65.76 75.8801C65.364 75.8801 65.0743 75.9791 64.891 76.1771C64.7003 76.3678 64.605 76.6868 64.605 77.1341C64.605 77.5375 64.6857 77.8418 64.847 78.0471C65.001 78.2451 65.2137 78.3588 65.485 78.3881L65.485 79.1691C65.2577 79.1545 65.0487 79.1031 64.858 79.0151C64.6673 78.9271 64.5023 78.7988 64.363 78.6301C64.2237 78.4615 64.1173 78.2525 64.044 78.0031C63.9633 77.7538 63.923 77.4641 63.923 77.1341C63.923 76.4815 64.0843 75.9901 64.407 75.6601C64.7297 75.3228 65.1807 75.1541 65.76 75.1541L69.5 75.1541L69.5 75.7151L68.466 75.8251C68.818 76.0158 69.093 76.2798 69.291 76.6171C69.4817 76.9471 69.577 77.3211 69.577 77.7391ZM68.895 77.6841C68.895 77.4348 68.851 77.2001 68.763 76.9801C68.6677 76.7601 68.543 76.5695 68.389 76.4081C68.2277 76.2395 68.0443 76.1111 67.839 76.0231C67.6263 75.9278 67.4027 75.8801 67.168 75.8801L66.915 75.8801L66.915 77.1341C66.915 77.6988 67.014 78.1021 67.212 78.3441C67.41 78.5788 67.6667 78.6961 67.982 78.6961C68.2607 78.6961 68.4843 78.6118 68.653 78.4431C68.8143 78.2671 68.895 78.0141 68.895 77.6841Z" fill="#444444"/>
<path d="M79.5 123.5L82.3868 118.5L76.6132 118.5L79.5 123.5ZM79.5 68.5L76.6132 73.5L82.3867 73.5L79.5 68.5ZM80 119L80 73L79 73L79 119L80 119Z" fill="#444444"/>
<path d="M97.25 67.5L39.75 67.5" stroke="#444444"/>
<mask id="mask0_234_14788" style="mask-type:alpha" maskUnits="userSpaceOnUse" x="112" y="67" width="233" height="59">
<path fill-rule="evenodd" clip-rule="evenodd" d="M139.5 90.9999V101.5H321.5V90.9999H139.5ZM112 67.5H345V125.5L112 125.5V67.5Z" fill="black"/>
<path d="M139.5 101.5V90.9999H321.5V101.5H139.5Z" fill="black"/>
</mask>
<g mask="url(#mask0_234_14788)">
<path d="M138.393 51.5L-100 289.893" stroke="#EEEEEE" stroke-width="1.27143"/>
<path d="M144.114 51.5L-94.2793 289.893" stroke="#EEEEEE" stroke-width="1.27143"/>
<path d="M149.836 51.5L-88.5566 289.893" stroke="#EEEEEE" stroke-width="1.27143"/>
<path d="M155.557 51.5L-82.8359 289.893" stroke="#EEEEEE" stroke-width="1.27143"/>
<path d="M161.278 51.5L-77.1152 289.893" stroke="#EEEEEE" stroke-width="1.27143"/>
<path d="M167 51.5L-71.3926 289.893" stroke="#EEEEEE" stroke-width="1.27143"/>
<path d="M172.721 51.5L-65.6719 289.893" stroke="#EEEEEE" stroke-width="1.27143"/>
<path d="M178.444 51.5L-59.9492 289.893" stroke="#EEEEEE" stroke-width="1.27143"/>
<path d="M184.164 51.5L-54.2285 289.893" stroke="#EEEEEE" stroke-width="1.27143"/>
<path d="M189.885 51.5L-48.5078 289.893" stroke="#EEEEEE" stroke-width="1.27143"/>
<path d="M195.608 51.5L-42.7852 289.893" stroke="#EEEEEE" stroke-width="1.27143"/>
<path d="M201.328 51.5L-37.0645 289.893" stroke="#EEEEEE" stroke-width="1.27143"/>
<path d="M207.049 51.5L-31.3438 289.893" stroke="#EEEEEE" stroke-width="1.27143"/>
<path d="M212.772 51.5L-25.6211 289.893" stroke="#EEEEEE" stroke-width="1.27143"/>
<path d="M218.492 51.5L-19.9004 289.893" stroke="#EEEEEE" stroke-width="1.27143"/>
<path d="M224.215 51.5L-14.1777 289.893" stroke="#EEEEEE" stroke-width="1.27143"/>
<path d="M229.936 51.5L-8.45703 289.893" stroke="#EEEEEE" stroke-width="1.27143"/>
<path d="M235.657 51.5L-2.73633 289.893" stroke="#EEEEEE" stroke-width="1.27143"/>
<path d="M241.379 51.5L2.98633 289.893" stroke="#EEEEEE" stroke-width="1.27143"/>
<path d="M247.1 51.5L8.70703 289.893" stroke="#EEEEEE" stroke-width="1.27143"/>
<path d="M252.821 51.5L14.4277 289.893" stroke="#EEEEEE" stroke-width="1.27143"/>
<path d="M258.543 51.5L20.1504 289.893" stroke="#EEEEEE" stroke-width="1.27143"/>
<path d="M264.264 51.5L25.8711 289.893" stroke="#EEEEEE" stroke-width="1.27143"/>
<path d="M269.985 51.5L31.5918 289.893" stroke="#EEEEEE" stroke-width="1.27143"/>
<path d="M275.707 51.5L37.3145 289.893" stroke="#EEEEEE" stroke-width="1.27143"/>
<path d="M281.428 51.5L43.0352 289.893" stroke="#EEEEEE" stroke-width="1.27143"/>
<path d="M287.151 51.5L48.7578 289.893" stroke="#EEEEEE" stroke-width="1.27143"/>
<path d="M292.871 51.5L54.4785 289.893" stroke="#EEEEEE" stroke-width="1.27143"/>
<path d="M298.592 51.5L60.1992 289.893" stroke="#EEEEEE" stroke-width="1.27143"/>
<path d="M304.315 51.5L65.9219 289.893" stroke="#EEEEEE" stroke-width="1.27143"/>
<path d="M310.035 51.5L71.6426 289.893" stroke="#EEEEEE" stroke-width="1.27143"/>
<path d="M315.756 51.5L77.3633 289.893" stroke="#EEEEEE" stroke-width="1.27143"/>
<path d="M321.479 51.5L83.0859 289.893" stroke="#EEEEEE" stroke-width="1.27143"/>
<path d="M327.2 51.5L88.8066 289.893" stroke="#EEEEEE" stroke-width="1.27143"/>
<path d="M332.92 51.5L94.5273 289.893" stroke="#EEEEEE" stroke-width="1.27143"/>
<path d="M338.643 51.5L100.25 289.893" stroke="#EEEEEE" stroke-width="1.27143"/>
<path d="M344.364 51.5L105.971 289.893" stroke="#EEEEEE" stroke-width="1.27143"/>
<path d="M350.086 51.5L111.693 289.893" stroke="#EEEEEE" stroke-width="1.27143"/>
<path d="M355.807 51.5L117.414 289.893" stroke="#EEEEEE" stroke-width="1.27143"/>
<path d="M361.528 51.5L123.135 289.893" stroke="#EEEEEE" stroke-width="1.27143"/>
<path d="M367.25 51.5L128.857 289.893" stroke="#EEEEEE" stroke-width="1.27143"/>
<path d="M372.971 51.5L134.578 289.893" stroke="#EEEEEE" stroke-width="1.27143"/>
<path d="M378.692 51.5L140.299 289.893" stroke="#EEEEEE" stroke-width="1.27143"/>
<path d="M384.414 51.5L146.021 289.893" stroke="#EEEEEE" stroke-width="1.27143"/>
<path d="M390.135 51.5L151.742 289.893" stroke="#EEEEEE" stroke-width="1.27143"/>
<path d="M395.858 51.5L157.465 289.893" stroke="#EEEEEE" stroke-width="1.27143"/>
<path d="M401.578 51.5L163.186 289.893" stroke="#EEEEEE" stroke-width="1.27143"/>
<path d="M407.299 51.5L168.906 289.893" stroke="#EEEEEE" stroke-width="1.27143"/>
<path d="M413.022 51.5L174.629 289.893" stroke="#EEEEEE" stroke-width="1.27143"/>
<path d="M418.742 51.5L180.35 289.893" stroke="#EEEEEE" stroke-width="1.27143"/>
<path d="M424.463 51.5L186.07 289.893" stroke="#EEEEEE" stroke-width="1.27143"/>
<path d="M430.186 51.5L191.793 289.893" stroke="#EEEEEE" stroke-width="1.27143"/>
<path d="M435.907 51.5L197.514 289.893" stroke="#EEEEEE" stroke-width="1.27143"/>
<path d="M441.629 51.5L203.236 289.893" stroke="#EEEEEE" stroke-width="1.27143"/>
<path d="M447.35 51.5L208.957 289.893" stroke="#EEEEEE" stroke-width="1.27143"/>
<path d="M453.071 51.5L214.678 289.893" stroke="#EEEEEE" stroke-width="1.27143"/>
<path d="M458.793 51.5L220.4 289.893" stroke="#EEEEEE" stroke-width="1.27143"/>
<path d="M464.514 51.5L226.121 289.893" stroke="#EEEEEE" stroke-width="1.27143"/>
<path d="M470.235 51.5L231.842 289.893" stroke="#EEEEEE" stroke-width="1.27143"/>
<path d="M475.957 51.5L237.564 289.893" stroke="#EEEEEE" stroke-width="1.27143"/>
<path d="M481.678 51.5L243.285 289.893" stroke="#EEEEEE" stroke-width="1.27143"/>
<path d="M487.401 51.5L249.008 289.893" stroke="#EEEEEE" stroke-width="1.27143"/>
<path d="M493.121 51.5L254.729 289.893" stroke="#EEEEEE" stroke-width="1.27143"/>
<path d="M498.842 51.5L260.449 289.893" stroke="#EEEEEE" stroke-width="1.27143"/>
<path d="M504.565 51.5L266.172 289.893" stroke="#EEEEEE" stroke-width="1.27143"/>
<path d="M510.285 51.5L271.893 289.893" stroke="#EEEEEE" stroke-width="1.27143"/>
<path d="M516.006 51.5L277.613 289.893" stroke="#EEEEEE" stroke-width="1.27143"/>
<path d="M521.729 51.5L283.336 289.893" stroke="#EEEEEE" stroke-width="1.27143"/>
<path d="M527.45 51.5L289.057 289.893" stroke="#EEEEEE" stroke-width="1.27143"/>
<path d="M533.172 51.5L294.779 289.893" stroke="#EEEEEE" stroke-width="1.27143"/>
<path d="M538.893 51.5L300.5 289.893" stroke="#EEEEEE" stroke-width="1.27143"/>
<path d="M544.614 51.5L306.221 289.893" stroke="#EEEEEE" stroke-width="1.27143"/>
<path d="M550.336 51.5L311.943 289.893" stroke="#EEEEEE" stroke-width="1.27143"/>
<path d="M556.057 51.5L317.664 289.893" stroke="#EEEEEE" stroke-width="1.27143"/>
<path d="M561.778 51.5L323.385 289.893" stroke="#EEEEEE" stroke-width="1.27143"/>
<path d="M567.5 51.5L329.107 289.893" stroke="#EEEEEE" stroke-width="1.27143"/>
<path d="M573.221 51.5L334.828 289.893" stroke="#EEEEEE" stroke-width="1.27143"/>
<path d="M578.944 51.5L340.551 289.893" stroke="#EEEEEE" stroke-width="1.27143"/>
<path fill-rule="evenodd" clip-rule="evenodd" d="M112.5 68H344.5V125H112.502L112.5 68Z" stroke="#BEBEBE"/>
</g>
</svg>
