<svg width="301" height="285" viewBox="0 0 301 285" fill="none" xmlns="http://www.w3.org/2000/svg">
<path d="M72.5 57.5V0" stroke="#444444"/>
<path d="M167.435 24.25H168.161V29.09H170.317V24.25H171.043V29.09H173.199V24.25H173.925V29.75H167.435V24.25ZM179.576 25.086L178.894 26.23L176.694 29.75H175.792V24.25H176.518V28.925L177.2 27.77L179.4 24.25H180.302V29.75H179.576V25.086ZM184.637 29.827C184.256 29.827 183.919 29.7573 183.625 29.618C183.332 29.4713 183.09 29.2477 182.899 28.947V31.95H182.173V24.25H182.734L182.822 25.174C183.013 24.8367 183.259 24.5873 183.559 24.426C183.867 24.2573 184.227 24.173 184.637 24.173C184.953 24.173 185.242 24.228 185.506 24.338C185.77 24.448 185.998 24.613 186.188 24.833C186.379 25.0457 186.526 25.3133 186.628 25.636C186.738 25.9587 186.793 26.3327 186.793 26.758V27.242C186.793 27.66 186.738 28.0303 186.628 28.353C186.526 28.6757 186.379 28.947 186.188 29.167C185.998 29.387 185.77 29.552 185.506 29.662C185.242 29.772 184.953 29.827 184.637 29.827ZM184.472 29.145C184.949 29.145 185.33 28.991 185.616 28.683C185.902 28.3677 186.045 27.8873 186.045 27.242V26.758C186.045 26.12 185.899 25.6433 185.605 25.328C185.319 25.0127 184.942 24.855 184.472 24.855C184.032 24.855 183.662 25.009 183.361 25.317C183.068 25.625 182.914 26.076 182.899 26.67V27.242C182.899 27.858 183.046 28.331 183.339 28.661C183.633 28.9837 184.01 29.145 184.472 29.145ZM192.113 25.086L191.431 26.23L189.231 29.75H188.329V24.25H189.055V28.925L189.737 27.77L191.937 24.25H192.839V29.75H192.113V25.086ZM198.493 27.275H195.435V29.75H194.709V24.25H195.435V26.615H198.493V24.25H199.219V29.75H198.493V27.275ZM202.41 29.827C201.86 29.827 201.439 29.6877 201.145 29.409C200.852 29.123 200.705 28.7307 200.705 28.232C200.705 27.968 200.746 27.7297 200.826 27.517C200.914 27.297 201.05 27.1137 201.233 26.967C201.424 26.8203 201.666 26.7067 201.959 26.626C202.253 26.5453 202.605 26.505 203.015 26.505H204.269V26.01C204.269 25.614 204.17 25.3243 203.972 25.141C203.782 24.9503 203.463 24.855 203.015 24.855C202.612 24.855 202.308 24.9357 202.102 25.097C201.904 25.251 201.791 25.4637 201.761 25.735H200.98C200.995 25.5077 201.046 25.2987 201.134 25.108C201.222 24.9173 201.351 24.7523 201.519 24.613C201.688 24.4737 201.897 24.3673 202.146 24.294C202.396 24.2133 202.685 24.173 203.015 24.173C203.668 24.173 204.159 24.3343 204.489 24.657C204.827 24.9797 204.995 25.4307 204.995 26.01V29.75H204.434L204.324 28.716C204.134 29.068 203.87 29.343 203.532 29.541C203.202 29.7317 202.828 29.827 202.41 29.827ZM202.465 29.145C202.715 29.145 202.949 29.101 203.169 29.013C203.389 28.9177 203.58 28.793 203.741 28.639C203.91 28.4777 204.038 28.2943 204.126 28.089C204.222 27.8763 204.269 27.6527 204.269 27.418V27.165H203.015C202.451 27.165 202.047 27.264 201.805 27.462C201.571 27.66 201.453 27.9167 201.453 28.232C201.453 28.5107 201.538 28.7343 201.706 28.903C201.882 29.0643 202.135 29.145 202.465 29.145Z" fill="#444444"/>
<path d="M73.5 39.75L78.5 42.6368V36.8632L73.5 39.75ZM299.5 39.75L294.5 36.8632V42.6368L299.5 39.75ZM78 40.25H295V39.25H78V40.25Z" fill="#444444"/>
<path d="M300.5 57.5V0" stroke="#444444"/>
<path d="M57.5 284.5L0 284.5" stroke="#444444"/>
<path d="M22.05 193.51L22.05 191.145C22.05 190.236 22.2333 189.579 22.6 189.176C22.9593 188.765 23.458 188.56 24.096 188.56C24.4627 188.56 24.789 188.648 25.075 188.824C25.3537 188.993 25.5773 189.257 25.746 189.616C25.9073 189.176 26.1457 188.853 26.461 188.648C26.7763 188.443 27.154 188.34 27.594 188.34C28.2907 188.34 28.826 188.545 29.2 188.956C29.5667 189.359 29.75 190.016 29.75 190.925L29.75 193.51L22.05 193.51ZM26.142 192.74L29.046 192.74L29.046 190.925C29.046 190.28 28.925 189.821 28.683 189.55C28.4337 189.271 28.0707 189.132 27.594 189.132C27.1173 189.132 26.758 189.271 26.516 189.55C26.2667 189.821 26.142 190.28 26.142 190.925L26.142 192.74ZM22.754 192.74L25.438 192.74L25.438 191.145C25.438 190.5 25.3207 190.041 25.086 189.77C24.844 189.491 24.514 189.352 24.096 189.352C23.678 189.352 23.3517 189.491 23.117 189.77C22.875 190.041 22.754 190.5 22.754 191.145L22.754 192.74ZM24.25 186.744L24.25 186.018L26.23 186.018L26.23 184.797C26.23 184.019 26.3877 183.455 26.703 183.103C27.0183 182.743 27.4473 182.564 27.99 182.564C28.518 182.564 28.9433 182.743 29.266 183.103C29.5887 183.462 29.75 184.027 29.75 184.797L29.75 186.744L24.25 186.744ZM26.89 186.018L29.09 186.018L29.09 184.797C29.09 184.254 28.9947 183.873 28.804 183.653C28.606 183.425 28.3347 183.312 27.99 183.312C27.6453 183.312 27.3777 183.425 27.187 183.653C26.989 183.88 26.89 184.261 26.89 184.797L26.89 186.018ZM24.25 181.53L24.25 180.804L29.75 180.804L29.75 181.53L24.25 181.53ZM29.827 176.899C29.827 177.251 29.7683 177.574 29.651 177.867C29.5337 178.153 29.365 178.402 29.145 178.615C28.925 178.82 28.6573 178.982 28.342 179.099C28.0193 179.209 27.6527 179.264 27.242 179.264L26.758 179.264C26.3547 179.264 25.9953 179.209 25.68 179.099C25.3573 178.982 25.086 178.82 24.866 178.615C24.6387 178.402 24.4663 178.153 24.349 177.867C24.2317 177.574 24.173 177.251 24.173 176.899C24.173 176.591 24.2133 176.32 24.294 176.085C24.3747 175.843 24.4883 175.634 24.635 175.458C24.7743 175.275 24.9393 175.128 25.13 175.018C25.3207 174.901 25.5223 174.813 25.735 174.754L25.735 175.524C25.4857 175.634 25.2767 175.795 25.108 176.008C24.9393 176.213 24.855 176.51 24.855 176.899C24.855 177.368 25.02 177.757 25.35 178.065C25.6727 178.366 26.142 178.516 26.758 178.516L27.242 178.516C27.5427 178.516 27.814 178.476 28.056 178.395C28.2907 178.314 28.4887 178.201 28.65 178.054C28.8113 177.907 28.936 177.739 29.024 177.548C29.1047 177.35 29.145 177.134 29.145 176.899C29.145 176.503 29.057 176.202 28.881 175.997C28.705 175.792 28.463 175.634 28.155 175.524L28.155 174.754C28.639 174.864 29.0387 175.095 29.354 175.447C29.6693 175.799 29.827 176.283 29.827 176.899ZM29.827 171.29C29.827 171.657 29.7683 171.991 29.651 172.291C29.5337 172.585 29.365 172.838 29.145 173.05C28.925 173.263 28.6573 173.428 28.342 173.545C28.0193 173.655 27.6527 173.71 27.242 173.71L26.758 173.71C26.3547 173.71 25.9953 173.652 25.68 173.534C25.3573 173.417 25.086 173.256 24.866 173.05C24.6387 172.838 24.4663 172.585 24.349 172.291C24.2317 171.991 24.173 171.657 24.173 171.29C24.173 170.924 24.2317 170.594 24.349 170.3C24.4663 170 24.635 169.743 24.855 169.53C25.075 169.318 25.3463 169.156 25.669 169.046C25.9917 168.929 26.3547 168.87 26.758 168.87L27.242 168.87C27.6453 168.87 28.0083 168.929 28.331 169.046C28.6463 169.164 28.9177 169.329 29.145 169.541C29.365 169.747 29.5337 170 29.651 170.3C29.7683 170.601 29.827 170.931 29.827 171.29ZM29.145 171.29C29.145 170.792 28.9837 170.388 28.661 170.08C28.331 169.772 27.858 169.618 27.242 169.618L26.758 169.618C26.1493 169.618 25.68 169.776 25.35 170.091C25.02 170.399 24.855 170.799 24.855 171.29C24.855 171.789 25.02 172.192 25.35 172.5C25.6727 172.808 26.142 172.962 26.758 172.962L27.242 172.962C27.8507 172.962 28.32 172.808 28.65 172.5C28.98 172.185 29.145 171.782 29.145 171.29ZM24.25 168.207L24.25 163.807L24.91 163.807L24.91 165.644L29.75 165.644L29.75 166.37L24.91 166.37L24.91 168.207L24.25 168.207ZM29.827 161.383C29.827 161.933 29.6877 162.354 29.409 162.648C29.123 162.941 28.7307 163.088 28.232 163.088C27.968 163.088 27.7297 163.047 27.517 162.967C27.297 162.879 27.1137 162.743 26.967 162.56C26.8203 162.369 26.7067 162.127 26.626 161.834C26.5453 161.54 26.505 161.188 26.505 160.778L26.505 159.524L26.01 159.524C25.614 159.524 25.3243 159.623 25.141 159.821C24.9503 160.011 24.855 160.33 24.855 160.778C24.855 161.181 24.9357 161.485 25.097 161.691C25.251 161.889 25.4637 162.002 25.735 162.032L25.735 162.813C25.5077 162.798 25.2987 162.747 25.108 162.659C24.9173 162.571 24.7523 162.442 24.613 162.274C24.4737 162.105 24.3673 161.896 24.294 161.647C24.2133 161.397 24.173 161.108 24.173 160.778C24.173 160.125 24.3343 159.634 24.657 159.304C24.9797 158.966 25.4307 158.798 26.01 158.798L29.75 158.798L29.75 159.359L28.716 159.469C29.068 159.659 29.343 159.923 29.541 160.261C29.7317 160.591 29.827 160.965 29.827 161.383ZM29.145 161.328C29.145 161.078 29.101 160.844 29.013 160.624C28.9177 160.404 28.793 160.213 28.639 160.052C28.4777 159.883 28.2943 159.755 28.089 159.667C27.8763 159.571 27.6527 159.524 27.418 159.524L27.165 159.524L27.165 160.778C27.165 161.342 27.264 161.746 27.462 161.988C27.66 162.222 27.9167 162.34 28.232 162.34C28.5107 162.34 28.7343 162.255 28.903 162.087C29.0643 161.911 29.145 161.658 29.145 161.328Z" fill="#444444"/>
<path d="M39.75 283.5L42.6368 278.5L36.8632 278.5L39.75 283.5ZM39.75 68.5L36.8632 73.5L42.6367 73.5L39.75 68.5ZM40.25 279L40.25 73L39.25 73L39.25 279L40.25 279Z" fill="#444444"/>
<path d="M57.5 67.5L0 67.5" stroke="#444444"/>
<mask id="mask0_11590_36660" style="mask-type:alpha" maskUnits="userSpaceOnUse" x="72" y="67" width="229" height="218">
<path fill-rule="evenodd" clip-rule="evenodd" d="M95.5 90.5V261.5H277.5V90.5H95.5ZM72.5 81C72.5 73.5442 78.5441 67.5 86 67.5H287C294.456 67.5 300.5 73.5442 300.5 81V271C300.5 278.456 294.456 284.5 287 284.5H86C78.5442 284.5 72.5 278.456 72.5 271V81Z" fill="black"/>
<path d="M95.5 261.5V90.5H277.5V261.5H95.5Z" fill="black"/>
</mask>
<g mask="url(#mask0_11590_36660)">
<path d="M94.3929 51L-144 289.393" stroke="#EEEEEE" stroke-width="1.27143"/>
<path d="M100.116 51L-138.277 289.393" stroke="#EEEEEE" stroke-width="1.27143"/>
<path d="M105.834 51L-132.559 289.393" stroke="#EEEEEE" stroke-width="1.27143"/>
<path d="M111.557 51L-126.836 289.393" stroke="#EEEEEE" stroke-width="1.27143"/>
<path d="M117.28 51L-121.113 289.393" stroke="#EEEEEE" stroke-width="1.27143"/>
<path d="M122.998 51L-115.395 289.393" stroke="#EEEEEE" stroke-width="1.27143"/>
<path d="M128.721 51L-109.672 289.393" stroke="#EEEEEE" stroke-width="1.27143"/>
<path d="M134.444 51L-103.949 289.393" stroke="#EEEEEE" stroke-width="1.27143"/>
<path d="M140.162 51L-98.2305 289.393" stroke="#EEEEEE" stroke-width="1.27143"/>
<path d="M145.885 51L-92.5078 289.393" stroke="#EEEEEE" stroke-width="1.27143"/>
<path d="M151.608 51L-86.7852 289.393" stroke="#EEEEEE" stroke-width="1.27143"/>
<path d="M157.33 51L-81.0625 289.393" stroke="#EEEEEE" stroke-width="1.27143"/>
<path d="M163.049 51L-75.3438 289.393" stroke="#EEEEEE" stroke-width="1.27143"/>
<path d="M168.772 51L-69.6211 289.393" stroke="#EEEEEE" stroke-width="1.27143"/>
<path d="M174.494 51L-63.8984 289.393" stroke="#EEEEEE" stroke-width="1.27143"/>
<path d="M180.213 51L-58.1797 289.393" stroke="#EEEEEE" stroke-width="1.27143"/>
<path d="M185.936 51L-52.457 289.393" stroke="#EEEEEE" stroke-width="1.27143"/>
<path d="M191.658 51L-46.7344 289.393" stroke="#EEEEEE" stroke-width="1.27143"/>
<path d="M197.377 51L-41.0156 289.393" stroke="#EEEEEE" stroke-width="1.27143"/>
<path d="M203.1 51L-35.293 289.393" stroke="#EEEEEE" stroke-width="1.27143"/>
<path d="M208.823 51L-29.5703 289.393" stroke="#EEEEEE" stroke-width="1.27143"/>
<path d="M214.541 51L-23.8516 289.393" stroke="#EEEEEE" stroke-width="1.27143"/>
<path d="M220.264 51L-18.1289 289.393" stroke="#EEEEEE" stroke-width="1.27143"/>
<path d="M225.987 51L-12.4062 289.393" stroke="#EEEEEE" stroke-width="1.27143"/>
<path d="M231.705 51L-6.6875 289.393" stroke="#EEEEEE" stroke-width="1.27143"/>
<path d="M237.428 51L-0.964844 289.393" stroke="#EEEEEE" stroke-width="1.27143"/>
<path d="M243.151 51L4.75781 289.393" stroke="#EEEEEE" stroke-width="1.27143"/>
<path d="M248.869 51L10.4766 289.393" stroke="#EEEEEE" stroke-width="1.27143"/>
<path d="M254.592 51L16.1992 289.393" stroke="#EEEEEE" stroke-width="1.27143"/>
<path d="M260.315 51L21.9219 289.393" stroke="#EEEEEE" stroke-width="1.27143"/>
<path d="M266.037 51L27.6445 289.393" stroke="#EEEEEE" stroke-width="1.27143"/>
<path d="M271.756 51L33.3633 289.393" stroke="#EEEEEE" stroke-width="1.27143"/>
<path d="M277.479 51L39.0859 289.393" stroke="#EEEEEE" stroke-width="1.27143"/>
<path d="M283.201 51L44.8086 289.393" stroke="#EEEEEE" stroke-width="1.27143"/>
<path d="M288.92 51L50.5273 289.393" stroke="#EEEEEE" stroke-width="1.27143"/>
<path d="M294.643 51L56.25 289.393" stroke="#EEEEEE" stroke-width="1.27143"/>
<path d="M300.366 51L61.9727 289.393" stroke="#EEEEEE" stroke-width="1.27143"/>
<path d="M306.084 51L67.6914 289.393" stroke="#EEEEEE" stroke-width="1.27143"/>
<path d="M311.807 51L73.4141 289.393" stroke="#EEEEEE" stroke-width="1.27143"/>
<path d="M317.53 51L79.1367 289.393" stroke="#EEEEEE" stroke-width="1.27143"/>
<path d="M323.248 51L84.8555 289.393" stroke="#EEEEEE" stroke-width="1.27143"/>
<path d="M328.971 51L90.5781 289.393" stroke="#EEEEEE" stroke-width="1.27143"/>
<path d="M334.694 51L96.3008 289.393" stroke="#EEEEEE" stroke-width="1.27143"/>
<path d="M340.412 51L102.02 289.393" stroke="#EEEEEE" stroke-width="1.27143"/>
<path d="M346.135 51L107.742 289.393" stroke="#EEEEEE" stroke-width="1.27143"/>
<path d="M351.858 51L113.465 289.393" stroke="#EEEEEE" stroke-width="1.27143"/>
<path d="M357.576 51L119.184 289.393" stroke="#EEEEEE" stroke-width="1.27143"/>
<path d="M363.299 51L124.906 289.393" stroke="#EEEEEE" stroke-width="1.27143"/>
<path d="M369.022 51L130.629 289.393" stroke="#EEEEEE" stroke-width="1.27143"/>
<path d="M374.744 51L136.352 289.393" stroke="#EEEEEE" stroke-width="1.27143"/>
<path d="M380.463 51L142.07 289.393" stroke="#EEEEEE" stroke-width="1.27143"/>
<path d="M386.186 51L147.793 289.393" stroke="#EEEEEE" stroke-width="1.27143"/>
<path d="M391.908 51L153.516 289.393" stroke="#EEEEEE" stroke-width="1.27143"/>
<path d="M397.627 51L159.234 289.393" stroke="#EEEEEE" stroke-width="1.27143"/>
<path d="M403.35 51L164.957 289.393" stroke="#EEEEEE" stroke-width="1.27143"/>
<path d="M409.073 51L170.68 289.393" stroke="#EEEEEE" stroke-width="1.27143"/>
<path d="M414.791 51L176.398 289.393" stroke="#EEEEEE" stroke-width="1.27143"/>
<path d="M420.514 51L182.121 289.393" stroke="#EEEEEE" stroke-width="1.27143"/>
<path d="M426.237 51L187.844 289.393" stroke="#EEEEEE" stroke-width="1.27143"/>
<path d="M431.955 51L193.562 289.393" stroke="#EEEEEE" stroke-width="1.27143"/>
<path d="M437.678 51L199.285 289.393" stroke="#EEEEEE" stroke-width="1.27143"/>
<path d="M443.401 51L205.008 289.393" stroke="#EEEEEE" stroke-width="1.27143"/>
<path d="M449.119 51L210.727 289.393" stroke="#EEEEEE" stroke-width="1.27143"/>
<path d="M454.842 51L216.449 289.393" stroke="#EEEEEE" stroke-width="1.27143"/>
<path d="M460.565 51L222.172 289.393" stroke="#EEEEEE" stroke-width="1.27143"/>
<path d="M466.287 51L227.895 289.393" stroke="#EEEEEE" stroke-width="1.27143"/>
<path d="M472.006 51L233.613 289.393" stroke="#EEEEEE" stroke-width="1.27143"/>
<path d="M477.729 51L239.336 289.393" stroke="#EEEEEE" stroke-width="1.27143"/>
<path d="M483.451 51L245.059 289.393" stroke="#EEEEEE" stroke-width="1.27143"/>
<path d="M489.17 51L250.777 289.393" stroke="#EEEEEE" stroke-width="1.27143"/>
<path d="M494.893 51L256.5 289.393" stroke="#EEEEEE" stroke-width="1.27143"/>
<path d="M500.616 51L262.223 289.393" stroke="#EEEEEE" stroke-width="1.27143"/>
<path d="M506.334 51L267.941 289.393" stroke="#EEEEEE" stroke-width="1.27143"/>
<path d="M512.057 51L273.664 289.393" stroke="#EEEEEE" stroke-width="1.27143"/>
<path d="M517.78 51L279.387 289.393" stroke="#EEEEEE" stroke-width="1.27143"/>
<path d="M523.498 51L285.105 289.393" stroke="#EEEEEE" stroke-width="1.27143"/>
<path d="M529.221 51L290.828 289.393" stroke="#EEEEEE" stroke-width="1.27143"/>
<path d="M534.944 51L296.551 289.393" stroke="#EEEEEE" stroke-width="1.27143"/>
<path fill-rule="evenodd" clip-rule="evenodd" d="M72.5 81C72.5 73.5442 78.5441 67.5 86 67.5H287C294.456 67.5 300.5 73.5442 300.5 81V271C300.5 278.456 294.456 284.5 287 284.5H86C78.5442 284.5 72.5 278.456 72.5 271V81Z" stroke="#BEBEBE"/>
</g>
</svg>
