<svg width="290" height="274" viewBox="0 0 290 274" fill="none" xmlns="http://www.w3.org/2000/svg">
<path d="M73.5 57.5V0" stroke="#444444"/>
<path d="M171.104 29.75H166.891V31.18H166.165V29.09H166.748C166.88 28.892 166.986 28.7013 167.067 28.518C167.148 28.3347 167.21 28.1257 167.254 27.891C167.298 27.649 167.327 27.3703 167.342 27.055C167.364 26.7397 167.375 26.3547 167.375 25.9V24.25H171.06V29.09H171.83V31.18H171.104V29.75ZM168.101 25.9C168.101 26.3547 168.09 26.747 168.068 27.077C168.053 27.3997 168.024 27.682 167.98 27.924C167.943 28.166 167.892 28.3787 167.826 28.562C167.76 28.738 167.683 28.914 167.595 29.09H170.334V24.91H168.101V25.9ZM172.483 29.145H172.648C172.78 29.145 172.901 29.1157 173.011 29.057C173.128 28.991 173.227 28.8737 173.308 28.705C173.396 28.5363 173.462 28.309 173.506 28.023C173.557 27.7297 173.583 27.352 173.583 26.89V24.25H177.323V29.75H176.597V24.91H174.309V26.89C174.309 27.462 174.268 27.9387 174.188 28.32C174.114 28.694 174.004 28.9947 173.858 29.222C173.711 29.442 173.535 29.5997 173.33 29.695C173.124 29.783 172.897 29.827 172.648 29.827H172.483V29.145ZM182.976 25.086L182.294 26.23L180.094 29.75H179.192V24.25H179.918V28.925L180.6 27.77L182.8 24.25H183.702V29.75H182.976V25.086ZM189.357 27.275H186.299V29.75H185.573V24.25H186.299V26.615H189.357V24.25H190.083V29.75H189.357V27.275ZM193.274 29.827C192.724 29.827 192.302 29.6877 192.009 29.409C191.715 29.123 191.569 28.7307 191.569 28.232C191.569 27.968 191.609 27.7297 191.69 27.517C191.778 27.297 191.913 27.1137 192.097 26.967C192.287 26.8203 192.529 26.7067 192.823 26.626C193.116 26.5453 193.468 26.505 193.879 26.505H195.133V26.01C195.133 25.614 195.034 25.3243 194.836 25.141C194.645 24.9503 194.326 24.855 193.879 24.855C193.475 24.855 193.171 24.9357 192.966 25.097C192.768 25.251 192.654 25.4637 192.625 25.735H191.844C191.858 25.5077 191.91 25.2987 191.998 25.108C192.086 24.9173 192.214 24.7523 192.383 24.613C192.551 24.4737 192.76 24.3673 193.01 24.294C193.259 24.2133 193.549 24.173 193.879 24.173C194.531 24.173 195.023 24.3343 195.353 24.657C195.69 24.9797 195.859 25.4307 195.859 26.01V29.75H195.298L195.188 28.716C194.997 29.068 194.733 29.343 194.396 29.541C194.066 29.7317 193.692 29.827 193.274 29.827ZM193.329 29.145C193.578 29.145 193.813 29.101 194.033 29.013C194.253 28.9177 194.443 28.793 194.605 28.639C194.773 28.4777 194.902 28.2943 194.99 28.089C195.085 27.8763 195.133 27.6527 195.133 27.418V27.165H193.879C193.314 27.165 192.911 27.264 192.669 27.462C192.434 27.66 192.317 27.9167 192.317 28.232C192.317 28.5107 192.401 28.7343 192.57 28.903C192.746 29.0643 192.999 29.145 193.329 29.145Z" fill="#444444"/>
<path d="M74.5 39.75L79.5 42.6368V36.8632L74.5 39.75ZM288.5 39.75L283.5 36.8632V42.6368L288.5 39.75ZM79 40.25H284V39.25H79V40.25Z" fill="#444444"/>
<path d="M289.5 57.5V0" stroke="#444444"/>
<path d="M58.25 273.5L0.75 273.5" stroke="#444444"/>
<path d="M25 189.565L25 188.839L29.84 188.839L29.84 186.683L25 186.683L25 185.957L29.84 185.957L29.84 183.801L25 183.801L25 183.075L30.5 183.075L30.5 189.565L25 189.565ZM25.836 177.424L26.98 178.106L30.5 180.306L30.5 181.208L25 181.208L25 180.482L29.675 180.482L28.52 179.8L25 177.6L25 176.698L30.5 176.698L30.5 177.424L25.836 177.424ZM30.577 172.363C30.577 172.744 30.5073 173.081 30.368 173.375C30.2213 173.668 29.9977 173.91 29.697 174.101L32.7 174.101L32.7 174.827L25 174.827L25 174.266L25.924 174.178C25.5867 173.987 25.3373 173.741 25.176 173.441C25.0073 173.133 24.923 172.773 24.923 172.363C24.923 172.047 24.978 171.758 25.088 171.494C25.198 171.23 25.363 171.002 25.583 170.812C25.7957 170.621 26.0633 170.474 26.386 170.372C26.7087 170.262 27.0827 170.207 27.508 170.207L27.992 170.207C28.41 170.207 28.7803 170.262 29.103 170.372C29.4257 170.474 29.697 170.621 29.917 170.812C30.137 171.002 30.302 171.23 30.412 171.494C30.522 171.758 30.577 172.047 30.577 172.363ZM29.895 172.528C29.895 172.051 29.741 171.67 29.433 171.384C29.1177 171.098 28.6373 170.955 27.992 170.955L27.508 170.955C26.87 170.955 26.3933 171.101 26.078 171.395C25.7627 171.681 25.605 172.058 25.605 172.528C25.605 172.968 25.759 173.338 26.067 173.639C26.375 173.932 26.826 174.086 27.42 174.101L27.992 174.101C28.608 174.101 29.081 173.954 29.411 173.661C29.7337 173.367 29.895 172.99 29.895 172.528ZM25.836 164.887L26.98 165.569L30.5 167.769L30.5 168.671L25 168.671L25 167.945L29.675 167.945L28.52 167.263L25 165.063L25 164.161L30.5 164.161L30.5 164.887L25.836 164.887ZM28.025 158.507L28.025 161.565L30.5 161.565L30.5 162.291L25 162.291L25 161.565L27.365 161.565L27.365 158.507L25 158.507L25 157.781L30.5 157.781L30.5 158.507L28.025 158.507ZM30.577 154.59C30.577 155.14 30.4377 155.561 30.159 155.855C29.873 156.148 29.4807 156.295 28.982 156.295C28.718 156.295 28.4797 156.254 28.267 156.174C28.047 156.086 27.8637 155.95 27.717 155.767C27.5703 155.576 27.4567 155.334 27.376 155.041C27.2953 154.747 27.255 154.395 27.255 153.985L27.255 152.731L26.76 152.731C26.364 152.731 26.0743 152.83 25.891 153.028C25.7003 153.218 25.605 153.537 25.605 153.985C25.605 154.388 25.6857 154.692 25.847 154.898C26.001 155.096 26.2137 155.209 26.485 155.239L26.485 156.02C26.2577 156.005 26.0487 155.954 25.858 155.866C25.6673 155.778 25.5023 155.649 25.363 155.481C25.2237 155.312 25.1173 155.103 25.044 154.854C24.9633 154.604 24.923 154.315 24.923 153.985C24.923 153.332 25.0843 152.841 25.407 152.511C25.7297 152.173 26.1807 152.005 26.76 152.005L30.5 152.005L30.5 152.566L29.466 152.676C29.818 152.866 30.093 153.13 30.291 153.468C30.4817 153.798 30.577 154.172 30.577 154.59ZM29.895 154.535C29.895 154.285 29.851 154.051 29.763 153.831C29.6677 153.611 29.543 153.42 29.389 153.259C29.2277 153.09 29.0443 152.962 28.839 152.874C28.6263 152.778 28.4027 152.731 28.168 152.731L27.915 152.731L27.915 153.985C27.915 154.549 28.014 154.953 28.212 155.195C28.41 155.429 28.6667 155.547 28.982 155.547C29.2607 155.547 29.4843 155.462 29.653 155.294C29.8143 155.118 29.895 154.865 29.895 154.535Z" fill="#444444"/>
<path d="M40.5 272.5L43.3868 267.5L37.6132 267.5L40.5 272.5ZM40.5 68.5L37.6132 73.5L43.3867 73.5L40.5 68.5ZM41 268L41 73L40 73L40 268L41 268Z" fill="#444444"/>
<path d="M58.25 67.5L0.75 67.5" stroke="#444444"/>
<mask id="mask0_234_14268" style="mask-type:alpha" maskUnits="userSpaceOnUse" x="73" y="67" width="217" height="206">
<path fill-rule="evenodd" clip-rule="evenodd" d="M73 67.5H83C90.1797 67.5 96 73.3203 96 80.5V227C96 239.703 106.297 250 119 250H276.5C283.68 250 289.5 255.82 289.5 263V273H73V67.5Z" fill="black"/>
</mask>
<g mask="url(#mask0_234_14268)">
<path d="M94.8929 39.5L-143.5 277.893" stroke="#EEEEEE" stroke-width="1.27143"/>
<path d="M100.614 39.5L-137.779 277.893" stroke="#EEEEEE" stroke-width="1.27143"/>
<path d="M106.336 39.5L-132.057 277.893" stroke="#EEEEEE" stroke-width="1.27143"/>
<path d="M112.057 39.5L-126.336 277.893" stroke="#EEEEEE" stroke-width="1.27143"/>
<path d="M117.778 39.5L-120.615 277.893" stroke="#EEEEEE" stroke-width="1.27143"/>
<path d="M123.5 39.5L-114.893 277.893" stroke="#EEEEEE" stroke-width="1.27143"/>
<path d="M129.221 39.5L-109.172 277.893" stroke="#EEEEEE" stroke-width="1.27143"/>
<path d="M134.944 39.5L-103.449 277.893" stroke="#EEEEEE" stroke-width="1.27143"/>
<path d="M140.664 39.5L-97.7285 277.893" stroke="#EEEEEE" stroke-width="1.27143"/>
<path d="M146.385 39.5L-92.0078 277.893" stroke="#EEEEEE" stroke-width="1.27143"/>
<path d="M152.108 39.5L-86.2852 277.893" stroke="#EEEEEE" stroke-width="1.27143"/>
<path d="M157.828 39.5L-80.5645 277.893" stroke="#EEEEEE" stroke-width="1.27143"/>
<path d="M163.549 39.5L-74.8438 277.893" stroke="#EEEEEE" stroke-width="1.27143"/>
<path d="M169.272 39.5L-69.1211 277.893" stroke="#EEEEEE" stroke-width="1.27143"/>
<path d="M174.992 39.5L-63.4004 277.893" stroke="#EEEEEE" stroke-width="1.27143"/>
<path d="M180.715 39.5L-57.6777 277.893" stroke="#EEEEEE" stroke-width="1.27143"/>
<path d="M186.436 39.5L-51.957 277.893" stroke="#EEEEEE" stroke-width="1.27143"/>
<path d="M192.157 39.5L-46.2363 277.893" stroke="#EEEEEE" stroke-width="1.27143"/>
<path d="M197.879 39.5L-40.5137 277.893" stroke="#EEEEEE" stroke-width="1.27143"/>
<path d="M203.6 39.5L-34.793 277.893" stroke="#EEEEEE" stroke-width="1.27143"/>
<path d="M209.321 39.5L-29.0723 277.893" stroke="#EEEEEE" stroke-width="1.27143"/>
<path d="M215.043 39.5L-23.3496 277.893" stroke="#EEEEEE" stroke-width="1.27143"/>
<path d="M220.764 39.5L-17.6289 277.893" stroke="#EEEEEE" stroke-width="1.27143"/>
<path d="M226.485 39.5L-11.9082 277.893" stroke="#EEEEEE" stroke-width="1.27143"/>
<path d="M232.207 39.5L-6.18555 277.893" stroke="#EEEEEE" stroke-width="1.27143"/>
<path d="M237.928 39.5L-0.464844 277.893" stroke="#EEEEEE" stroke-width="1.27143"/>
<path d="M243.651 39.5L5.25781 277.893" stroke="#EEEEEE" stroke-width="1.27143"/>
<path d="M249.371 39.5L10.9785 277.893" stroke="#EEEEEE" stroke-width="1.27143"/>
<path d="M255.092 39.5L16.6992 277.893" stroke="#EEEEEE" stroke-width="1.27143"/>
<path d="M260.815 39.5L22.4219 277.893" stroke="#EEEEEE" stroke-width="1.27143"/>
<path d="M266.535 39.5L28.1426 277.893" stroke="#EEEEEE" stroke-width="1.27143"/>
<path d="M272.256 39.5L33.8633 277.893" stroke="#EEEEEE" stroke-width="1.27143"/>
<path d="M277.979 39.5L39.5859 277.893" stroke="#EEEEEE" stroke-width="1.27143"/>
<path d="M283.7 39.5L45.3066 277.893" stroke="#EEEEEE" stroke-width="1.27143"/>
<path d="M289.42 39.5L51.0273 277.893" stroke="#EEEEEE" stroke-width="1.27143"/>
<path d="M295.143 39.5L56.75 277.893" stroke="#EEEEEE" stroke-width="1.27143"/>
<path d="M300.864 39.5L62.4707 277.893" stroke="#EEEEEE" stroke-width="1.27143"/>
<path d="M306.586 39.5L68.1934 277.893" stroke="#EEEEEE" stroke-width="1.27143"/>
<path d="M312.307 39.5L73.9141 277.893" stroke="#EEEEEE" stroke-width="1.27143"/>
<path d="M318.028 39.5L79.6348 277.893" stroke="#EEEEEE" stroke-width="1.27143"/>
<path d="M323.75 39.5L85.3574 277.893" stroke="#EEEEEE" stroke-width="1.27143"/>
<path d="M329.471 39.5L91.0781 277.893" stroke="#EEEEEE" stroke-width="1.27143"/>
<path d="M335.192 39.5L96.7988 277.893" stroke="#EEEEEE" stroke-width="1.27143"/>
<path d="M340.914 39.5L102.521 277.893" stroke="#EEEEEE" stroke-width="1.27143"/>
<path d="M346.635 39.5L108.242 277.893" stroke="#EEEEEE" stroke-width="1.27143"/>
<path d="M352.358 39.5L113.965 277.893" stroke="#EEEEEE" stroke-width="1.27143"/>
<path d="M358.078 39.5L119.686 277.893" stroke="#EEEEEE" stroke-width="1.27143"/>
<path d="M363.799 39.5L125.406 277.893" stroke="#EEEEEE" stroke-width="1.27143"/>
<path d="M369.522 39.5L131.129 277.893" stroke="#EEEEEE" stroke-width="1.27143"/>
<path d="M375.242 39.5L136.85 277.893" stroke="#EEEEEE" stroke-width="1.27143"/>
<path d="M380.963 39.5L142.57 277.893" stroke="#EEEEEE" stroke-width="1.27143"/>
<path d="M386.686 39.5L148.293 277.893" stroke="#EEEEEE" stroke-width="1.27143"/>
<path d="M392.407 39.5L154.014 277.893" stroke="#EEEEEE" stroke-width="1.27143"/>
<path d="M398.129 39.5L159.736 277.893" stroke="#EEEEEE" stroke-width="1.27143"/>
<path d="M403.85 39.5L165.457 277.893" stroke="#EEEEEE" stroke-width="1.27143"/>
<path d="M409.571 39.5L171.178 277.893" stroke="#EEEEEE" stroke-width="1.27143"/>
<path d="M415.293 39.5L176.9 277.893" stroke="#EEEEEE" stroke-width="1.27143"/>
<path d="M421.014 39.5L182.621 277.893" stroke="#EEEEEE" stroke-width="1.27143"/>
<path d="M426.735 39.5L188.342 277.893" stroke="#EEEEEE" stroke-width="1.27143"/>
<path d="M432.457 39.5L194.064 277.893" stroke="#EEEEEE" stroke-width="1.27143"/>
<path d="M438.178 39.5L199.785 277.893" stroke="#EEEEEE" stroke-width="1.27143"/>
<path d="M443.901 39.5L205.508 277.893" stroke="#EEEEEE" stroke-width="1.27143"/>
<path d="M449.621 39.5L211.229 277.893" stroke="#EEEEEE" stroke-width="1.27143"/>
<path d="M455.342 39.5L216.949 277.893" stroke="#EEEEEE" stroke-width="1.27143"/>
<path d="M461.065 39.5L222.672 277.893" stroke="#EEEEEE" stroke-width="1.27143"/>
<path d="M466.785 39.5L228.393 277.893" stroke="#EEEEEE" stroke-width="1.27143"/>
<path d="M472.506 39.5L234.113 277.893" stroke="#EEEEEE" stroke-width="1.27143"/>
<path d="M478.229 39.5L239.836 277.893" stroke="#EEEEEE" stroke-width="1.27143"/>
<path d="M483.95 39.5L245.557 277.893" stroke="#EEEEEE" stroke-width="1.27143"/>
<path d="M489.672 39.5L251.279 277.893" stroke="#EEEEEE" stroke-width="1.27143"/>
<path d="M495.393 39.5L257 277.893" stroke="#EEEEEE" stroke-width="1.27143"/>
<path d="M501.114 39.5L262.721 277.893" stroke="#EEEEEE" stroke-width="1.27143"/>
<path d="M506.836 39.5L268.443 277.893" stroke="#EEEEEE" stroke-width="1.27143"/>
<path d="M512.557 39.5L274.164 277.893" stroke="#EEEEEE" stroke-width="1.27143"/>
<path d="M518.278 39.5L279.885 277.893" stroke="#EEEEEE" stroke-width="1.27143"/>
<path d="M524 39.5L285.607 277.893" stroke="#EEEEEE" stroke-width="1.27143"/>
<path fill-rule="evenodd" clip-rule="evenodd" d="M73 67.5H83C90.1797 67.5 96 73.3203 96 80.5V227C96 239.703 106.297 250 119 250H276.5C283.68 250 289.5 255.82 289.5 263V273H73V67.5Z" stroke="#BEBEBE"/>
</g>
</svg>
