<svg width="40" height="40" viewBox="0 0 40 40" fill="none" xmlns="http://www.w3.org/2000/svg">
<path d="M10 0C8.625 0 7.5 1.125 7.5 2.5V37.5C7.5 38.875 8.625 40 10 40H35C36.375 40 37.5 38.875 37.5 37.5V10L27.5 0H10Z" fill="#E2E5E7"/>
<path d="M30 10H37.5L27.5 0V7.5C27.5 8.875 28.625 10 30 10Z" fill="#B0B7BD"/>
<path d="M37.5 17.5L30 10H37.5V17.5Z" fill="#CAD1D8"/>
<path d="M32.5 32.5C32.5 33.1875 31.9375 33.75 31.25 33.75H3.75C3.0625 33.75 2.5 33.1875 2.5 32.5V20C2.5 19.3125 3.0625 18.75 3.75 18.75H31.25C31.9375 18.75 32.5 19.3125 32.5 20V32.5Z" fill="#65E850"/>
<path d="M31.25 33.75H7.5V35H31.25C31.9375 35 32.5 34.4375 32.5 33.75V32.5C32.5 33.1875 31.9375 33.75 31.25 33.75Z" fill="#CAD1D8"/>
<path d="M7.79905 30.588C7.57171 30.588 7.39571 30.5257 7.27105 30.401C7.15371 30.269 7.09505 30.0893 7.09505 29.862V23.46C7.09505 23.2253 7.15738 23.0493 7.28205 22.932C7.40671 22.8073 7.58271 22.745 7.81005 22.745H10.461C11.3117 22.745 11.968 22.9577 12.43 23.383C12.892 23.8083 13.123 24.4023 13.123 25.165C13.123 25.9277 12.892 26.5253 12.43 26.958C11.968 27.3833 11.3117 27.596 10.461 27.596H8.50305V29.862C8.50305 30.0893 8.44438 30.269 8.32705 30.401C8.20971 30.5257 8.03371 30.588 7.79905 30.588ZM8.50305 26.485H10.241C10.7397 26.485 11.1174 26.375 11.374 26.155C11.6307 25.9277 11.759 25.5977 11.759 25.165C11.759 24.7323 11.6307 24.406 11.374 24.186C11.1174 23.966 10.7397 23.856 10.241 23.856H8.50305V26.485ZM14.9308 30.588C14.7182 30.588 14.5532 30.5293 14.4358 30.412C14.3258 30.2947 14.2708 30.126 14.2708 29.906V23.361C14.2708 23.1337 14.3258 22.9613 14.4358 22.844C14.5532 22.7193 14.7035 22.657 14.8868 22.657C15.0555 22.657 15.1802 22.69 15.2608 22.756C15.3488 22.8147 15.4515 22.9173 15.5688 23.064L19.7818 28.531H19.4958V23.328C19.4958 23.1153 19.5508 22.9503 19.6608 22.833C19.7782 22.7157 19.9432 22.657 20.1558 22.657C20.3685 22.657 20.5298 22.7157 20.6398 22.833C20.7498 22.9503 20.8048 23.1153 20.8048 23.328V29.928C20.8048 30.1333 20.7535 30.2947 20.6508 30.412C20.5482 30.5293 20.4088 30.588 20.2328 30.588C20.0642 30.588 19.9285 30.555 19.8258 30.489C19.7305 30.423 19.6242 30.3167 19.5068 30.17L15.3048 24.703H15.5798V29.906C15.5798 30.126 15.5248 30.2947 15.4148 30.412C15.3048 30.5293 15.1435 30.588 14.9308 30.588ZM26.2283 30.61C25.3703 30.61 24.6443 30.4487 24.0503 30.126C23.4637 29.8033 23.0163 29.345 22.7083 28.751C22.4003 28.157 22.2463 27.453 22.2463 26.639C22.2463 26.023 22.3343 25.4693 22.5103 24.978C22.6937 24.4867 22.954 24.0687 23.2913 23.724C23.636 23.372 24.054 23.1043 24.5453 22.921C25.0367 22.7303 25.594 22.635 26.2173 22.635C26.628 22.635 27.0387 22.6863 27.4493 22.789C27.8673 22.8843 28.2597 23.0493 28.6263 23.284C28.751 23.3647 28.8317 23.4637 28.8683 23.581C28.9123 23.6983 28.9197 23.8193 28.8903 23.944C28.861 24.0613 28.806 24.164 28.7253 24.252C28.6447 24.34 28.542 24.395 28.4173 24.417C28.3 24.439 28.168 24.4097 28.0213 24.329C27.7427 24.1677 27.4603 24.0503 27.1743 23.977C26.8883 23.9037 26.5693 23.867 26.2173 23.867C25.6747 23.867 25.2163 23.977 24.8423 24.197C24.4683 24.4097 24.186 24.7213 23.9953 25.132C23.812 25.5427 23.7203 26.045 23.7203 26.639C23.7203 27.541 23.9367 28.2267 24.3693 28.696C24.802 29.1653 25.4437 29.4 26.2943 29.4C26.5877 29.4 26.8847 29.3707 27.1853 29.312C27.486 29.2533 27.7793 29.1727 28.0653 29.07L27.7903 29.697V27.354H26.5803C26.397 27.354 26.254 27.3063 26.1513 27.211C26.056 27.1157 26.0083 26.9873 26.0083 26.826C26.0083 26.6573 26.056 26.529 26.1513 26.441C26.254 26.353 26.397 26.309 26.5803 26.309H28.3953C28.5787 26.309 28.718 26.3603 28.8133 26.463C28.916 26.5583 28.9673 26.6977 28.9673 26.881V29.554C28.9673 29.7153 28.9343 29.851 28.8683 29.961C28.8097 30.071 28.7107 30.1517 28.5713 30.203C28.2487 30.3203 27.8783 30.4193 27.4603 30.5C27.0423 30.5733 26.6317 30.61 26.2283 30.61Z" fill="white"/>
</svg>
