<svg width="40" height="40" viewBox="0 0 40 40" fill="none" xmlns="http://www.w3.org/2000/svg">
<path d="M10 0C8.625 0 7.5 1.125 7.5 2.5V37.5C7.5 38.875 8.625 40 10 40H35C36.375 40 37.5 38.875 37.5 37.5V10L27.5 0H10Z" fill="#E2E5E7"/>
<path d="M30 10H37.5L27.5 0V7.5C27.5 8.875 28.625 10 30 10Z" fill="#B0B7BD"/>
<path d="M37.5 17.5L30 10H37.5V17.5Z" fill="#CAD1D8"/>
<path d="M32.5 32.5C32.5 33.1875 31.9375 33.75 31.25 33.75H3.75C3.0625 33.75 2.5 33.1875 2.5 32.5V20C2.5 19.3125 3.0625 18.75 3.75 18.75H31.25C31.9375 18.75 32.5 19.3125 32.5 20V32.5Z" fill="#E8AB50"/>
<path d="M31.25 33.75H7.5V35H31.25C31.9375 35 32.5 34.4375 32.5 33.75V32.5C32.5 33.1875 31.9375 33.75 31.25 33.75Z" fill="#CAD1D8"/>
<path d="M9.05588 30.588C8.82855 30.588 8.65255 30.5257 8.52788 30.401C8.41055 30.269 8.35188 30.0893 8.35188 29.862V23.46C8.35188 23.2253 8.41422 23.0493 8.53888 22.932C8.66355 22.8073 8.83955 22.745 9.06688 22.745H11.7179C12.5685 22.745 13.2249 22.9577 13.6869 23.383C14.1489 23.8083 14.3799 24.4023 14.3799 25.165C14.3799 25.9277 14.1489 26.5253 13.6869 26.958C13.2249 27.3833 12.5685 27.596 11.7179 27.596H9.75988V29.862C9.75988 30.0893 9.70122 30.269 9.58388 30.401C9.46655 30.5257 9.29055 30.588 9.05588 30.588ZM9.75988 26.485H11.4979C11.9965 26.485 12.3742 26.375 12.6309 26.155C12.8875 25.9277 13.0159 25.5977 13.0159 25.165C13.0159 24.7323 12.8875 24.406 12.6309 24.186C12.3742 23.966 11.9965 23.856 11.4979 23.856H9.75988V26.485ZM16.2317 30.588C16.0043 30.588 15.8283 30.5257 15.7037 30.401C15.5863 30.269 15.5277 30.0893 15.5277 29.862V23.46C15.5277 23.2253 15.59 23.0493 15.7147 22.932C15.8393 22.8073 16.0153 22.745 16.2427 22.745H18.8937C19.7443 22.745 20.4007 22.9577 20.8627 23.383C21.3247 23.8083 21.5557 24.4023 21.5557 25.165C21.5557 25.9277 21.3247 26.5253 20.8627 26.958C20.4007 27.3833 19.7443 27.596 18.8937 27.596H16.9357V29.862C16.9357 30.0893 16.877 30.269 16.7597 30.401C16.6423 30.5257 16.4663 30.588 16.2317 30.588ZM16.9357 26.485H18.6737C19.1723 26.485 19.55 26.375 19.8067 26.155C20.0633 25.9277 20.1917 25.5977 20.1917 25.165C20.1917 24.7323 20.0633 24.406 19.8067 24.186C19.55 23.966 19.1723 23.856 18.6737 23.856H16.9357V26.485ZM25.0841 30.588C24.8568 30.588 24.6808 30.5257 24.5561 30.401C24.4388 30.269 24.3801 30.0893 24.3801 29.862V23.922H22.2351C22.0444 23.922 21.8941 23.8707 21.7841 23.768C21.6814 23.658 21.6301 23.5113 21.6301 23.328C21.6301 23.1373 21.6814 22.9943 21.7841 22.899C21.8941 22.7963 22.0444 22.745 22.2351 22.745H27.9331C28.1238 22.745 28.2704 22.7963 28.3731 22.899C28.4831 22.9943 28.5381 23.1373 28.5381 23.328C28.5381 23.5113 28.4831 23.658 28.3731 23.768C28.2704 23.8707 28.1238 23.922 27.9331 23.922H25.7881V29.862C25.7881 30.0893 25.7294 30.269 25.6121 30.401C25.4948 30.5257 25.3188 30.588 25.0841 30.588Z" fill="white"/>
</svg>
