<svg width="16" height="17" viewBox="0 0 16 17" fill="none" xmlns="http://www.w3.org/2000/svg">
<g clip-path="url(#clip0_10255_13669)">
<path d="M14.5597 13.5294C14.5597 12.5132 13.733 11.6865 12.7169 11.6865C11.7007 11.6865 10.874 12.5132 10.874 13.5294C10.874 14.5455 11.7007 15.3722 12.7169 15.3722C13.733 15.3722 14.5597 14.5455 14.5597 13.5294Z" fill="white"/>
<path d="M0.416848 2.17232H1.5855C1.78397 2.17232 1.95523 2.30706 2.00203 2.49991L3.66225 9.5371C3.79918 10.1213 4.31397 10.5294 4.91405 10.5294H13.6316C14.2345 10.5294 14.7498 10.119 14.8848 9.5314L15.9672 4.81717C16.0554 4.43335 15.9652 4.03654 15.7199 3.72849C15.4745 3.42043 15.1079 3.24373 14.7141 3.24373H3.06427L2.83499 2.29797C2.69472 1.71932 2.18091 1.31519 1.5855 1.31519H0.416848C0.18015 1.31519 -0.0117188 1.50705 -0.0117188 1.74375C-0.0117188 1.98045 0.18015 2.17232 0.416848 2.17232V2.17232Z" fill="white"/>
<path d="M7.14563 13.5294C7.14563 12.5132 6.31893 11.6865 5.3028 11.6865C4.28667 11.6865 3.45996 12.5132 3.45996 13.5294C3.45996 14.5455 4.28667 15.3722 5.3028 15.3722C6.31893 15.3722 7.14563 14.5455 7.14563 13.5294Z" fill="white"/>
</g>
<defs>
<clipPath id="clip0_10255_13669">
<rect width="16" height="16" fill="white" transform="translate(0 0.5)"/>
</clipPath>
</defs>
</svg>
