<svg width="40" height="40" viewBox="0 0 40 40" fill="none" xmlns="http://www.w3.org/2000/svg">
<path d="M36.4844 12.9686H15.2344C13.2958 12.9686 11.7188 14.5457 11.7188 16.4843V28.203C11.7188 30.1416 13.2958 31.7186 15.2344 31.7186H33.6554L37.9995 36.0628C38.3378 36.4011 38.8448 36.4971 39.2767 36.3168C39.715 36.136 40 35.708 40 35.2343V16.4843C40 14.5457 38.423 12.9686 36.4844 12.9686ZM30.625 25.8593H21.0938C20.446 25.8593 19.9219 25.3351 19.9219 24.6874C19.9219 24.0396 20.446 23.5155 21.0938 23.5155H30.625C31.2727 23.5155 31.7969 24.0396 31.7969 24.6874C31.7969 25.3351 31.2727 25.8593 30.625 25.8593ZM32.9688 21.1718H18.75C18.1023 21.1718 17.5781 20.6476 17.5781 19.9999C17.5781 19.3521 18.1023 18.828 18.75 18.828H32.9688C33.6165 18.828 34.1406 19.3521 34.1406 19.9999C34.1406 20.6476 33.6165 21.1718 32.9688 21.1718Z" fill="#56C8D1"/>
<path d="M0.723281 26.9418C1.15516 27.1221 1.66211 27.0261 2.00047 26.6878L6.34461 22.3436H9.375V16.4843C9.375 13.2535 12.0037 10.6249 15.2344 10.6249H28.2812V7.10925C28.2812 5.16761 26.7073 3.59363 24.7656 3.59363H3.51562C1.57398 3.59363 0 5.16761 0 7.10925V25.8593C0 26.333 0.284922 26.761 0.723281 26.9418Z" fill="#56C8D1"/>
</svg>
