<svg width="40" height="40" viewBox="0 0 40 40" fill="none" xmlns="http://www.w3.org/2000/svg">
<g clip-path="url(#clip0_10827_30794)">
<path d="M15.3125 21.25C14.6659 21.25 14.1406 21.7753 14.1406 22.4219C14.1406 23.0684 14.6659 23.5938 15.3125 23.5938C15.9591 23.5938 16.4844 23.0684 16.4844 22.4219C16.4844 21.7753 15.9591 21.25 15.3125 21.25Z" fill="#56C8D1"/>
<path d="M24.6875 30.625C24.0409 30.625 23.5156 31.1503 23.5156 31.7969C23.5156 32.4434 24.0409 32.9688 24.6875 32.9688C25.3341 32.9688 25.8594 32.4434 25.8594 31.7969C25.8594 31.1503 25.3341 30.625 24.6875 30.625Z" fill="#56C8D1"/>
<path d="M36.4844 14.1406H3.51562C1.57703 14.1406 0 15.7177 0 17.6562V36.4844C0 38.423 1.57703 40 3.51562 40H36.4844C38.423 40 40 38.423 40 36.4844V17.6562C40 15.7177 38.423 14.1406 36.4844 14.1406ZM11.7969 22.4219C11.7969 20.4833 13.3739 18.9062 15.3125 18.9062C17.2511 18.9062 18.8281 20.4833 18.8281 22.4219C18.8281 24.3605 17.2511 25.9375 15.3125 25.9375C13.3739 25.9375 11.7969 24.3605 11.7969 22.4219ZM14.6624 35.1157C14.1234 34.7563 13.978 34.0297 14.3374 33.4906L23.7124 19.4281C24.0695 18.8891 24.7963 18.7426 25.3375 19.1031C25.8765 19.4625 26.0219 20.1891 25.6625 20.7282L16.2875 34.7907C15.934 35.3217 15.21 35.4787 14.6624 35.1157ZM24.6875 35.3125C22.7489 35.3125 21.1719 33.7355 21.1719 31.7969C21.1719 29.8583 22.7489 28.2812 24.6875 28.2812C26.6261 28.2812 28.2031 29.8583 28.2031 31.7969C28.2031 33.7355 26.6261 35.3125 24.6875 35.3125Z" fill="#56C8D1"/>
<path d="M23.1633 5.0218C23.3826 4.56344 23.5156 4.0568 23.5156 3.51562C23.5156 1.57703 21.9386 0 20 0C18.0614 0 16.4844 1.57703 16.4844 3.51562C16.4844 4.0568 16.6174 4.56344 16.8367 5.0218L10.1398 11.7969H13.454L18.4938 6.67891C18.9522 6.8982 19.4588 7.03125 20 7.03125C20.5412 7.03125 21.0478 6.8982 21.5062 6.67891L26.546 11.7969H29.8602L23.1633 5.0218Z" fill="#56C8D1"/>
</g>
<defs>
<clipPath id="clip0_10827_30794">
<rect width="40" height="40" fill="white"/>
</clipPath>
</defs>
</svg>
