<svg width="40" height="40" viewBox="0 0 40 40" fill="none" xmlns="http://www.w3.org/2000/svg">
<g clip-path="url(#clip0_10827_30807)">
<path d="M25.8334 1.66663C21.8834 1.66663 18.3084 3.29496 15.7367 5.91329C24.1934 6.70663 30.8334 13.84 30.8334 22.5C30.8334 25.03 30.25 27.42 29.2384 29.57C35.4084 28.0383 40 22.47 40 15.8333C40 8.02163 33.645 1.66663 25.8334 1.66663Z" fill="#56C8D1"/>
<path d="M14.1667 8.33337C6.355 8.33337 0 14.6884 0 22.5C0 30.3117 6.355 36.6667 14.1667 36.6667C21.9783 36.6667 28.3333 30.3117 28.3333 22.5C28.3333 14.6884 21.9783 8.33337 14.1667 8.33337ZM13.5333 21.25H14.8C16.7483 21.25 18.3333 22.835 18.3333 24.7834C18.3333 26.535 17.07 27.9767 15.4167 28.27V29.5817C15.4167 30.2717 14.8567 30.8317 14.1667 30.8317C13.4767 30.8317 12.9167 30.2717 12.9167 29.5817V28.3334H11.25C10.56 28.3334 10 27.7734 10 27.0834C10 26.3934 10.56 25.8334 11.25 25.8334H14.8C15.37 25.8334 15.8333 25.37 15.8333 24.8C15.8333 24.2134 15.37 23.75 14.8 23.75H13.5333C11.585 23.75 10 22.165 10 20.2167C10 18.465 11.2633 17.0234 12.9167 16.73V15.4167C12.9167 14.7267 13.4767 14.1667 14.1667 14.1667C14.8567 14.1667 15.4167 14.7267 15.4167 15.4167V16.6667H17.0833C17.7733 16.6667 18.3333 17.2267 18.3333 17.9167C18.3333 18.6067 17.7733 19.1667 17.0833 19.1667H13.5333C12.9633 19.1667 12.5 19.63 12.5 20.2C12.5 20.7867 12.9633 21.25 13.5333 21.25Z" fill="#56C8D1"/>
<path d="M13.5333 21.25H14.8C16.7483 21.25 18.3333 22.835 18.3333 24.7834C18.3333 26.535 17.07 27.9767 15.4167 28.27V29.5817C15.4167 30.2717 14.8567 30.8317 14.1667 30.8317C13.4767 30.8317 12.9167 30.2717 12.9167 29.5817V28.3334H11.25C10.56 28.3334 10 27.7734 10 27.0834C10 26.3934 10.56 25.8334 11.25 25.8334H14.8C15.37 25.8334 15.8333 25.37 15.8333 24.8C15.8333 24.2134 15.37 23.75 14.8 23.75H13.5333C11.585 23.75 10 22.165 10 20.2167C10 18.465 11.2633 17.0234 12.9167 16.73V15.4167C12.9167 14.7267 13.4767 14.1667 14.1667 14.1667C14.8567 14.1667 15.4167 14.7267 15.4167 15.4167V16.6667H17.0833C17.7733 16.6667 18.3333 17.2267 18.3333 17.9167C18.3333 18.6067 17.7733 19.1667 17.0833 19.1667H13.5333C12.9633 19.1667 12.5 19.63 12.5 20.2C12.5 20.7867 12.9633 21.25 13.5333 21.25Z" fill="#56C8D1"/>
</g>
<defs>
<clipPath id="clip0_10827_30807">
<rect width="40" height="40" fill="white"/>
</clipPath>
</defs>
</svg>
