<svg width="40" height="40" viewBox="0 0 40 40" fill="none" xmlns="http://www.w3.org/2000/svg">
<path d="M37.4851 17.6145C36.8836 17.3149 36.2479 16.6472 36.67 14.123C37.0659 11.7551 36.3327 11.2707 35.333 10.8834C35.2746 10.8608 35.2158 10.838 35.1567 10.814C35.0868 10.7857 35.0733 10.6747 35.0942 10.2978C35.1236 9.75974 35.1786 8.7581 33.8182 8.57536C33.1521 8.48599 32.7043 8.58607 32.4495 8.88185C32.1072 9.27927 32.2635 9.81849 32.3776 10.2122C32.4057 10.3003 32.4285 10.3899 32.4457 10.4808C32.4608 10.6019 32.4251 10.6854 32.3429 10.8626C32.1838 11.1702 32.1008 11.5115 32.1007 11.8579C32.1007 12.3891 32.0024 12.5721 30.9605 13.3052C30.6686 13.4983 30.3598 13.6644 30.0379 13.8017C29.2897 14.1471 28.4416 14.5386 28.3093 15.7521C28.2009 16.7454 27.5994 17.4385 27.4015 17.4732C27.3786 17.4447 27.3603 17.4128 27.3473 17.3787C27.2067 17.0443 26.9879 16.8201 26.6977 16.7122C26.0961 16.4884 25.3961 16.8361 24.7191 17.1722C24.63 17.2165 24.5415 17.2604 24.4547 17.3022C23.8982 17.57 23.2828 17.6901 22.9686 17.6928C23.0341 17.5874 23.1213 17.4752 23.2065 17.3653C23.4721 17.0233 23.8732 16.5059 23.5111 16.001C23.1389 15.4818 22.7086 15.6736 22.394 15.8135C22.128 15.9396 21.8481 16.0337 21.56 16.0937C20.8568 16.238 20.557 16.6124 20.3379 16.8858C20.1697 17.0958 20.0942 17.1818 19.9115 17.2047C19.1563 17.2988 19.1875 18.0557 19.2043 18.4625C19.213 18.674 19.2261 18.9937 19.1376 19.0581C18.8075 19.299 18.4616 19.7807 18.4822 20.269C18.4841 20.3158 18.4745 20.3622 18.4544 20.4044C18.4342 20.4466 18.4041 20.4833 18.3666 20.5112C18.3344 20.5364 18.2964 20.5531 18.2561 20.5599C18.2158 20.5667 18.1744 20.5634 18.1357 20.5503C18.0073 20.5065 17.9867 20.4556 17.9867 20.3507C17.9817 20.2176 17.9876 20.0843 18.0046 19.9522C18.0154 19.9419 18.0319 19.9271 18.046 19.9145C18.2399 19.7434 18.4079 19.545 18.5445 19.3254C19.2218 18.2929 18.5536 17.4461 18.5247 17.4105C18.4737 17.3474 18.4044 17.3018 18.3262 17.2801C17.7676 17.1238 17.4452 17.6041 17.1861 17.9897C16.8748 18.4532 16.5221 18.9785 15.7496 19.0617C14.6754 19.1774 14.5766 19.0737 14.4274 18.9165C14.2043 18.668 13.9208 18.4813 13.6043 18.3747C12.9027 18.1125 11.7075 18.3205 10.5518 18.5216C9.94833 18.6266 9.03614 18.7854 8.83497 18.705C8.83192 18.7038 8.82997 18.7028 8.82918 18.7026C8.82137 18.6879 8.74997 18.5211 8.94411 17.9946C8.94744 17.9853 8.95281 17.9769 8.95983 17.97C8.96684 17.963 8.97533 17.9578 8.98465 17.9546C8.99567 17.9504 9.00748 17.9486 9.01925 17.9494C9.03102 17.9503 9.04247 17.9537 9.05278 17.9594C9.52512 18.2152 10.0042 18.23 10.4379 18.002C10.8405 17.7903 11.0507 17.3597 10.9997 16.8501C10.933 16.1803 10.3898 15.3629 9.48098 15.0964C8.71192 14.871 8.24528 15.4636 7.79458 16.0368C7.26903 16.7054 6.6734 17.463 5.42833 17.6643C5.01931 17.7238 4.6276 17.8695 4.27911 18.0917C3.93061 18.3139 3.63327 18.6076 3.40676 18.9533C2.54653 20.2227 2.47942 22.2175 2.79473 23.6312C2.98465 24.4833 2.84465 24.804 2.77567 24.9022C2.74934 24.9445 2.70895 24.9761 2.66161 24.9915C2.43114 24.9776 1.52934 24.9654 1.09481 25.5638C0.811607 25.9538 0.806372 26.4762 1.07918 27.1165C2.21614 29.7834 2.992 31.013 3.67293 31.2277C3.77398 31.262 3.8814 31.2733 3.98738 31.2609C4.09336 31.2484 4.19523 31.2125 4.28559 31.1558C4.57848 30.9733 4.72559 30.5558 5.00481 29.704C5.34075 28.6776 5.84934 27.1264 6.72356 26.868C7.16106 26.739 7.71262 26.9334 8.36231 27.4467C8.7759 28.093 9.52864 29.0893 10.1814 28.9654C10.6556 28.8754 10.8156 28.4391 10.9324 28.1206C11.0132 27.9001 11.0896 27.6919 11.2227 27.6284C11.4052 27.5379 11.5758 27.425 11.7305 27.2925C11.7876 27.2405 11.851 27.1958 11.9193 27.1597C11.9721 27.169 12.022 27.1906 12.065 27.2227C12.1275 27.2604 12.1842 27.2958 12.2375 27.3288C12.7219 27.6289 12.9702 27.7654 13.7759 27.8572C13.9448 27.8765 14.0058 27.9616 14.1424 28.2661C14.2757 28.5636 14.5243 29.1173 15.2464 28.9903C15.7287 28.9054 15.8611 29.0989 16.2464 29.7827L16.3189 29.9109C16.9004 30.9336 17.8592 31.449 19.1756 31.449C19.4566 31.4479 19.7372 31.4269 20.0153 31.3861C21.2157 31.215 21.6618 30.9166 21.9284 30.7383C22.0992 30.6241 22.0993 30.6241 22.278 30.6743C22.7519 30.8072 23.1335 30.6069 23.44 30.4461C23.8084 30.2528 24.0521 30.1254 24.484 30.3896C25.2204 30.8401 25.7325 30.641 26.144 30.4812C26.4678 30.3554 26.7475 30.2468 27.2132 30.3629C28.085 30.5801 28.4476 30.2993 28.7668 30.0515C29.046 29.8083 29.394 29.6579 29.7625 29.6213C30.7859 29.4807 30.8088 28.5772 30.8239 27.9794C30.8425 27.2518 30.9064 27.1179 31.2515 27.084C31.8672 27.0238 31.9786 27.179 32.1475 27.4142C32.3097 27.6397 32.5548 27.9807 33.154 27.9807C33.4268 27.9807 34.2569 27.9807 34.5596 28.3269C34.68 28.4646 34.7204 28.6652 34.6833 28.9401C34.6117 29.4699 34.6736 29.9178 34.867 30.2712C34.9613 30.4414 35.104 30.5797 35.2768 30.6689C35.4497 30.7581 35.6452 30.7941 35.8385 30.7724C36.0318 30.7507 36.2144 30.6722 36.3631 30.5469C36.5119 30.4215 36.6203 30.2549 36.6745 30.0681C37.486 27.2613 37.04 26.1725 36.6088 25.1194C36.4622 24.786 36.3425 24.4414 36.2507 24.089C36.1529 23.6816 36.0961 23.4619 35.9736 23.31C35.7582 23.0426 35.4619 23.1036 35.285 23.1401C35.0503 23.1937 34.8086 23.2093 34.569 23.1864C34.5263 23.1858 34.4843 23.1748 34.4467 23.1544C34.4091 23.1339 34.3771 23.1047 34.3532 23.0692C34.1111 22.7318 34.1961 21.8036 34.3334 21.2525C34.3524 21.1922 34.3528 21.1276 34.3347 21.067C34.3269 21.0123 34.281 20.5535 34.7387 19.7612C35.0646 19.1969 35.0996 18.5299 35.1252 18.0429C35.1286 17.9767 35.133 17.9011 35.1377 17.8294C35.324 18.0075 35.4736 18.2819 35.6632 18.6293C35.8715 19.0301 36.1101 19.4143 36.3769 19.7787C37.0291 20.6459 37.8836 21.2593 38.455 21.2714C38.5601 21.277 38.6651 21.2582 38.7618 21.2166C38.8585 21.175 38.9443 21.1117 39.0125 21.0315C39.1687 20.8409 39.2007 20.5416 39.1098 20.1165C38.9414 19.3306 38.3261 18.0337 37.4851 17.6145Z" fill="#56C8D1"/>
</svg>
