<svg width="69" height="18" viewBox="0 0 69 18" fill="none" xmlns="http://www.w3.org/2000/svg">
<path d="M10 9L58 9" stroke="#1E3B3E"/>
<path d="M64.8536 0.646447C64.6583 0.451184 64.3417 0.451184 64.1464 0.646447L60.9645 3.82843C60.7692 4.02369 60.7692 4.34027 60.9645 4.53553C61.1597 4.7308 61.4763 4.7308 61.6716 4.53553L64.5 1.70711L67.3284 4.53553C67.5237 4.7308 67.8403 4.7308 68.0355 4.53553C68.2308 4.34027 68.2308 4.02369 68.0355 3.82843L64.8536 0.646447ZM64.1464 17.3536C64.3417 17.5488 64.6583 17.5488 64.8536 17.3536L68.0355 14.1716C68.2308 13.9763 68.2308 13.6597 68.0355 13.4645C67.8403 13.2692 67.5237 13.2692 67.3284 13.4645L64.5 16.2929L61.6716 13.4645C61.4763 13.2692 61.1597 13.2692 60.9645 13.4645C60.7692 13.6597 60.7692 13.9763 60.9645 14.1716L64.1464 17.3536ZM64 1V17H65V1H64Z" fill="#1E3B3E"/>
<path d="M4.35355 0.646447C4.15829 0.451184 3.84171 0.451184 3.64645 0.646447L0.464466 3.82843C0.269204 4.02369 0.269204 4.34027 0.464466 4.53553C0.659728 4.7308 0.976311 4.7308 1.17157 4.53553L4 1.70711L6.82843 4.53553C7.02369 4.7308 7.34027 4.7308 7.53553 4.53553C7.7308 4.34027 7.7308 4.02369 7.53553 3.82843L4.35355 0.646447ZM3.64645 17.3536C3.84171 17.5488 4.15829 17.5488 4.35355 17.3536L7.53553 14.1716C7.7308 13.9763 7.7308 13.6597 7.53553 13.4645C7.34027 13.2692 7.02369 13.2692 6.82843 13.4645L4 16.2929L1.17157 13.4645C0.976311 13.2692 0.659728 13.2692 0.464466 13.4645C0.269204 13.6597 0.269204 13.9763 0.464466 14.1716L3.64645 17.3536ZM3.5 1V17H4.5V1H3.5Z" fill="#1E3B3E"/>
</svg>
