<svg width="41" height="40" viewBox="0 0 41 40" fill="none" xmlns="http://www.w3.org/2000/svg">
<path fill-rule="evenodd" clip-rule="evenodd" d="M20.334 40C31.3797 40 40.334 31.0457 40.334 20C40.334 8.9543 31.3797 0 20.334 0C9.28828 0 0.333984 8.9543 0.333984 20C0.333984 31.0457 9.28828 40 20.334 40ZM12.7892 21.7479L7.41274 19.7412C6.86666 19.5366 6.86192 18.7657 7.40644 18.5557L29.4716 10.0436C29.9393 9.86267 30.422 10.2725 30.3201 10.7637L26.3604 29.8108C26.2671 30.2605 25.7398 30.4644 25.3676 30.1939L19.9622 26.2695C19.6339 26.0312 19.1865 26.0439 18.8723 26.2999L15.8754 28.7431C15.5275 29.0275 15.0034 28.8691 14.8702 28.4404L12.7892 21.7479ZM25.0424 14.208L14.5348 20.6797C14.1321 20.9283 13.9425 21.4146 14.0726 21.8699L15.2087 25.8619C15.2894 26.1447 15.7 26.1157 15.7391 25.8234L16.0345 23.6343C16.0902 23.2222 16.2868 22.8424 16.5916 22.5587L25.2634 14.4978C25.4256 14.3474 25.2313 14.0921 25.0424 14.208Z" fill="#1E3B3E"/>
</svg>
