<svg width="40" height="40" viewBox="0 0 40 40" fill="none" xmlns="http://www.w3.org/2000/svg">
<path d="M20.0065 1.05462e-06C16.0506 -0.00128333 12.1832 1.17061 8.89332 3.36746C5.60349 5.5643 3.03903 8.68742 1.52428 12.3418C0.00953424 15.9962 -0.387459 20.0178 0.383512 23.8978C1.15448 27.7779 3.05878 31.3421 5.85557 34.1398C8.65236 36.9375 12.216 38.843 16.0958 39.6152C19.9756 40.3874 23.9973 39.9918 27.6521 38.4782C31.307 36.9646 34.431 34.4012 36.6289 31.1121C38.8268 27.823 40 23.9559 40 20C40 14.6968 37.8937 9.6107 34.1444 5.86016C30.3951 2.10962 25.3097 0.00172287 20.0065 1.05462e-06ZM30.1039 27.6493H27.6363C26.6948 27.6493 26.4221 26.9156 24.7467 25.2727C23.2792 23.8831 22.6493 23.7013 22.2857 23.7013C21.5 23.7013 21.6364 23.961 21.6364 26.7078C21.6364 27.3052 21.4415 27.6493 19.8701 27.6493C17.2727 27.6493 14.3896 26.0909 12.3442 23.2208C9.28572 19.0065 8.44805 15.8182 8.44805 15.1753C8.44805 14.8182 8.59091 14.526 9.29221 14.526H11.7597C12.4091 14.526 12.6299 14.7922 12.8766 15.4675C14.0844 18.9221 16.1234 21.961 16.9545 21.961C17.2727 21.961 17.4091 21.8182 17.4091 21.039V17.4675C17.3182 15.8247 16.4286 15.6883 16.4286 15.1039C16.4334 15.0245 16.4542 14.9468 16.4898 14.8756C16.5254 14.8044 16.575 14.7412 16.6357 14.6896C16.6963 14.6381 16.7668 14.5993 16.8427 14.5756C16.9187 14.552 16.9987 14.5439 17.0779 14.5519H20.974C21.4935 14.5519 21.6753 14.8247 21.6753 15.4416V20.2403C21.6753 20.7532 21.9091 20.9351 22.0649 20.9351C22.3766 20.9351 22.6428 20.7532 23.2143 20.1883C24.46 18.6926 25.4815 17.0236 26.2467 15.2338C26.3333 15.0244 26.4847 14.8484 26.6787 14.7315C26.8727 14.6146 27.0992 14.5631 27.3247 14.5844H29.7467C30.4935 14.5844 30.6493 14.961 30.4935 15.474C30.1818 16.8831 27.1753 21.0454 27.1688 21.0519C26.9091 21.461 26.8052 21.7013 27.1688 22.1299C27.3117 22.3247 30.4805 25.2792 30.948 26.7143C31.1753 27.3052 30.8182 27.6493 30.1169 27.6493H30.1039Z" fill="#56C8D1"/>
</svg>
