<svg width="41" height="40" viewBox="0 0 41 40" fill="none" xmlns="http://www.w3.org/2000/svg">
<path d="M20.6725 1.05462e-06C16.7166 -0.00128333 12.8492 1.17061 9.55934 3.36746C6.2695 5.5643 3.70504 8.68742 2.1903 12.3418C0.67555 15.9962 0.278557 20.0178 1.04953 23.8978C1.8205 27.7779 3.7248 31.3421 6.52159 34.1398C9.31838 36.9375 12.882 38.843 16.7618 39.6152C20.6416 40.3874 24.6633 39.9918 28.3182 38.4782C31.9731 36.9646 35.097 34.4012 37.2949 31.1121C39.4928 27.823 40.666 23.9559 40.666 20C40.666 14.6968 38.5597 9.6107 34.8104 5.86016C31.0611 2.10962 25.9757 0.00172287 20.6725 1.05462e-06V1.05462e-06ZM30.7699 27.6493H28.3024C27.3608 27.6493 27.0881 26.9156 25.4128 25.2727C23.9452 23.8831 23.3154 23.7013 22.9517 23.7013C22.166 23.7013 22.3024 23.961 22.3024 26.7078C22.3024 27.3052 22.1076 27.6493 20.5361 27.6493C17.9387 27.6493 15.0556 26.0909 13.0102 23.2208C9.95173 19.0065 9.11407 15.8182 9.11407 15.1753C9.11407 14.8182 9.25693 14.526 9.95822 14.526H12.4258C13.0751 14.526 13.2959 14.7922 13.5426 15.4675C14.7504 18.9221 16.7894 21.961 17.6206 21.961C17.9387 21.961 18.0751 21.8182 18.0751 21.039V17.4675C17.9842 15.8247 17.0946 15.6883 17.0946 15.1039C17.0994 15.0245 17.1203 14.9468 17.1559 14.8756C17.1914 14.8044 17.2411 14.7412 17.3017 14.6896C17.3623 14.6381 17.4328 14.5993 17.5088 14.5756C17.5848 14.552 17.6647 14.5439 17.7439 14.5519H21.64C22.1595 14.5519 22.3413 14.8247 22.3413 15.4416V20.2403C22.3413 20.7532 22.5751 20.9351 22.7309 20.9351C23.0426 20.9351 23.3089 20.7532 23.8803 20.1883C25.126 18.6926 26.1475 17.0236 26.9128 15.2338C26.9993 15.0244 27.1507 14.8484 27.3447 14.7315C27.5388 14.6146 27.7652 14.5631 27.9907 14.5844H30.4128C31.1595 14.5844 31.3153 14.961 31.1595 15.474C30.8478 16.8831 27.8413 21.0454 27.8348 21.0519C27.5751 21.461 27.4712 21.7013 27.8348 22.1299C27.9777 22.3247 31.1465 25.2792 31.614 26.7143C31.8413 27.3052 31.4842 27.6493 30.7829 27.6493H30.7699Z" fill="#1E3B3E"/>
</svg>
