<svg width="80" height="80" viewBox="0 0 80 80" fill="none" xmlns="http://www.w3.org/2000/svg">
<g clip-path="url(#clip0_10743_13481)">
<path d="M79.6136 62.5105C79.56 62.443 74.3366 55.724 72.6387 50.353C72.2354 49.074 71.7328 47.2732 71.1556 45.2093C68.3954 35.3359 65.8821 26.9349 63.0972 24.1515C60.9842 22.0386 54.7606 20.4387 49.4361 19.4035C48.3199 19.1865 47.2877 20.0553 47.2877 21.1926V34.3592C47.2877 35.003 47.4593 35.6618 47.7866 36.2161C49.2419 38.6804 50.5367 40.1298 51.2006 40.4064C52.1277 40.792 52.5648 41.8575 52.1792 42.7846C51.794 43.7119 50.7281 44.1505 49.801 43.7634C46.8189 42.5218 43.6609 36.8879 41.6983 32.0303C41.3807 31.2426 40.5157 29.8415 39.779 28.7489C37.4857 25.4894 33.7808 21.7658 30.4217 21.0821C28.6812 20.7271 27.1432 21.1606 25.9691 22.3326C21.5928 26.7089 24.097 34.1564 27.5765 39.2005C30.3615 43.2377 32.4271 48.0084 32.7203 51.0721C32.7682 51.5819 32.7895 52.0652 32.8127 52.5409C32.9352 55.1678 33.0612 57.8836 36.697 62.8815C38.6507 65.5671 41.1978 67.1105 43.8941 68.7462C47.5924 70.9899 51.4181 73.3091 54.759 79.0551C55.0815 79.6098 55.6861 79.9988 56.3277 79.9995C73.6555 80.0163 79.8181 64.4393 79.8784 64.2812C80.1089 63.6898 80.0078 63.0131 79.6136 62.5105Z" fill="#56C8D1"/>
<path d="M6.50216 0.334983C6.02114 -0.00746075 5.40324 -0.0935404 4.84569 0.10538C1.94796 1.14584 0 3.92101 0 7.01016V58.4443C0 61.5335 1.94779 64.3087 4.84551 65.3491C5.40307 65.5482 6.02097 65.4621 6.50199 65.1195C6.98506 64.775 7.27262 64.2153 7.27262 63.618V1.83652C7.27279 1.23942 6.98523 0.679642 6.50216 0.334983Z" fill="#56C8D1"/>
<path d="M29.1953 52.7187C29.174 52.2392 29.1544 51.8414 29.1137 51.4226C28.9572 49.7499 27.6237 45.6624 24.6 41.2804C23.224 39.2864 20.0262 34.0379 20.0262 28.3862C20.0262 24.9735 21.1979 21.9977 23.4156 19.7801C25.4327 17.7631 28.2558 16.9442 31.1624 17.5355C33.9079 18.0968 36.9544 20.062 39.8118 23.075L39.8123 23.0594C39.8402 23.0894 39.8644 23.1225 39.8922 23.1523C39.9188 23.1805 39.9466 23.2014 39.973 23.2297V23.2459C41.4086 24.8083 42.6676 26.5129 43.6359 28.0589V18.427V18.1819V7.27279C43.6359 3.26182 40.3743 0 36.3633 0H16.363C15.3582 0 14.5449 0.813239 14.5449 1.81824V63.6367C14.5449 64.6419 15.3582 65.4549 16.363 65.4549H30.6672C31.3241 65.4549 31.9298 65.0997 32.2528 64.528C32.5705 63.9546 32.5599 63.2515 32.2209 62.6905C29.662 58.4893 29.3302 55.5774 29.1953 52.7187Z" fill="#56C8D1"/>
</g>
<defs>
<clipPath id="clip0_10743_13481">
<rect width="80" height="80" fill="white"/>
</clipPath>
</defs>
</svg>
