<svg width="80" height="80" viewBox="0 0 80 80" fill="none" xmlns="http://www.w3.org/2000/svg">
<g clip-path="url(#clip0_10743_13470)">
<path d="M73.3331 0H45.6243C43.7913 0 41.2294 1.06191 39.9343 2.35604L1.94545 40.3446C-0.648482 42.9356 -0.648482 47.1837 1.94545 49.7715L30.2312 78.0563C32.8193 80.6473 37.0632 80.6473 39.6552 78.0534L77.644 40.0706C78.9379 38.7767 80 36.2107 80 34.3816V6.66695C80 3.00096 76.9988 0 73.3331 0ZM59.999 26.6668C56.317 26.6668 53.332 23.6787 53.332 19.9999C53.332 16.3149 56.317 13.3329 59.999 13.3329C63.681 13.3329 66.6669 16.3149 66.6669 19.9999C66.6671 23.6787 63.681 26.6668 59.999 26.6668Z" fill="#56C8D1"/>
</g>
<defs>
<clipPath id="clip0_10743_13470">
<rect width="80" height="80" fill="white"/>
</clipPath>
</defs>
</svg>
