<svg width="80" height="80" viewBox="0 0 80 80" fill="none" xmlns="http://www.w3.org/2000/svg">
<g clip-path="url(#clip0_10743_13474)">
<path d="M12.5063 42.5065L7.53439 47.4785C6.16171 48.8511 6.16171 51.0771 7.53439 52.4504C8.90768 53.8231 11.1336 53.8231 12.5063 52.4504L17.4782 47.4785C18.8515 46.1052 18.8515 43.8792 17.4782 42.5065C16.1056 41.1332 13.8796 41.1332 12.5063 42.5065V42.5065Z" fill="#56C8D1"/>
<path d="M29.0786 59.0798L24.1067 64.0517C22.734 65.4244 22.734 67.6503 24.1067 69.023C25.4793 70.3963 27.7053 70.3963 29.0786 69.023L34.0505 64.0517C35.4232 62.6784 35.4232 60.4525 34.0505 59.0798C32.6772 57.7065 30.4519 57.7065 29.0786 59.0798V59.0798Z" fill="#56C8D1"/>
<path d="M40.6801 73.9945L42.3372 72.3374C43.7105 70.9641 43.7105 68.7381 42.3372 67.3654C40.9646 65.9928 38.7386 65.9928 37.3653 67.3654L35.7082 69.0226C34.3355 70.3958 34.3355 72.6218 35.7082 73.9945C37.0809 75.3678 39.3075 75.3678 40.6801 73.9945V73.9945Z" fill="#56C8D1"/>
<path d="M24.1071 47.4782L15.821 55.7643C14.4477 57.1376 14.4477 59.3636 15.821 60.7363C17.1937 62.1089 19.4196 62.1089 20.7923 60.7363L29.079 52.4501C30.4517 51.0768 30.4517 48.8509 29.079 47.4782C27.7057 46.1049 25.4804 46.1049 24.1071 47.4782Z" fill="#56C8D1"/>
<path d="M29.9072 11.8469L23.8885 5.76477C22.973 4.84924 21.4893 4.84924 20.5737 5.76477L0.686646 25.6519C-0.228882 26.5674 -0.228882 28.0511 0.686646 28.9667L4.74976 33.0927C6.03577 34.3793 7.005 35.9473 7.58057 37.6733L8.36304 40.0208L9.19189 39.1919C12.3901 35.9943 17.5946 35.9943 20.7928 39.1919C21.806 40.2057 22.4615 41.4294 22.8326 42.7185C25.921 41.12 29.8071 41.5772 32.3938 44.1638C34.9805 46.7505 35.4376 50.6366 33.8391 53.7256C35.1282 54.0967 36.3519 54.751 37.3657 55.7648C38.9893 57.3883 39.7797 59.5294 39.7546 61.662C41.8878 61.6376 44.0283 62.428 45.6519 64.0515C46.4673 64.8669 48.9667 67.3657 48.9667 67.3657C50.3394 68.739 52.5653 68.739 53.938 67.3657C55.3113 65.993 55.3113 63.7671 53.938 62.3938L48.1378 56.5936C47.2223 55.6781 47.2223 54.1943 48.1378 53.2788C49.0533 52.3639 50.5371 52.3639 51.452 53.2788L57.2528 59.0796C58.6255 60.4523 60.8521 60.4523 62.2247 59.0796C63.5974 57.7069 63.5974 55.4804 62.2247 54.1077L56.424 48.3069C55.509 47.392 55.509 45.9082 56.424 44.9927C57.3395 44.0772 58.8239 44.0772 59.7388 44.9927L65.5396 50.7929C66.9122 52.1655 69.1382 52.1655 70.5115 50.7929C71.8842 49.4202 71.8842 47.1942 70.5115 45.8215L56.2567 31.5668C51.709 34.574 45.5103 34.0784 41.5088 30.0769C40.5945 29.1626 39.1089 29.1626 38.1946 30.0769C33.6255 34.646 26.1908 34.646 21.6217 30.0769C18.88 27.3358 18.88 22.8748 21.6217 20.1337L29.9072 11.8469Z" fill="#56C8D1"/>
<path d="M59.4259 5.5304C58.5103 4.61487 57.0266 4.61487 56.1111 5.5304L51.1538 10.4877C50.2834 11.358 49.103 11.8469 47.8725 11.8469H39.4485C37.5838 11.8469 35.7955 12.5879 34.4771 13.9062L24.9355 23.4479C24.0072 24.3762 24.0072 25.8344 24.9355 26.7627C27.6864 29.5135 32.1279 29.5135 34.8788 26.7627C37.358 24.2834 41.2429 24.046 43.9913 26.0504C47.6876 28.7469 52.6168 28.9117 55.8523 25.6763L56.4236 25.105L72.549 41.2305C72.7724 40.4047 72.7767 39.5306 72.5582 38.7195C72.1792 37.3138 72.7291 35.3162 73.7588 34.2865L79.313 28.7323C80.2285 27.8168 80.2285 26.333 79.313 25.4181L59.4259 5.5304Z" fill="#56C8D1"/>
</g>
<defs>
<clipPath id="clip0_10743_13474">
<rect width="80" height="80" fill="white"/>
</clipPath>
</defs>
</svg>
