<svg width="82" height="81" viewBox="0 0 82 81" fill="none" xmlns="http://www.w3.org/2000/svg">
<g clip-path="url(#clip0_10743_13454)">
<path d="M31.3906 43.0312C30.0652 43.0312 28.9883 44.095 28.9883 45.4043C28.9883 46.7136 30.0652 47.7773 31.3906 47.7773C32.7161 47.7773 33.793 46.7136 33.793 45.4043C33.793 44.095 32.7161 43.0312 31.3906 43.0312Z" fill="#56C8D1"/>
<path d="M50.6094 62.0156C49.2839 62.0156 48.207 63.0794 48.207 64.3887C48.207 65.698 49.2839 66.7617 50.6094 66.7617C51.9348 66.7617 53.0117 65.698 53.0117 64.3887C53.0117 63.0794 51.9348 62.0156 50.6094 62.0156Z" fill="#56C8D1"/>
<path d="M74.793 28.6348H7.20703C3.23291 28.6348 0 31.8283 0 35.7539V73.8809C0 77.8065 3.23291 81 7.20703 81H74.793C78.7671 81 82 77.8065 82 73.8809V35.7539C82 31.8283 78.7671 28.6348 74.793 28.6348ZM24.1836 45.4043C24.1836 41.4786 27.4165 38.2852 31.3906 38.2852C35.3647 38.2852 38.5977 41.4786 38.5977 45.4043C38.5977 49.3299 35.3647 52.5234 31.3906 52.5234C27.4165 52.5234 24.1836 49.3299 24.1836 45.4043ZM30.058 71.1093C28.953 70.3816 28.655 68.9101 29.3917 67.8185L48.6105 39.342C49.3425 38.2504 50.8323 37.9537 51.9419 38.6838C53.0468 39.4116 53.3448 40.883 52.6081 41.9746L33.3894 70.4512C32.6647 71.5265 31.1805 71.8443 30.058 71.1093ZM50.6094 71.5078C46.6353 71.5078 43.4023 68.3143 43.4023 64.3887C43.4023 60.463 46.6353 57.2695 50.6094 57.2695C54.5835 57.2695 57.8164 60.463 57.8164 64.3887C57.8164 68.3143 54.5835 71.5078 50.6094 71.5078Z" fill="#56C8D1"/>
<path d="M47.4843 10.1691C47.9339 9.24096 48.2066 8.21501 48.2066 7.11914C48.2066 3.19349 44.9737 0 40.9996 0C37.0255 0 33.7926 3.19349 33.7926 7.11914C33.7926 8.21501 34.0653 9.24096 34.5149 10.1691L20.7861 23.8887H27.5803L37.912 13.5248C38.8516 13.9689 39.8902 14.2383 40.9996 14.2383C42.109 14.2383 43.1476 13.9689 44.0873 13.5248L54.4189 23.8887H61.2131L47.4843 10.1691Z" fill="#56C8D1"/>
</g>
<defs>
<clipPath id="clip0_10743_13454">
<rect width="82" height="81" fill="white"/>
</clipPath>
</defs>
</svg>
