<svg width="81" height="81" viewBox="0 0 81 81" fill="none" xmlns="http://www.w3.org/2000/svg">
<g clip-path="url(#clip0_10743_13467)">
<path d="M52.3129 3.375C44.3142 3.375 37.0748 6.67238 31.8672 11.9745C48.9919 13.581 62.4379 28.026 62.4379 45.5625C62.4379 50.6858 61.2567 55.5255 59.2081 59.8793C71.7023 56.7776 81.0004 45.5018 81.0004 32.0625C81.0004 16.2439 68.1316 3.375 52.3129 3.375Z" fill="#56C8D1"/>
<path d="M28.6875 16.875C12.8689 16.875 0 29.7439 0 45.5625C0 61.3811 12.8689 74.25 28.6875 74.25C44.5061 74.25 57.375 61.3811 57.375 45.5625C57.375 29.7439 44.5061 16.875 28.6875 16.875ZM27.405 43.0313H29.97C33.9154 43.0313 37.125 46.2409 37.125 50.1863C37.125 53.7334 34.5668 56.6528 31.2188 57.2468V59.9029C31.2188 61.3001 30.0848 62.4341 28.6875 62.4341C27.2903 62.4341 26.1563 61.3001 26.1563 59.9029V57.375H22.7813C21.384 57.375 20.25 56.241 20.25 54.8438C20.25 53.4465 21.384 52.3125 22.7813 52.3125H29.97C31.1243 52.3125 32.0625 51.3743 32.0625 50.22C32.0625 49.032 31.1243 48.0938 29.97 48.0938H27.405C23.4596 48.0938 20.25 44.8841 20.25 40.9388C20.25 37.3916 22.8083 34.4723 26.1563 33.8783V31.2188C26.1563 29.8215 27.2903 28.6875 28.6875 28.6875C30.0848 28.6875 31.2188 29.8215 31.2188 31.2188V33.75H34.5938C35.991 33.75 37.125 34.884 37.125 36.2813C37.125 37.6785 35.991 38.8125 34.5938 38.8125H27.405C26.2508 38.8125 25.3125 39.7508 25.3125 40.905C25.3125 42.093 26.2508 43.0313 27.405 43.0313Z" fill="#56C8D1"/>
<path d="M27.405 43.0313H29.97C33.9154 43.0313 37.125 46.2409 37.125 50.1863C37.125 53.7334 34.5668 56.6528 31.2188 57.2468V59.9029C31.2188 61.3001 30.0848 62.4341 28.6875 62.4341C27.2903 62.4341 26.1563 61.3001 26.1563 59.9029V57.375H22.7813C21.384 57.375 20.25 56.241 20.25 54.8438C20.25 53.4465 21.384 52.3125 22.7813 52.3125H29.97C31.1243 52.3125 32.0625 51.3743 32.0625 50.22C32.0625 49.032 31.1243 48.0938 29.97 48.0938H27.405C23.4596 48.0938 20.25 44.8841 20.25 40.9388C20.25 37.3916 22.8083 34.4723 26.1563 33.8783V31.2188C26.1563 29.8215 27.2903 28.6875 28.6875 28.6875C30.0848 28.6875 31.2188 29.8215 31.2188 31.2188V33.75H34.5938C35.991 33.75 37.125 34.884 37.125 36.2813C37.125 37.6785 35.991 38.8125 34.5938 38.8125H27.405C26.2508 38.8125 25.3125 39.7508 25.3125 40.905C25.3125 42.093 26.2508 43.0313 27.405 43.0313Z" fill="#56C8D1"/>
</g>
<defs>
<clipPath id="clip0_10743_13467">
<rect width="81" height="81" fill="white"/>
</clipPath>
</defs>
</svg>
