<svg width="18" height="18" viewBox="0 0 18 18" fill="none" xmlns="http://www.w3.org/2000/svg">
<path fill-rule="evenodd" clip-rule="evenodd" d="M15.364 2.63618C14.8619 2.13408 14.0478 2.13408 13.5457 2.63618L9 7.18186L4.45431 2.63618C3.95221 2.13407 3.13814 2.13407 2.63604 2.63618C2.13394 3.13828 2.13394 3.95235 2.63604 4.45445L7.18173 9.00014L2.63604 13.5458C2.13394 14.0479 2.13394 14.862 2.63604 15.3641C3.13814 15.8662 3.95221 15.8662 4.45431 15.3641L9 10.8184L13.5457 15.3641C14.0478 15.8662 14.8619 15.8662 15.364 15.3641C15.8661 14.862 15.8661 14.0479 15.364 13.5458L10.8183 9.00014L15.364 4.45445C15.8661 3.95235 15.8661 3.13828 15.364 2.63618Z" fill="white"/>
</svg>
