<svg width="16" height="17" viewBox="0 0 16 17" fill="none" xmlns="http://www.w3.org/2000/svg">
<path d="M0.98002 4.10699C1.15896 3.82068 1.40748 3.58433 1.7024 3.41996C1.99732 3.2556 2.32906 3.16857 2.66669 3.16699H13.3334C13.671 3.16857 14.0027 3.2556 14.2976 3.41996C14.5926 3.58433 14.8411 3.82068 15.02 4.10699L8.00002 9.02032L0.98002 4.10699ZM15.3334 5.51366L10.7334 8.73366L15.1334 12.687C15.2645 12.4216 15.3329 12.1297 15.3334 11.8337V5.51366ZM0.666687 5.51366V11.8337C0.667149 12.1297 0.735574 12.4216 0.866687 12.687L5.26669 8.73366L0.666687 5.51366ZM9.61335 9.51366L8.38002 10.3737C8.26842 10.4511 8.13584 10.4926 8.00002 10.4926C7.8642 10.4926 7.73162 10.4511 7.62002 10.3737L6.38669 9.52032L1.81335 13.6337C2.07874 13.7648 2.37068 13.8332 2.66669 13.8337H13.3334C13.6313 13.8319 13.9252 13.7636 14.1934 13.6337L9.61335 9.51366Z" fill="#56C8D1"/>
</svg>
