<svg width="16" height="17" viewBox="0 0 16 17" fill="none" xmlns="http://www.w3.org/2000/svg">
<path d="M7.99965 8.4072L14.5042 4.85927C14.2973 4.17863 13.8777 3.58223 13.307 3.1576C12.7362 2.73298 12.0444 2.5025 11.333 2.5H4.66632C3.95494 2.5025 3.2631 2.73298 2.69234 3.1576C2.12159 3.58223 1.70198 4.17863 1.49512 4.85927L7.99965 8.4072Z" fill="#56C8D1"/>
<path d="M8.31901 9.75224C8.22104 9.80564 8.11125 9.83362 7.99967 9.83362C7.8881 9.83362 7.77831 9.80564 7.68034 9.75224L1.33301 6.29004V11.167C1.33405 12.0507 1.68557 12.898 2.31047 13.5228C2.93536 14.1477 3.78261 14.4993 4.66634 14.5003H11.333C12.2167 14.4993 13.064 14.1477 13.6889 13.5228C14.3138 12.898 14.6653 12.0507 14.6663 11.167V6.29004L8.31901 9.75224Z" fill="#56C8D1"/>
</svg>
