<svg width="521" height="521" viewBox="0 0 521 521" fill="none" xmlns="http://www.w3.org/2000/svg">
<g opacity="0.1">
<path d="M0 256.272C141.621 256.272 256.477 141.508 256.477 0H264.695C264.695 146.141 146.257 264.695 0 264.695V256.483V256.272Z" fill="url(#paint0_linear_10814_25821)"/>
<path d="M0 280.296C154.806 280.296 280.508 154.806 280.508 0H290.631C290.631 160.501 160.501 290.631 0 290.631V280.296Z" fill="url(#paint1_linear_10814_25821)"/>
<path d="M0 305.31C168.751 305.31 305.31 168.541 305.31 0H319.618C319.618 176.537 176.537 319.618 0 319.618V305.31V305.31Z" fill="url(#paint2_linear_10814_25821)"/>
<path d="M0.209259 334.857C185.306 334.857 335.068 184.887 335.068 0H355.47C355.47 196.245 196.245 355.47 0 355.47V335.067L0.209259 334.857Z" fill="url(#paint3_linear_10814_25821)"/>
<path d="M0 371.087C205.013 371.087 371.086 205.013 371.086 0H399.713C399.713 220.8 220.799 399.713 0 399.713V371.087Z" fill="url(#paint4_linear_10814_25821)"/>
<path d="M0 415.642C229.531 415.642 415.643 229.531 415.643 0H454.635C454.635 251.03 251.029 454.635 0 454.635V415.642V415.642Z" fill="url(#paint5_linear_10814_25821)"/>
<path d="M0 469.806C259.552 469.806 469.806 259.341 469.806 0H521C521 287.783 287.571 521 0 521V469.806V469.806Z" fill="url(#paint6_linear_10814_25821)"/>
</g>
<defs>
<linearGradient id="paint0_linear_10814_25821" x1="132.348" y1="-3.13422e-06" x2="27.1808" y2="250.724" gradientUnits="userSpaceOnUse">
<stop stop-color="#E4E4E4"/>
<stop offset="1" stop-color="#D6D6D6" stop-opacity="0"/>
</linearGradient>
<linearGradient id="paint1_linear_10814_25821" x1="145.316" y1="-3.44132e-06" x2="29.8441" y2="275.291" gradientUnits="userSpaceOnUse">
<stop stop-color="#E4E4E4"/>
<stop offset="1" stop-color="#D6D6D6" stop-opacity="0"/>
</linearGradient>
<linearGradient id="paint2_linear_10814_25821" x1="159.809" y1="-3.78455e-06" x2="32.8206" y2="302.747" gradientUnits="userSpaceOnUse">
<stop stop-color="#E4E4E4"/>
<stop offset="1" stop-color="#D6D6D6" stop-opacity="0"/>
</linearGradient>
<linearGradient id="paint3_linear_10814_25821" x1="177.735" y1="-4.20907e-06" x2="36.5022" y2="336.707" gradientUnits="userSpaceOnUse">
<stop stop-color="#E4E4E4"/>
<stop offset="1" stop-color="#D6D6D6" stop-opacity="0"/>
</linearGradient>
<linearGradient id="paint4_linear_10814_25821" x1="199.857" y1="-4.73294e-06" x2="41.0454" y2="378.615" gradientUnits="userSpaceOnUse">
<stop stop-color="#E4E4E4"/>
<stop offset="1" stop-color="#D6D6D6" stop-opacity="0"/>
</linearGradient>
<linearGradient id="paint5_linear_10814_25821" x1="227.318" y1="-5.38327e-06" x2="46.6852" y2="430.638" gradientUnits="userSpaceOnUse">
<stop stop-color="#E4E4E4"/>
<stop offset="1" stop-color="#D6D6D6" stop-opacity="0"/>
</linearGradient>
<linearGradient id="paint6_linear_10814_25821" x1="260.5" y1="-6.16908e-06" x2="53.5" y2="493.5" gradientUnits="userSpaceOnUse">
<stop stop-color="#E4E4E4"/>
<stop offset="1" stop-color="#D6D6D6" stop-opacity="0"/>
</linearGradient>
</defs>
</svg>
