<svg width="41" height="40" viewBox="0 0 41 40" fill="none" xmlns="http://www.w3.org/2000/svg">
<path fill-rule="evenodd" clip-rule="evenodd" d="M20.333 40C31.3787 40 40.333 31.0457 40.333 20C40.333 8.9543 31.3787 0 20.333 0C9.28731 0 0.333008 8.9543 0.333008 20C0.333008 31.0457 9.28731 40 20.333 40ZM12.7882 21.7479L7.41176 19.7412C6.86568 19.5366 6.86094 18.7657 7.40546 18.5557L29.4706 10.0436C29.9384 9.86267 30.421 10.2725 30.3192 10.7637L26.3594 29.8108C26.2661 30.2605 25.7388 30.4644 25.3667 30.1939L19.9613 26.2695C19.633 26.0312 19.1855 26.0439 18.8714 26.2999L15.8744 28.7431C15.5265 29.0275 15.0024 28.8691 14.8692 28.4404L12.7882 21.7479ZM25.0415 14.208L14.5339 20.6797C14.1311 20.9283 13.9415 21.4146 14.0716 21.8699L15.2077 25.8619C15.2884 26.1447 15.699 26.1157 15.7381 25.8234L16.0335 23.6343C16.0892 23.2222 16.2858 22.8424 16.5906 22.5587L25.2624 14.4978C25.4246 14.3474 25.2303 14.0921 25.0415 14.208Z" fill="white"/>
</svg>
