<svg width="40" height="41" viewBox="0 0 40 41" fill="none" xmlns="http://www.w3.org/2000/svg">
<g clip-path="url(#clip0_10743_14856)">
<path d="M10 0.5C8.625 0.5 7.5 1.625 7.5 3V38C7.5 39.375 8.625 40.5 10 40.5H35C36.375 40.5 37.5 39.375 37.5 38V10.5L27.5 0.5H10Z" fill="#E2E5E7"/>
<path d="M30 10.5H37.5L27.5 0.5V8C27.5 9.375 28.625 10.5 30 10.5Z" fill="#B0B7BD"/>
<path d="M37.5 18L30 10.5H37.5V18Z" fill="#CAD1D8"/>
<path d="M32.5 33C32.5 33.6875 31.9375 34.25 31.25 34.25H3.75C3.0625 34.25 2.5 33.6875 2.5 33V20.5C2.5 19.8125 3.0625 19.25 3.75 19.25H31.25C31.9375 19.25 32.5 19.8125 32.5 20.5V33Z" fill="#50BEE8"/>
<path d="M7.23297 30.5002C6.90297 30.5002 6.54297 30.319 6.54297 29.8802V24.204C6.54297 23.844 6.90297 23.584 7.23297 23.584H9.52172C14.0892 23.584 13.988 30.5002 9.61047 30.5002H7.23297ZM7.86297 24.8027V29.2802H9.52172C12.2205 29.2802 12.3392 24.8027 9.52172 24.8027H7.86297Z" fill="white"/>
<path d="M17.8127 30.6002C15.9639 30.6802 14.0439 29.4502 14.0439 27.0015C14.0439 24.5427 15.9627 23.334 17.8127 23.334C19.5614 23.4227 21.3902 24.6327 21.3902 27.0015C21.3902 29.3715 19.5614 30.6002 17.8127 30.6002ZM17.7027 24.634C16.5827 24.634 15.3639 25.424 15.3639 27.0027C15.3639 28.5727 16.5839 29.3727 17.7027 29.3727C18.8527 29.3727 20.0814 28.5727 20.0814 27.0027C20.0814 25.4227 18.8527 24.634 17.7027 24.634Z" fill="white"/>
<path d="M22.5664 26.9918C22.5664 25.063 23.7764 23.4043 26.0752 23.4043C26.9452 23.4043 27.6352 23.6643 28.3639 24.2943C28.6339 24.543 28.6639 24.983 28.3939 25.263C28.1239 25.5018 27.7139 25.473 27.4739 25.233C27.0652 24.803 26.6452 24.6843 26.0752 24.6843C24.5364 24.6843 23.7977 25.7743 23.7977 26.993C23.7977 28.233 24.5264 29.3718 26.0752 29.3718C26.6452 29.3718 27.1752 29.1405 27.6352 28.7318C27.9439 28.4918 28.3739 28.6105 28.5539 28.8518C28.7139 29.0718 28.7927 29.4418 28.4439 29.7905C27.7439 30.4418 26.9052 30.5718 26.0739 30.5718C23.6564 30.5718 22.5664 28.9205 22.5664 26.9918Z" fill="white"/>
<path d="M31.25 34.25H7.5V35.5H31.25C31.9375 35.5 32.5 34.9375 32.5 34.25V33C32.5 33.6875 31.9375 34.25 31.25 34.25Z" fill="#CAD1D8"/>
</g>
<defs>
<clipPath id="clip0_10743_14856">
<rect width="40" height="40" fill="white" transform="translate(0 0.5)"/>
</clipPath>
</defs>
</svg>
