<svg width="40" height="41" viewBox="0 0 40 41" fill="none" xmlns="http://www.w3.org/2000/svg">
<g clip-path="url(#clip0_10831_18884)">
<path d="M10 0.5C8.625 0.5 7.5 1.625 7.5 3V38C7.5 39.375 8.625 40.5 10 40.5H35C36.375 40.5 37.5 39.375 37.5 38V10.5L27.5 0.5H10Z" fill="#E2E5E7"/>
<path d="M30 10.5H37.5L27.5 0.5V8C27.5 9.375 28.625 10.5 30 10.5Z" fill="#B0B7BD"/>
<path d="M37.5 18L30 10.5H37.5V18Z" fill="#CAD1D8"/>
<path d="M32.5 33C32.5 33.6875 31.9375 34.25 31.25 34.25H3.75C3.0625 34.25 2.5 33.6875 2.5 33V20.5C2.5 19.8125 3.0625 19.25 3.75 19.25H31.25C31.9375 19.25 32.5 19.8125 32.5 20.5V33Z" fill="#F15642"/>
<path d="M7.94922 24.1841C7.94922 23.8541 8.20922 23.4941 8.62797 23.4941H10.9367C12.2367 23.4941 13.4067 24.3641 13.4067 26.0316C13.4067 27.6116 12.2367 28.4916 10.9367 28.4916H9.26797V29.8116C9.26797 30.2516 8.98797 30.5004 8.62797 30.5004C8.29797 30.5004 7.94922 30.2516 7.94922 29.8116V24.1841ZM9.26797 24.7529V27.2429H10.9367C11.6067 27.2429 12.1367 26.6516 12.1367 26.0316C12.1367 25.3329 11.6067 24.7529 10.9367 24.7529H9.26797Z" fill="white"/>
<path d="M15.3638 30.5002C15.0338 30.5002 14.6738 30.3202 14.6738 29.8815V24.204C14.6738 23.8452 15.0338 23.584 15.3638 23.584H17.6526C22.2201 23.584 22.1201 30.5002 17.7426 30.5002H15.3638ZM15.9938 24.804V29.2815H17.6526C20.3513 29.2815 20.4713 24.804 17.6526 24.804H15.9938Z" fill="white"/>
<path d="M23.7401 24.8843V26.473H26.2889C26.6489 26.473 27.0089 26.833 27.0089 27.1818C27.0089 27.5118 26.6489 27.7818 26.2889 27.7818H23.7401V29.8805C23.7401 30.2305 23.4914 30.4993 23.1414 30.4993C22.7014 30.4993 22.4326 30.2305 22.4326 29.8805V24.203C22.4326 23.8443 22.7026 23.583 23.1414 23.583H26.6501C27.0901 23.583 27.3501 23.8443 27.3501 24.203C27.3501 24.523 27.0901 24.883 26.6501 24.883H23.7401V24.8843Z" fill="white"/>
<path d="M31.25 34.25H7.5V35.5H31.25C31.9375 35.5 32.5 34.9375 32.5 34.25V33C32.5 33.6875 31.9375 34.25 31.25 34.25Z" fill="#CAD1D8"/>
</g>
<defs>
<clipPath id="clip0_10831_18884">
<rect width="40" height="40" fill="white" transform="translate(0 0.5)"/>
</clipPath>
</defs>
</svg>
