<svg width="20" height="21" viewBox="0 0 20 21" fill="none" xmlns="http://www.w3.org/2000/svg">
<path d="M18.7409 9.30683C18.4401 9.15702 18.1223 8.82315 18.3333 7.56108C18.5312 6.37714 18.1646 6.13491 17.6648 5.94128C17.6356 5.92999 17.6062 5.91858 17.5766 5.90659C17.5417 5.89241 17.535 5.8369 17.5454 5.64847C17.5601 5.37944 17.5876 4.87862 16.9074 4.78725C16.5743 4.74257 16.3504 4.79261 16.223 4.9405C16.0519 5.13921 16.13 5.40882 16.1871 5.60569C16.2012 5.64971 16.2125 5.69455 16.2211 5.73995C16.2287 5.80054 16.2109 5.84225 16.1697 5.93085C16.0902 6.08469 16.0487 6.25533 16.0486 6.4285C16.0486 6.69413 15.9995 6.78561 15.4785 7.15218C15.3326 7.24871 15.1782 7.3318 15.0172 7.40042C14.6431 7.57311 14.2191 7.76886 14.1529 8.37561C14.0987 8.87229 13.798 9.21882 13.699 9.23616C13.6876 9.22192 13.6785 9.20599 13.6719 9.18893C13.6016 9.02175 13.4923 8.90964 13.3471 8.85565C13.0464 8.74378 12.6964 8.91764 12.3578 9.08569C12.3133 9.1078 12.2691 9.12975 12.2256 9.15065C11.9474 9.28456 11.6397 9.34464 11.4826 9.34597C11.5153 9.29327 11.5589 9.23718 11.6015 9.18222C11.7343 9.0112 11.9349 8.75253 11.7539 8.50007C11.5677 8.2405 11.3526 8.33636 11.1953 8.40632C11.0623 8.46938 10.9223 8.51641 10.7783 8.54643C10.4267 8.61858 10.2768 8.80577 10.1673 8.94245C10.0832 9.04745 10.0454 9.0905 9.95405 9.1019C9.57644 9.14897 9.59206 9.52741 9.60046 9.73081C9.6048 9.83655 9.61136 9.99643 9.5671 10.0286C9.40206 10.1491 9.22909 10.3899 9.23941 10.6341C9.24033 10.6575 9.23555 10.6807 9.22547 10.7018C9.2154 10.7229 9.20034 10.7412 9.18159 10.7552C9.16548 10.7678 9.14648 10.7761 9.12633 10.7795C9.10617 10.7829 9.08548 10.7813 9.06612 10.7747C9.00195 10.7528 8.99163 10.7274 8.99163 10.6749C8.98912 10.6084 8.99211 10.5417 9.00058 10.4757C9.00597 10.4705 9.01425 10.4631 9.02128 10.4568C9.11826 10.3713 9.20223 10.272 9.27054 10.1623C9.60917 9.646 9.27511 9.22261 9.26066 9.20483C9.23516 9.17329 9.20047 9.15049 9.1614 9.1396C8.8821 9.06147 8.72089 9.30163 8.59136 9.49444C8.4357 9.72616 8.25933 9.98882 7.87308 10.0304C7.33597 10.0883 7.28659 10.0364 7.21199 9.95784C7.10046 9.83355 6.95868 9.74021 6.80042 9.6869C6.44964 9.55581 5.85206 9.65983 5.27417 9.76038C4.97245 9.81288 4.51636 9.89225 4.41577 9.85206C4.41425 9.85147 4.41327 9.85097 4.41288 9.85085C4.40898 9.8435 4.37327 9.76015 4.47034 9.49686C4.47201 9.49222 4.47469 9.48802 4.4782 9.48456C4.48171 9.48109 4.48596 9.47847 4.49062 9.47686C4.49613 9.47475 4.50203 9.47388 4.50792 9.47429C4.5138 9.47471 4.51953 9.47642 4.52468 9.47929C4.76085 9.60718 5.00038 9.61456 5.21726 9.50057C5.41855 9.39472 5.52363 9.17944 5.49816 8.9246C5.4648 8.58972 5.1932 8.181 4.73878 8.04776C4.35425 7.93507 4.12093 8.23136 3.89558 8.518C3.63281 8.85225 3.33499 9.23108 2.71245 9.33171C2.50795 9.36147 2.31209 9.43431 2.13784 9.54542C1.9636 9.65653 1.81493 9.80338 1.70167 9.97624C1.27156 10.6109 1.238 11.6083 1.39566 12.3152C1.49062 12.7412 1.42062 12.9016 1.38613 12.9507C1.37296 12.9718 1.35276 12.9876 1.32909 12.9953C1.21386 12.9883 0.762961 12.9823 0.545696 13.2815C0.404094 13.4765 0.401477 13.7377 0.537883 14.0578C1.10636 15.3913 1.49429 16.0061 1.83476 16.1134C1.88528 16.1306 1.93899 16.1362 1.99198 16.13C2.04497 16.1238 2.09591 16.1058 2.14109 16.0775C2.28753 15.9862 2.36109 15.7775 2.5007 15.3516C2.66866 14.8383 2.92296 14.0628 3.36007 13.9336C3.57882 13.8691 3.8546 13.9663 4.17945 14.2229C4.38624 14.5461 4.76261 15.0442 5.08902 14.9823C5.32609 14.9373 5.40609 14.7191 5.46448 14.5599C5.50488 14.4496 5.54308 14.3455 5.60964 14.3138C5.70089 14.2685 5.78618 14.2121 5.86355 14.1458C5.8921 14.1198 5.9238 14.0975 5.95792 14.0794C5.98435 14.0841 6.00931 14.0949 6.03081 14.1109C6.06206 14.1298 6.09038 14.1474 6.11706 14.164C6.35925 14.314 6.48339 14.3823 6.88624 14.4282C6.9707 14.4378 7.0012 14.4804 7.06948 14.6326C7.13616 14.7814 7.26042 15.0582 7.62148 14.9947C7.86265 14.9523 7.92882 15.049 8.12148 15.3909L8.15773 15.455C8.44847 15.9664 8.92788 16.2241 9.58609 16.2241C9.7266 16.2235 9.8669 16.213 10.0059 16.1926C10.6062 16.1071 10.8292 15.9579 10.9625 15.8687C11.0479 15.8116 11.0479 15.8116 11.1373 15.8367C11.3743 15.9032 11.565 15.803 11.7183 15.7226C11.9025 15.626 12.0243 15.5623 12.2403 15.6944C12.6085 15.9196 12.8645 15.8201 13.0703 15.7402C13.2322 15.6773 13.3721 15.623 13.6049 15.681C14.0408 15.7896 14.2221 15.6492 14.3817 15.5253C14.5213 15.4037 14.6953 15.3285 14.8795 15.3102C15.3912 15.2399 15.4027 14.7882 15.4102 14.4893C15.4195 14.1255 15.4515 14.0585 15.624 14.0416C15.9319 14.0115 15.9876 14.0891 16.0721 14.2067C16.1532 14.3194 16.2757 14.4899 16.5753 14.4899C16.7117 14.4899 17.1268 14.4899 17.2781 14.663C17.3383 14.7319 17.3585 14.8322 17.3399 14.9696C17.3041 15.2345 17.3351 15.4585 17.4318 15.6352C17.479 15.7202 17.5503 15.7894 17.6367 15.834C17.7232 15.8786 17.8209 15.8966 17.9175 15.8858C18.0142 15.8749 18.1055 15.8357 18.1799 15.773C18.2543 15.7103 18.3084 15.627 18.3355 15.5336C18.7413 14.1302 18.5183 13.5858 18.3027 13.0593C18.2294 12.8926 18.1695 12.7203 18.1236 12.5441C18.0747 12.3404 18.0464 12.2305 17.9851 12.1546C17.8774 12.0208 17.7293 12.0514 17.6408 12.0696C17.5235 12.0964 17.4026 12.1042 17.2828 12.0928C17.2614 12.0925 17.2404 12.087 17.2216 12.0768C17.2029 12.0665 17.1868 12.0519 17.1749 12.0342C17.0538 11.8655 17.0963 11.4014 17.165 11.1258C17.1745 11.0957 17.1747 11.0634 17.1657 11.0331C17.1618 11.0057 17.1388 10.7763 17.3676 10.3802C17.5306 10.098 17.5481 9.76452 17.5609 9.52104C17.5626 9.48792 17.5648 9.45015 17.5671 9.41429C17.6603 9.50331 17.7351 9.64054 17.8299 9.81425C17.9341 10.0146 18.0533 10.2067 18.1868 10.3889C18.5128 10.8225 18.9401 11.1292 19.2258 11.1353C19.2784 11.1381 19.3308 11.1287 19.3792 11.1079C19.4275 11.0871 19.4704 11.0554 19.5045 11.0153C19.5826 10.92 19.5986 10.7704 19.5532 10.5578C19.469 10.1649 19.1614 9.51643 18.7409 9.30683Z" fill="#56C8D1"/>
</svg>
