<svg width="20" height="21" viewBox="0 0 20 21" fill="none" xmlns="http://www.w3.org/2000/svg">
<g clip-path="url(#clip0_11789_38463)">
<path d="M7.65625 11.125C7.33297 11.125 7.07031 11.3877 7.07031 11.7109C7.07031 12.0342 7.33297 12.2969 7.65625 12.2969C7.97953 12.2969 8.24219 12.0342 8.24219 11.7109C8.24219 11.3877 7.97953 11.125 7.65625 11.125Z" fill="#56C8D1"/>
<path d="M12.3438 15.8125C12.0205 15.8125 11.7578 16.0752 11.7578 16.3984C11.7578 16.7217 12.0205 16.9844 12.3438 16.9844C12.667 16.9844 12.9297 16.7217 12.9297 16.3984C12.9297 16.0752 12.667 15.8125 12.3438 15.8125Z" fill="#56C8D1"/>
<path d="M18.2422 7.57031H1.75781C0.788516 7.57031 0 8.35883 0 9.32812V18.7422C0 19.7115 0.788516 20.5 1.75781 20.5H18.2422C19.2115 20.5 20 19.7115 20 18.7422V9.32812C20 8.35883 19.2115 7.57031 18.2422 7.57031ZM5.89844 11.7109C5.89844 10.7416 6.68695 9.95312 7.65625 9.95312C8.62555 9.95312 9.41406 10.7416 9.41406 11.7109C9.41406 12.6802 8.62555 13.4688 7.65625 13.4688C6.68695 13.4688 5.89844 12.6802 5.89844 11.7109ZM7.33121 18.0579C7.06172 17.8782 6.98902 17.5148 7.16871 17.2453L11.8562 10.2141C12.0348 9.94453 12.3981 9.87129 12.6688 10.0516C12.9382 10.2313 13.0109 10.5946 12.8313 10.8641L8.14375 17.8954C7.96699 18.1609 7.605 18.2393 7.33121 18.0579ZM12.3438 18.1562C11.3745 18.1562 10.5859 17.3677 10.5859 16.3984C10.5859 15.4291 11.3745 14.6406 12.3438 14.6406C13.313 14.6406 14.1016 15.4291 14.1016 16.3984C14.1016 17.3677 13.313 18.1562 12.3438 18.1562Z" fill="#56C8D1"/>
<path d="M11.5821 3.0109C11.6917 2.78172 11.7582 2.5284 11.7582 2.25781C11.7582 1.28852 10.9697 0.5 10.0004 0.5C9.03113 0.5 8.24262 1.28852 8.24262 2.25781C8.24262 2.5284 8.30914 2.78172 8.41879 3.0109L5.07031 6.39844H6.72742L9.24734 3.83945C9.47652 3.9491 9.72984 4.01563 10.0004 4.01563C10.271 4.01563 10.5243 3.9491 10.7535 3.83945L13.2734 6.39844H14.9305L11.5821 3.0109Z" fill="#56C8D1"/>
</g>
<defs>
<clipPath id="clip0_11789_38463">
<rect width="20" height="20" fill="white" transform="translate(0 0.5)"/>
</clipPath>
</defs>
</svg>
