<svg width="20" height="21" viewBox="0 0 20 21" fill="none" xmlns="http://www.w3.org/2000/svg">
<g clip-path="url(#clip0_11789_38456)">
<path d="M13.2008 14.5165L14.1154 13.0324L15.7659 12.4695L15.9487 10.7361L17.1905 9.51359L16.6001 7.87274L17.1905 6.23184L15.9487 5.00938L15.7659 3.27594L14.1154 2.71305L13.2009 1.22895L11.471 1.43781L10.0015 0.5L8.53199 1.43789L6.80215 1.22902L5.88758 2.71309L4.23711 3.27598L4.05426 5.00941L2.8125 6.23188L3.40289 7.87277L2.8125 9.51367L4.05422 10.7361L4.23707 12.4696L5.88754 13.0325L6.80211 14.5165L8.53199 14.3077L10.0015 15.2455L11.471 14.3077L13.2008 14.5165ZM4.94566 7.87277C4.94566 5.085 7.21371 2.81695 10.0015 2.81695C12.7893 2.81695 15.0573 5.085 15.0573 7.87277C15.0573 10.6605 12.7893 12.9286 10.0015 12.9286C7.21371 12.9286 4.94566 10.6605 4.94566 7.87277Z" fill="#56C8D1"/>
<path d="M10.0004 3.99023C7.85918 3.99023 6.11719 5.73223 6.11719 7.87344C6.11719 10.0146 7.85918 11.7566 10.0004 11.7566C12.1416 11.7566 13.8836 10.0146 13.8836 7.87344C13.8836 5.73223 12.1416 3.99023 10.0004 3.99023Z" fill="#56C8D1"/>
<path d="M8.25344 15.5228L6.19563 15.7712L5.1084 14.0069L4.73879 13.8809L3.14453 18.8639L6.01465 18.7061L8.26016 20.5006L9.58156 16.3704L8.25344 15.5228Z" fill="#56C8D1"/>
<path d="M14.8911 14.0069L13.8039 15.7712L11.7461 15.5228L10.418 16.3704L11.7394 20.5006L13.9849 18.7061L16.855 18.8639L15.2607 13.8809L14.8911 14.0069Z" fill="#56C8D1"/>
</g>
<defs>
<clipPath id="clip0_11789_38456">
<rect width="20" height="20" fill="white" transform="translate(0 0.5)"/>
</clipPath>
</defs>
</svg>
