<svg width="20" height="21" viewBox="0 0 20 21" fill="none" xmlns="http://www.w3.org/2000/svg">
<path d="M18.3706 15.1C17.8244 14.6419 14.6206 12.6131 14.0881 12.7063C13.8381 12.7506 13.6469 12.9638 13.135 13.5744C12.8983 13.8749 12.6383 14.1564 12.3575 14.4163C11.843 14.292 11.345 14.1074 10.8738 13.8663C9.0258 12.9666 7.53289 11.4732 6.63375 9.625C6.39265 9.15379 6.20804 8.65576 6.08375 8.14125C6.34358 7.86044 6.62507 7.60047 6.92563 7.36375C7.53562 6.85188 7.74938 6.66187 7.79375 6.41062C7.88688 5.87687 5.85625 2.67437 5.4 2.12813C5.20875 1.90188 5.035 1.75 4.8125 1.75C4.1675 1.75 1.25 5.3575 1.25 5.825C1.25 5.86313 1.3125 9.61875 6.05562 14.4444C10.8813 19.1875 14.6369 19.25 14.675 19.25C15.1425 19.25 18.75 16.3325 18.75 15.6875C18.75 15.465 18.5981 15.2913 18.3706 15.1Z" fill="#56C8D1"/>
<path d="M14.375 9.875H15.625C15.6235 8.54937 15.0962 7.27847 14.1589 6.34111C13.2215 5.40375 11.9506 4.87649 10.625 4.875V6.125C11.6193 6.12599 12.5725 6.5214 13.2756 7.22445C13.9786 7.92749 14.374 8.88074 14.375 9.875Z" fill="#56C8D1"/>
<path d="M17.5 9.875H18.75C18.7475 7.72088 17.8907 5.65569 16.3675 4.1325C14.8443 2.6093 12.7791 1.75248 10.625 1.75V3C12.4477 3.00215 14.1951 3.72717 15.484 5.01602C16.7728 6.30486 17.4978 8.0523 17.5 9.875Z" fill="#56C8D1"/>
</svg>
