<svg width="103" height="72" viewBox="0 0 103 72" fill="none" xmlns="http://www.w3.org/2000/svg">
<path d="M100 62.501C100 63.6773 99.7704 64.494 99.1951 65.087C98.735 65.6703 97.9201 65.9036 96.8847 65.9036H93.8744V59.0984H96.6546C98.85 59.0984 100.01 60.2747 100.01 62.501M99.4348 54.1791C99.4348 54.9957 99.3197 55.5888 99.0896 56.0554C98.8596 56.5221 98.5145 56.8818 98.0543 56.9985C97.5941 57.2318 97.0094 57.3582 96.3191 57.3582H93.8936V51.2529H96.5492C98.5145 51.2529 99.4444 52.1959 99.4444 54.1888M101.525 54.0722C101.525 53.1292 101.41 52.3125 101.065 51.6126C100.71 50.9126 100.135 50.4362 99.3293 50.0862C98.6391 49.7363 97.7092 49.5029 96.5492 49.5029H91.8037V67.7994H96.8943C98.5145 67.7994 99.7799 67.3327 100.71 66.5064C101.64 65.5634 102.1 64.2801 102.1 62.5204C102.1 61.6941 101.985 60.9941 101.64 60.4108C101.285 59.7011 100.94 59.1178 100.48 58.7775C100.02 58.4178 99.5594 58.1748 98.9746 58.0776C99.7799 57.8345 100.48 57.3776 100.825 56.6679C101.285 55.9679 101.525 55.1416 101.525 54.0916" fill="white"/>
<path d="M79.0719 54.4127C79.302 53.3531 79.6567 52.5364 80.2319 51.9531C80.8071 51.2434 81.6221 50.8934 82.5424 50.8934C83.3573 50.8934 83.9325 51.1268 84.5077 51.4767C85.0829 51.8267 85.428 52.4198 85.7827 53.0031C86.0223 53.703 86.2429 54.5294 86.3579 55.346C86.4729 56.1627 86.4729 57.2223 86.4729 58.282C86.4729 59.682 86.4729 60.8583 86.3579 61.9082C86.2429 62.8415 86.1278 63.6679 85.7827 64.3679C85.5526 64.9512 85.2075 65.5345 84.6323 65.8942C84.0571 66.2442 83.4722 66.3608 82.667 66.3608C81.8617 66.3608 81.1618 66.2442 80.6921 65.8942C80.1169 65.5345 79.7718 64.9512 79.5417 64.3679C79.1966 63.6679 79.0719 62.8415 78.9569 61.9082C78.8418 60.8583 78.7268 59.682 78.7268 58.282C78.7268 56.746 78.8418 55.4627 79.0719 54.403M78.8418 50.5337C78.027 51.467 77.4518 52.6434 77.1066 53.9364C76.7615 55.346 76.6465 56.8724 76.6465 58.6223C76.6465 60.0319 76.7615 61.3249 76.8766 62.3749C76.9916 63.4346 77.3463 64.4845 77.6819 65.4275C78.1516 66.2539 78.7268 66.9539 79.5417 67.4205C80.347 68.0136 81.3823 68.2469 82.667 68.2469C85.0924 68.2469 86.588 67.4205 87.4028 65.6706C88.2177 64.0276 88.5629 61.6749 88.5629 58.632C88.5629 55.9391 88.2081 53.5961 87.4028 51.8267C86.588 50.0671 84.9774 49.1338 82.667 49.1338C81.0468 49.1338 79.7718 49.6004 78.8514 50.5435" fill="white"/>
<path d="M65.8902 51.243H71.441V65.9035H64.155C64.5001 65.0869 64.8453 64.2605 65.0849 63.2009C65.315 62.2676 65.5451 61.2079 65.6601 60.0316C65.7752 58.7483 65.8902 57.4553 65.8902 56.0456V51.243V51.243ZM63.8099 49.4834V54.179C63.8099 56.172 63.8099 57.8053 63.6948 59.2149C63.5798 60.5079 63.4648 61.8009 63.2347 62.8509C62.88 63.9106 62.5348 64.9605 61.9596 65.9035H60.6846V71.9991H62.6499V67.7798H72.9461V71.9991H74.9114V65.9035H73.4063V49.4834H63.8099V49.4834Z" fill="white"/>
<path d="M55.7186 53.3536C55.9486 52.6536 56.1788 51.7106 56.4088 50.4273V67.7808H58.3741V49.4843H55.4885L49.8227 63.9018C49.7077 64.3684 49.4776 64.8448 49.3625 65.4281C49.2475 66.0114 49.2475 66.3711 49.1324 66.4781V49.4746H47.1768V67.771H50.0624L55.7282 53.3439L55.7186 53.3536Z" fill="white"/>
<path d="M30.5149 50.4273C30.63 50.7773 30.745 51.4773 31.0901 52.6536L34.7906 67.7808H37.2161L41.0316 52.7703C41.0316 52.537 41.1466 52.187 41.2617 51.594C41.3767 51.1273 41.4918 50.7676 41.6068 50.4176V67.771H43.5721V49.4746H40.1113L36.5258 63.6685C36.4108 64.1351 36.1711 65.0781 36.056 66.4781H35.941C35.826 65.3114 35.7109 64.3684 35.5959 63.7851L32.0105 49.4746H28.54V67.771H30.5053V50.4176L30.5149 50.4273Z" fill="white"/>
<path d="M25.4243 49.4844H16.2881V67.7808H25.4243V65.9045H18.3685V59.2159H24.9641V57.3493H18.3685V51.244H25.4243V49.4844Z" fill="white"/>
<path d="M5.18649 56.0466V51.244H10.7372V65.9045H3.45128C3.7964 65.0879 4.15109 64.2615 4.38117 63.2018C4.61125 62.2686 4.84132 61.2089 4.96595 60.0325C5.08099 58.7493 5.19602 57.4563 5.19602 56.0466M12.2519 67.7808V72.0001H14.2172V65.9045H12.7121V49.4844H3.11571V54.18C3.11571 56.173 3.11571 57.8063 3.00067 59.2159C2.88563 60.5089 2.77061 61.8019 2.54052 62.8519C2.18581 63.9018 1.84067 64.9615 1.26546 65.9045H0V72.0001H1.96528V67.7808H12.2615H12.2519Z" fill="white"/>
<path d="M4.19837 39.8889H1.92631V44.2929H1.27441V39.2959H4.19837V39.8889Z" fill="white"/>
<path d="M9.86471 40.8222C9.86471 40.6472 9.83598 40.5014 9.77846 40.375C9.72094 40.2486 9.62505 40.1416 9.51 40.0639C9.40455 39.9958 9.27992 39.9472 9.1457 39.918C9.01149 39.8889 8.83895 39.8694 8.63763 39.8694H8.09118V41.8624H8.54179C8.81022 41.8624 9.02111 41.843 9.18409 41.7944C9.34706 41.7555 9.48127 41.668 9.59631 41.561C9.69218 41.4638 9.75926 41.3472 9.80719 41.2305C9.85513 41.1138 9.87431 40.9777 9.87431 40.8124M10.555 40.793C10.555 41.0069 10.5166 41.2208 10.44 41.4152C10.3633 41.6096 10.2578 41.7749 10.1236 41.911C9.95101 42.086 9.74968 42.2027 9.5196 42.2999C9.28952 42.3874 9.00194 42.4263 8.64723 42.4263H8.09118V44.2929H7.42969V39.2861H8.66636C8.95397 39.2861 9.21284 39.3056 9.41416 39.3639C9.62507 39.4125 9.79764 39.4903 9.96061 39.5972C10.1428 39.7333 10.2866 39.8889 10.392 40.0833C10.4975 40.2777 10.5454 40.5208 10.5454 40.793" fill="white"/>
<path d="M17.3234 39.2959L15.5307 43.5152C15.454 43.6902 15.3677 43.836 15.2718 43.9429C15.176 44.0499 15.0897 44.1374 14.9843 44.186C14.8884 44.2443 14.7829 44.2832 14.6871 44.2929C14.5912 44.3026 14.4857 44.3124 14.3899 44.3124C14.294 44.3124 14.1981 44.3124 14.0735 44.3124C13.9489 44.3124 13.8818 44.3124 13.8434 44.3124V43.6902H13.8913C13.8913 43.6902 13.9777 43.6999 14.0352 43.7096C14.1023 43.7193 14.1886 43.7193 14.294 43.7193C14.342 43.7193 14.3995 43.7193 14.457 43.7096C14.5241 43.7096 14.5912 43.6902 14.6391 43.661C14.7063 43.6318 14.7638 43.5929 14.8213 43.5346C14.8788 43.486 14.9267 43.3985 14.9747 43.2916L15.0897 43.0194L13.3545 39.3153H14.0831L15.4157 42.2611L16.6236 39.3153H17.3042L17.3234 39.2959Z" fill="white"/>
<path d="M24.0719 44.2929H23.4105V39.8889H21.1576V44.2929H20.4961V39.2959H24.0719V44.2929Z" fill="white"/>
<path d="M31.3679 44.2929H30.7064V39.8889H28.4439V44.2929H27.792V39.2959H31.3679V44.2929Z" fill="white"/>
<path d="M37.3594 42.329L36.602 39.9764L35.8446 42.329H37.3594V42.329ZM34.5504 44.2929L36.2089 39.2861H37.0142L38.6727 44.2929H37.9729L37.5319 42.8929H35.6433L35.1927 44.2929H34.5312H34.5504Z" fill="white"/>
<path d="M50.35 44.2929H49.5064L47.7616 41.9985H47.3589V44.2929H46.707V39.2861H47.3589V41.5416C47.6178 41.5416 47.819 41.4638 47.9724 41.3472C48.1258 41.2208 48.2409 41.0458 48.3367 40.8124C48.3751 40.7152 48.4231 40.618 48.4422 40.5305C48.471 40.4333 48.4997 40.3652 48.5189 40.3069C48.6531 39.9278 48.8161 39.6653 49.027 39.5194C49.2379 39.3736 49.5255 39.2958 49.8803 39.2958H50.0815V39.8889H49.9186C49.6502 39.8889 49.4584 39.9472 49.3529 40.0541C49.2475 40.1611 49.1516 40.3652 49.0557 40.6569C48.9599 40.9583 48.8641 41.1722 48.749 41.3083C48.634 41.4541 48.4997 41.5707 48.3367 41.6777L50.3404 44.3123L50.35 44.2929Z" fill="white"/>
<path d="M56.8981 41.794C56.8981 41.4634 56.8598 41.1718 56.7927 40.919C56.7255 40.6662 56.6201 40.4524 56.4955 40.2871C56.3612 40.1121 56.2079 39.9857 56.0257 39.8982C55.8436 39.8107 55.6326 39.7718 55.4026 39.7718C55.1725 39.7718 54.952 39.8107 54.7794 39.8982C54.5973 39.9857 54.4439 40.1121 54.3097 40.2968C54.1851 40.4621 54.0796 40.676 54.0125 40.9385C53.9358 41.1912 53.907 41.4829 53.907 41.8037C53.907 42.4551 54.0413 42.9606 54.3097 43.3106C54.5781 43.6606 54.9424 43.8355 55.4026 43.8355C55.8627 43.8355 56.227 43.6606 56.4955 43.3106C56.7639 42.9703 56.8981 42.4648 56.8981 41.8037M56.9844 39.8788C57.1761 40.0927 57.32 40.3746 57.4254 40.6954C57.5309 41.026 57.5788 41.3954 57.5788 41.8037C57.5788 42.212 57.5309 42.5814 57.4254 42.9023C57.32 43.2231 57.1761 43.505 56.9844 43.7286C56.7831 43.9522 56.553 44.1369 56.2846 44.2439C56.0162 44.3508 55.7285 44.4091 55.4026 44.4091C55.067 44.4091 54.7603 44.3508 54.5015 44.2439C54.233 44.1369 54.0029 43.9619 53.8112 43.7383C53.6194 43.5147 53.4756 43.2425 53.3702 42.912C53.2743 42.5912 53.2168 42.2217 53.2168 41.8037C53.2168 41.3857 53.2743 41.0162 53.3702 40.6954C53.4756 40.3746 53.6194 40.1121 53.8112 39.8788C54.0029 39.6552 54.233 39.4899 54.5015 39.3732C54.7699 39.2566 55.067 39.1982 55.4026 39.1982C55.7381 39.1982 56.0353 39.2566 56.3037 39.3732C56.5721 39.4996 56.8022 39.6649 56.9844 39.8788" fill="white"/>
<path d="M65.2375 44.2929H64.5856V39.9862L63.2914 42.9221H62.8983L61.6233 39.9862V44.2929H61.0098V39.2959H61.9013L63.138 42.0861L64.3268 39.2959H65.2375V44.2929Z" fill="white"/>
<path d="M72.5329 44.2929H71.8715V39.8889H69.6185V44.2929H68.957V39.2959H72.5329V44.2929Z" fill="white"/>
<path d="M78.5258 42.329L77.7684 39.9764L77.011 42.329H78.5258V42.329ZM75.7168 44.2929L77.3754 39.2861H78.1806L79.8487 44.2929H79.1585L78.7079 42.8929H76.8289L76.3783 44.2929H75.7168V44.2929Z" fill="white"/>
<path d="M86.6072 44.2929H85.9553V41.843H83.6927V44.2929H83.0312V39.2959H83.6927V41.25H85.9553V39.2959H86.6072V44.2929Z" fill="white"/>
<path d="M93.8637 44.2929H93.2117V40.3264L90.9972 44.2929H90.3262V39.2959H90.9877V43.2041L93.1734 39.2959H93.8637V44.2929Z" fill="white"/>
<path d="M100.642 37.7988C100.633 38.1391 100.527 38.4016 100.326 38.6057C100.125 38.8099 99.8177 38.9168 99.4151 38.9168C99.0124 38.9168 98.7152 38.8099 98.5043 38.6057C98.303 38.4016 98.1975 38.1294 98.188 37.7988H98.7823C98.7823 38.0516 98.8399 38.2266 98.9454 38.3432C99.0508 38.4502 99.2042 38.5085 99.4151 38.5085C99.626 38.5085 99.7794 38.4599 99.8848 38.3432C99.9903 38.2363 100.038 38.0516 100.048 37.7988H100.633H100.642ZM101.131 44.3027H100.47V40.3265L98.2551 44.3027H97.584V39.296H98.2455V43.2042L100.431 39.296H101.131V44.3027Z" fill="white"/>
<path d="M33.2178 12.22C26.7754 12.22 21.5506 17.5184 21.5506 24.0514H21.1768C21.1768 17.3045 26.5645 11.8408 33.2178 11.8408H45.2684V12.22H33.2178Z" fill="white"/>
<path d="M33.2175 11.1316C26.1808 11.1316 20.4766 16.9161 20.4766 24.0519H20.0068C20.0068 16.6536 25.9219 10.6553 33.2175 10.6553H45.2681V11.1316H33.2175Z" fill="white"/>
<path d="M33.2186 9.94526C25.53 9.94526 19.3081 16.2644 19.3081 24.0516H18.6562C18.6562 15.895 25.1753 9.28418 33.2186 9.28418H45.2692V9.94526H33.2186V9.94526Z" fill="white"/>
<path d="M33.2185 8.57481C24.7821 8.57481 17.9563 15.5065 17.9563 24.0519H17.0264C17.0264 14.9815 24.274 7.62207 33.2281 7.62207H45.2786V8.56509H33.2281L33.2185 8.57481Z" fill="white"/>
<path d="M33.218 6.91197C23.8805 6.91197 16.3261 14.5825 16.3261 24.0418H15.0127C15.0127 13.8436 23.1615 5.58008 33.218 5.58008H45.2686V6.90224H33.218V6.91197Z" fill="white"/>
<path d="M33.2178 4.88056C22.7778 4.88056 14.3126 13.4649 14.3126 24.052H12.5391C12.5391 12.4733 21.7903 3.08203 33.2178 3.08203H45.2684V4.88056H33.2178V4.88056Z" fill="white"/>
<path d="M33.2179 2.37217C21.407 2.37217 11.8394 12.0842 11.8394 24.0518H9.50977C9.50977 10.7718 20.1224 0.00976562 33.2179 0.00976562H45.2685V2.37217H33.2179V2.37217Z" fill="white"/>
<path d="M45.2108 11.8412C51.6531 11.8412 56.8779 6.54282 56.8779 0.00976562H57.2518C57.2518 6.7567 51.864 12.2301 45.2108 12.2301H33.1602V11.8509H45.2108V11.8412Z" fill="white"/>
<path d="M45.2108 12.93C52.2475 12.93 57.9516 7.14557 57.9516 0.00976562H58.4213C58.4213 7.40806 52.5063 13.4064 45.2108 13.4064H33.1602V12.93H45.2108Z" fill="white"/>
<path d="M45.2108 14.1063C52.8898 14.1063 59.1211 7.78717 59.1211 0H59.7731C59.7731 8.1566 53.2541 14.7674 45.2108 14.7674H33.1602V14.1063H45.2108V14.1063Z" fill="white"/>
<path d="M45.2108 15.4869C53.6375 15.4869 60.4729 8.55523 60.4729 0.00976562H61.4124C61.4124 9.08021 54.1552 16.4396 45.2108 16.4396H33.1602V15.4966H45.2108V15.4869Z" fill="white"/>
<path d="M45.2116 17.1395C54.5395 17.1395 62.1035 9.46904 62.1035 0H63.4073C63.4073 10.1982 55.2585 18.4617 45.202 18.4617H33.1514V17.1395H45.202H45.2116Z" fill="white"/>
<path d="M45.2108 19.1812C55.6508 19.1812 64.1159 10.5968 64.1159 0.00976562H65.8894C65.8894 11.5884 56.6286 20.9797 45.2108 20.9797H33.1602V19.1812H45.2108V19.1812Z" fill="white"/>
<path d="M45.2108 21.6894C57.0217 21.6894 66.5893 11.9773 66.5893 0.00976562H68.9189C68.9189 13.2898 58.3063 24.0518 45.2108 24.0518H33.1602V21.6894H45.2108V21.6894Z" fill="white"/>
<path d="M69.1875 11.8412C75.6298 11.8412 80.8547 6.54282 80.8547 0.00976562H81.2285C81.2285 6.7567 75.8407 12.2301 69.1875 12.2301V11.8509V11.8412Z" fill="#56C8D1"/>
<path d="M69.1875 12.93C76.2242 12.93 81.938 7.14557 81.938 0.00976562H82.3981C82.3981 7.40806 76.483 13.4064 69.1875 13.4064V12.93Z" fill="#56C8D1"/>
<path d="M69.1875 14.1063C76.8761 14.1063 83.0979 7.78717 83.0979 0H83.7498C83.7498 8.1566 77.2308 14.7674 69.1875 14.7674V14.1063V14.1063Z" fill="#56C8D1"/>
<path d="M69.1873 15.4869C77.6236 15.4869 84.4495 8.55523 84.4495 0.00976562H85.3794C85.3794 9.08021 78.1222 16.4396 69.1777 16.4396V15.4966L69.1873 15.4869Z" fill="#56C8D1"/>
<path d="M69.1875 17.1395C78.525 17.1395 86.089 9.46904 86.089 0H87.3929C87.3929 10.1982 79.244 18.4617 69.1875 18.4617V17.1395Z" fill="#56C8D1"/>
<path d="M69.1875 19.1812C79.6275 19.1812 88.0927 10.5968 88.0927 0.00976562H89.8662C89.8662 11.5884 80.6054 20.9797 69.1875 20.9797V19.1812V19.1812Z" fill="#56C8D1"/>
<path d="M69.1875 21.6894C80.9984 21.6894 90.5661 11.9773 90.5661 0.00976562H92.8957C92.8957 13.2898 82.2735 24.0518 69.1875 24.0518V21.6894V21.6894Z" fill="#56C8D1"/>
</svg>
