<svg width="178" height="125" viewBox="0 0 178 125" fill="none" xmlns="http://www.w3.org/2000/svg">
<path d="M173.503 107.843C173.503 109.856 173.104 111.253 172.106 112.267C171.307 113.265 169.893 113.665 168.097 113.665H162.874V102.021H167.698C171.507 102.021 173.519 104.034 173.519 107.843M172.522 93.6047C172.522 95.0019 172.322 96.0166 171.923 96.815C171.523 97.6134 170.925 98.2288 170.126 98.4284C169.328 98.8276 168.313 99.0438 167.116 99.0438H162.907V88.598H167.515C170.925 88.598 172.538 90.2115 172.538 93.6213M176.148 93.4217C176.148 91.8083 175.948 90.4111 175.349 89.2135C174.734 88.0159 173.736 87.2008 172.338 86.602C171.141 86.0032 169.527 85.604 167.515 85.604H159.281V116.908H168.114C170.925 116.908 173.12 116.11 174.734 114.696C176.347 113.082 177.146 110.887 177.146 107.876C177.146 106.462 176.946 105.265 176.347 104.267C175.732 103.052 175.133 102.054 174.335 101.472C173.536 100.857 172.738 100.441 171.723 100.275C173.12 99.8589 174.334 99.0771 174.933 97.8629C175.732 96.6652 176.148 95.2514 176.148 93.455" fill="#444444"/>
<path d="M137.193 94.0037C137.592 92.1906 138.207 90.7934 139.205 89.7954C140.203 88.5812 141.617 87.9824 143.214 87.9824C144.628 87.9824 145.626 88.3815 146.624 88.9803C147.622 89.5792 148.221 90.5938 148.836 91.5918C149.252 92.7894 149.634 94.2032 149.834 95.6005C150.034 96.9977 150.034 98.8107 150.034 100.624C150.034 103.019 150.034 105.032 149.834 106.828C149.634 108.425 149.435 109.839 148.836 111.036C148.437 112.034 147.838 113.032 146.84 113.648C145.842 114.247 144.827 114.446 143.43 114.446C142.033 114.446 140.819 114.247 140.004 113.648C139.006 113.032 138.407 112.034 138.008 111.036C137.409 109.839 137.193 108.425 136.993 106.828C136.793 105.032 136.594 103.019 136.594 100.624C136.594 97.9957 136.793 95.8001 137.193 93.987M136.793 87.3669C135.38 88.9637 134.382 90.9764 133.783 93.1886C133.184 95.6005 132.984 98.2119 132.984 101.206C132.984 103.618 133.184 105.83 133.384 107.626C133.583 109.44 134.199 111.236 134.781 112.849C135.596 114.263 136.594 115.461 138.008 116.259C139.405 117.274 141.201 117.673 143.43 117.673C147.638 117.673 150.233 116.259 151.647 113.265C153.061 110.454 153.66 106.429 153.66 101.223C153.66 96.6151 153.044 92.6064 151.647 89.5792C150.233 86.5685 147.439 84.9717 143.43 84.9717C140.619 84.9717 138.407 85.7701 136.81 87.3836" fill="#444444"/>
<path d="M114.322 88.5815H123.953V113.665H111.311C111.91 112.267 112.509 110.854 112.925 109.041C113.324 107.444 113.723 105.631 113.923 103.618C114.122 101.422 114.322 99.2102 114.322 96.7984V88.5815ZM110.713 85.5708V93.6048C110.713 97.0146 110.713 99.8091 110.513 102.221C110.313 104.433 110.114 106.645 109.715 108.442C109.099 110.255 108.5 112.051 107.502 113.665H105.29V124.094H108.7V116.875H126.564V124.094H129.974V113.665H127.363V85.5708H110.713Z" fill="#444444"/>
<path d="M96.6729 92.191C97.0721 90.9933 97.4714 89.3799 97.8706 87.1843V116.875H101.28V85.5708H96.2737L86.4434 110.238C86.2438 111.037 85.8445 111.852 85.6449 112.85C85.4453 113.848 85.4453 114.463 85.2457 114.646V85.5542H81.8525V116.858H86.8592L96.6895 92.1743L96.6729 92.191Z" fill="#444444"/>
<path d="M52.9441 87.1843C53.1437 87.7831 53.3432 88.9807 53.942 90.9933L60.3625 116.875H64.5708L71.1909 91.1929C71.1909 90.7937 71.3905 90.1949 71.5901 89.1803C71.7897 88.3819 71.9894 87.7665 72.189 87.1676V116.858H75.5988V85.5542H69.5942L63.3733 109.839C63.1737 110.637 62.7577 112.251 62.5581 114.646H62.3586C62.159 112.65 61.9594 111.037 61.7598 110.039L55.5389 85.5542H49.5176V116.858H52.9274V87.1676L52.9441 87.1843Z" fill="#444444"/>
<path d="M44.1115 85.5708H28.2598V116.875H44.1115V113.665H31.8693V102.221H43.313V99.0273H31.8693V88.5815H44.1115V85.5708Z" fill="#444444"/>
<path d="M8.99875 96.7984V88.5815H18.6295V113.665H5.9881C6.58691 112.267 7.2023 110.854 7.6015 109.041C8.0007 107.444 8.39988 105.631 8.61612 103.618C8.81572 101.422 9.0153 99.2102 9.0153 96.7984M21.2576 116.875V124.094H24.6674V113.665H22.056V85.5708H5.40587V93.6048C5.40587 97.0146 5.40588 99.8091 5.20628 102.221C5.00668 104.433 4.80711 106.645 4.40791 108.442C3.79247 110.238 3.19363 112.051 2.19563 113.665H0V124.094H3.40984V116.875H21.2741H21.2576Z" fill="#444444"/>
<path d="M7.2851 69.1536H3.34298V76.6885H2.21191V68.1389H7.2851V69.1536Z" fill="#444444"/>
<path d="M17.1155 70.7499C17.1155 70.4505 17.0656 70.201 16.9658 69.9848C16.866 69.7685 16.6997 69.5855 16.5001 69.4525C16.3171 69.336 16.1008 69.2529 15.868 69.203C15.6351 69.1531 15.3358 69.1198 14.9865 69.1198H14.0383V72.5297H14.8202C15.2859 72.5297 15.6518 72.4964 15.9346 72.4133C16.2173 72.3467 16.4502 72.197 16.6498 72.014C16.8161 71.8477 16.9325 71.6481 17.0157 71.4485C17.0989 71.2489 17.1321 71.016 17.1321 70.7333M18.3131 70.7C18.3131 71.0659 18.2466 71.4319 18.1136 71.7646C17.9805 72.0972 17.7975 72.38 17.5646 72.6129C17.2652 72.9123 16.9159 73.1118 16.5167 73.2782C16.1175 73.4279 15.6185 73.4944 15.0031 73.4944H14.0383V76.688H12.8906V68.1218H15.0363C15.5353 68.1218 15.9845 68.1551 16.3338 68.2549C16.6997 68.3381 16.9991 68.4711 17.2819 68.6541C17.5979 68.887 17.8474 69.1531 18.0304 69.4858C18.2134 69.8184 18.2965 70.2343 18.2965 70.7" fill="#444444"/>
<path d="M30.0562 68.1384L26.9457 75.3573C26.8127 75.6567 26.6629 75.9062 26.4966 76.0892C26.3303 76.2722 26.1806 76.4219 25.9976 76.5051C25.8313 76.6049 25.6483 76.6714 25.482 76.688C25.3157 76.7047 25.1327 76.7213 24.9664 76.7213C24.8 76.7213 24.6337 76.7213 24.4174 76.7213C24.2012 76.7213 24.0848 76.7213 24.0182 76.7213V75.6568H24.1014C24.1014 75.6568 24.2511 75.6734 24.3509 75.69C24.4674 75.7066 24.6171 75.7067 24.8001 75.7067C24.8832 75.7067 24.983 75.7066 25.0828 75.69C25.1992 75.69 25.3157 75.6568 25.3988 75.6069C25.5153 75.557 25.6151 75.4904 25.7149 75.3906C25.8147 75.3074 25.8978 75.1577 25.981 74.9748L26.1806 74.509L23.1699 68.1717H24.4341L26.7462 73.2116L28.842 68.1717H30.0229L30.0562 68.1384Z" fill="#444444"/>
<path d="M41.7667 76.6885H40.619V69.1536H36.7102V76.6885H35.5625V68.1389H41.7667V76.6885Z" fill="#444444"/>
<path d="M54.4241 76.6885H53.2764V69.1536H49.3508V76.6885H48.2197V68.1389H54.4241V76.6885Z" fill="#444444"/>
<path d="M64.821 73.3281L63.5068 69.3028L62.1928 73.3281H64.821ZM59.9473 76.688L62.8249 68.1218H64.2221L67.0997 76.688H65.8854L65.1203 74.2928H61.8435L61.0618 76.688H59.9141H59.9473Z" fill="#444444"/>
<path d="M87.3588 76.6885H85.895L82.8677 72.763H82.1691V76.6885H81.0381V68.1223H82.1691V71.9813C82.6183 71.9813 82.9675 71.8482 83.2336 71.6486C83.4997 71.4324 83.6994 71.133 83.8657 70.7338C83.9322 70.5674 84.0155 70.4011 84.0487 70.2514C84.0986 70.0851 84.1485 69.9686 84.1817 69.8688C84.4146 69.2201 84.6974 68.771 85.0634 68.5215C85.4293 68.272 85.9283 68.1389 86.5438 68.1389H86.893V69.1536H86.6103C86.1445 69.1536 85.8118 69.2534 85.6288 69.4363C85.4459 69.6193 85.2795 69.9686 85.1132 70.4676C84.9469 70.9832 84.7806 71.3492 84.581 71.5821C84.3814 71.8316 84.1485 72.0312 83.8657 72.2141L87.3421 76.7218L87.3588 76.6885Z" fill="#444444"/>
<path d="M98.7193 72.4136C98.7193 71.848 98.6527 71.349 98.5363 70.9165C98.4198 70.4841 98.2369 70.1181 98.0206 69.8354C97.7878 69.536 97.5217 69.3197 97.2056 69.17C96.8896 69.0203 96.5236 68.9538 96.1244 68.9538C95.7252 68.9538 95.3427 69.0203 95.0433 69.17C94.7273 69.3197 94.4611 69.536 94.2283 69.852C94.012 70.1348 93.8291 70.5007 93.7126 70.9498C93.5796 71.3823 93.5296 71.8813 93.5296 72.4302C93.5296 73.5446 93.7625 74.4096 94.2283 75.0084C94.694 75.6072 95.326 75.9066 96.1244 75.9066C96.9228 75.9066 97.5549 75.6072 98.0206 75.0084C98.4864 74.4262 98.7193 73.5613 98.7193 72.4302M98.869 69.1368C99.2016 69.5027 99.4512 69.9851 99.6341 70.534C99.8171 71.0995 99.9002 71.7316 99.9002 72.4302C99.9002 73.1288 99.8171 73.7609 99.6341 74.3098C99.4512 74.8587 99.2016 75.341 98.869 75.7236C98.5197 76.1062 98.1205 76.4222 97.6548 76.6052C97.189 76.7881 96.6899 76.8879 96.1244 76.8879C95.5422 76.8879 95.0101 76.7881 94.561 76.6052C94.0952 76.4222 93.696 76.1228 93.3633 75.7403C93.0306 75.3577 92.7811 74.8919 92.5981 74.3264C92.4318 73.7775 92.332 73.1454 92.332 72.4302C92.332 71.715 92.4318 71.0829 92.5981 70.534C92.7811 69.9851 93.0306 69.536 93.3633 69.1368C93.696 68.7542 94.0952 68.4714 94.561 68.2718C95.0267 68.0722 95.5422 67.9724 96.1244 67.9724C96.7066 67.9724 97.2222 68.0722 97.688 68.2718C98.1537 68.4881 98.5529 68.7708 98.869 69.1368Z" fill="#444444"/>
<path d="M113.19 76.6885H112.059V69.3199L109.813 74.3432H109.131L106.919 69.3199V76.6885H105.854V68.1389H107.401L109.547 72.9127L111.61 68.1389H113.19V76.6885Z" fill="#444444"/>
<path d="M125.848 76.6885H124.7V69.1536H120.791V76.6885H119.644V68.1389H125.848V76.6885Z" fill="#444444"/>
<path d="M136.245 73.3281L134.931 69.3028L133.617 73.3281H136.245ZM131.371 76.688L134.249 68.1218H135.646L138.54 76.688H137.343L136.561 74.2928H133.301L132.519 76.688H131.371Z" fill="#444444"/>
<path d="M150.267 76.6885H149.136V72.4969H145.21V76.6885H144.062V68.1389H145.21V71.4822H149.136V68.1389H150.267V76.6885Z" fill="#444444"/>
<path d="M162.857 76.6885H161.726V69.9021L157.884 76.6885H156.72V68.1389H157.867V74.8256L161.66 68.1389H162.857V76.6885Z" fill="#444444"/>
<path d="M174.618 65.5774C174.601 66.1596 174.418 66.6086 174.069 66.9579C173.719 67.3072 173.187 67.4902 172.489 67.4902C171.79 67.4902 171.274 67.3072 170.908 66.9579C170.559 66.6086 170.376 66.1429 170.359 65.5774H171.391C171.391 66.0099 171.491 66.3093 171.674 66.5089C171.857 66.6918 172.123 66.7916 172.489 66.7916C172.855 66.7916 173.121 66.7085 173.304 66.5089C173.487 66.3259 173.57 66.0099 173.586 65.5774H174.601H174.618ZM175.466 76.7052H174.318V69.9021L170.476 76.7052H169.312V68.1389H170.459V74.8256L174.252 68.1389H175.466V76.7052Z" fill="#444444"/>
<path d="M57.6348 21.8145C46.4571 21.8145 37.3918 30.8797 37.3918 42.0574H36.7432C36.7432 30.5138 46.0912 21.1658 57.6348 21.1658H78.543V21.8145H57.6348Z" fill="#444444"/>
<path d="M57.6348 19.9515C45.4259 19.9515 35.5289 29.8484 35.5289 42.0574H34.7139C34.7139 29.3993 44.9768 19.1365 57.6348 19.1365H78.5431V19.9515H57.6348Z" fill="#444444"/>
<path d="M57.6344 17.9223C44.2944 17.9223 33.4992 28.7341 33.4992 42.0575H32.3682C32.3682 28.102 43.6789 16.7913 57.6344 16.7913H78.5426V17.9223H57.6344Z" fill="#444444"/>
<path d="M57.6349 15.5771C42.9975 15.5771 31.1544 27.4368 31.1544 42.0576H29.541C29.541 26.5385 42.1159 13.947 57.6516 13.947H78.5597V15.5605H57.6516L57.6349 15.5771Z" fill="#444444"/>
<path d="M57.6348 12.7326C41.4338 12.7326 28.3266 25.8564 28.3266 42.0408H26.0479C26.0479 24.5923 40.1863 10.4539 57.6348 10.4539H78.543V12.716H57.6348V12.7326Z" fill="#444444"/>
<path d="M57.6342 9.25614C39.5204 9.25614 24.833 23.9435 24.833 42.0573H21.7559C21.7559 22.2469 37.8072 6.17896 57.6342 6.17896H78.5425V9.25614H57.6342Z" fill="#444444"/>
<path d="M57.6346 4.96478C37.1422 4.96478 20.542 21.5816 20.542 42.0574H16.5C16.5 19.3361 34.9133 0.922852 57.6346 0.922852H78.5429V4.96478H57.6346Z" fill="#444444"/>
<path d="M78.4434 21.1658C89.6211 21.1658 98.6863 12.1005 98.6863 0.922852H99.335C99.335 12.4665 89.987 21.8311 78.4434 21.8311H57.5352V21.1824H78.4434V21.1658Z" fill="#444444"/>
<path d="M78.4434 23.0287C90.6524 23.0287 100.549 13.1318 100.549 0.922852H101.364C101.364 13.5809 91.1015 23.8437 78.4434 23.8437H57.5352V23.0287H78.4434Z" fill="#444444"/>
<path d="M78.4434 25.0414C91.7668 25.0414 102.578 14.2296 102.578 0.90625H103.71C103.71 14.8617 92.3989 26.1725 78.4434 26.1725H57.5352V25.0414H78.4434Z" fill="#444444"/>
<path d="M78.4434 27.4033C93.0642 27.4033 104.924 15.5437 104.924 0.922852H106.554C106.554 16.4419 93.9624 29.0334 78.4434 29.0334H57.5352V27.4199H78.4434V27.4033Z" fill="#444444"/>
<path d="M78.4435 30.231C94.6278 30.231 107.752 17.1072 107.752 0.90625H110.014C110.014 18.3547 95.8753 32.4932 78.4268 32.4932H57.5186V30.231H78.4268H78.4435Z" fill="#444444"/>
<path d="M78.4434 33.724C96.5572 33.724 111.245 19.0367 111.245 0.922852H114.322C114.322 20.7333 98.2539 36.8012 78.4434 36.8012H57.5352V33.724H78.4434Z" fill="#444444"/>
<path d="M78.4434 38.0154C98.9358 38.0154 115.536 21.3986 115.536 0.922852H119.578C119.578 23.6441 101.165 42.0574 78.4434 42.0574H57.5352V38.0154H78.4434Z" fill="#444444"/>
<path d="M120.043 21.1658C131.221 21.1658 140.286 12.1005 140.286 0.922852H140.935C140.935 12.4665 131.587 21.8311 120.043 21.8311V21.1824V21.1658Z" fill="#444444"/>
<path d="M120.043 23.0287C132.252 23.0287 142.166 13.1318 142.166 0.922852H142.964C142.964 13.5809 132.701 23.8437 120.043 23.8437V23.0287Z" fill="#444444"/>
<path d="M120.043 25.0414C133.383 25.0414 144.178 14.2296 144.178 0.90625H145.309C145.309 14.8617 133.998 26.1725 120.043 26.1725V25.0414Z" fill="#444444"/>
<path d="M120.044 27.4033C134.681 27.4033 146.524 15.5437 146.524 0.922852H148.138C148.138 16.4419 135.546 29.0334 120.027 29.0334V27.4199L120.044 27.4033Z" fill="#444444"/>
<path d="M120.043 30.231C136.244 30.231 149.368 17.1072 149.368 0.90625H151.63C151.63 18.3547 137.491 32.4932 120.043 32.4932V30.231Z" fill="#444444"/>
<path d="M120.043 33.724C138.157 33.724 152.844 19.0367 152.844 0.922852H155.921C155.921 20.7333 139.853 36.8012 120.043 36.8012V33.724Z" fill="#444444"/>
<path d="M120.043 38.0154C140.535 38.0154 157.136 21.3986 157.136 0.922852H161.178C161.178 23.6441 142.748 42.0574 120.043 42.0574V38.0154Z" fill="#444444"/>
</svg>
