<svg width="178" height="125" viewBox="0 0 178 125" fill="none" xmlns="http://www.w3.org/2000/svg">
<path d="M173.503 107.843C173.503 109.856 173.104 111.253 172.106 112.268C171.307 113.266 169.893 113.665 168.097 113.665H162.874V102.022H167.698C171.507 102.022 173.519 104.034 173.519 107.843M172.522 93.6052C172.522 95.0024 172.322 96.017 171.923 96.8154C171.523 97.6139 170.925 98.2293 170.126 98.4289C169.328 98.8281 168.313 99.0443 167.116 99.0443H162.907V88.5985H167.515C170.925 88.5985 172.538 90.212 172.538 93.6218M176.148 93.4222C176.148 91.8088 175.948 90.4116 175.349 89.2139C174.734 88.0163 173.736 87.2013 172.338 86.6025C171.141 86.0037 169.527 85.6045 167.515 85.6045H159.281V116.909H168.114C170.925 116.909 173.12 116.11 174.734 114.696C176.347 113.083 177.146 110.887 177.146 107.877C177.146 106.463 176.946 105.265 176.347 104.267C175.732 103.053 175.133 102.055 174.335 101.473C173.536 100.857 172.738 100.442 171.723 100.275C173.12 99.8594 174.334 99.0776 174.933 97.8633C175.732 96.6657 176.148 95.2519 176.148 93.4555" fill="white"/>
<path d="M137.193 94.0037C137.592 92.1906 138.207 90.7934 139.205 89.7954C140.203 88.5812 141.617 87.9824 143.214 87.9824C144.628 87.9824 145.626 88.3815 146.624 88.9803C147.622 89.5792 148.221 90.5938 148.836 91.5918C149.252 92.7894 149.634 94.2032 149.834 95.6005C150.034 96.9977 150.034 98.8107 150.034 100.624C150.034 103.019 150.034 105.032 149.834 106.828C149.634 108.425 149.435 109.839 148.836 111.036C148.437 112.034 147.838 113.032 146.84 113.648C145.842 114.247 144.827 114.446 143.43 114.446C142.033 114.446 140.819 114.247 140.004 113.648C139.006 113.032 138.407 112.034 138.008 111.036C137.409 109.839 137.193 108.425 136.993 106.828C136.793 105.032 136.594 103.019 136.594 100.624C136.594 97.9957 136.793 95.8001 137.193 93.987M136.793 87.3669C135.38 88.9637 134.382 90.9764 133.783 93.1886C133.184 95.6005 132.984 98.2119 132.984 101.206C132.984 103.618 133.184 105.83 133.384 107.626C133.583 109.44 134.199 111.236 134.781 112.849C135.596 114.263 136.594 115.461 138.008 116.259C139.405 117.274 141.201 117.673 143.43 117.673C147.638 117.673 150.233 116.259 151.647 113.265C153.061 110.454 153.66 106.429 153.66 101.223C153.66 96.6151 153.044 92.6064 151.647 89.5792C150.233 86.5685 147.439 84.9717 143.43 84.9717C140.619 84.9717 138.407 85.7701 136.81 87.3836" fill="white"/>
<path d="M114.322 88.581H123.953V113.664H111.311C111.91 112.267 112.509 110.853 112.925 109.04C113.324 107.443 113.723 105.63 113.923 103.618C114.122 101.422 114.322 99.2097 114.322 96.7979V88.581V88.581ZM110.713 85.5703V93.6043C110.713 97.0141 110.713 99.8086 110.513 102.22C110.313 104.433 110.114 106.645 109.715 108.441C109.099 110.254 108.5 112.051 107.502 113.664H105.29V124.093H108.7V116.874H126.564V124.093H129.974V113.664H127.363V85.5703H110.713V85.5703Z" fill="white"/>
<path d="M96.6729 92.1905C97.0721 90.9929 97.4714 89.3794 97.8706 87.1838V116.875H101.28V85.5703H96.2737L86.4434 110.238C86.2438 111.036 85.8445 111.851 85.6449 112.849C85.4453 113.847 85.4453 114.463 85.2457 114.646V85.5537H81.8525V116.858H86.8592L96.6895 92.1738L96.6729 92.1905Z" fill="white"/>
<path d="M52.9441 87.1838C53.1437 87.7826 53.3432 88.9802 53.942 90.9929L60.3625 116.875H64.5708L71.1909 91.1925C71.1909 90.7932 71.3905 90.1944 71.5901 89.1798C71.7897 88.3814 71.9894 87.766 72.189 87.1672V116.858H75.5988V85.5537H69.5942L63.3733 109.839C63.1737 110.637 62.7577 112.25 62.5581 114.646H62.3586C62.159 112.65 61.9594 111.036 61.7598 110.038L55.5389 85.5537H49.5176V116.858H52.9274V87.1672L52.9441 87.1838Z" fill="white"/>
<path d="M44.1115 85.5703H28.2598V116.874H44.1115V113.664H31.8693V102.22H43.313V99.0268H31.8693V88.581H44.1115V85.5703Z" fill="white"/>
<path d="M8.99875 96.7979V88.581H18.6295V113.664H5.9881C6.58691 112.267 7.2023 110.853 7.6015 109.04C8.0007 107.443 8.39988 105.63 8.61612 103.618C8.81572 101.422 9.0153 99.2097 9.0153 96.7979M21.2576 116.874V124.093H24.6674V113.664H22.056V85.5703H5.40587V93.6043C5.40587 97.0141 5.40588 99.8086 5.20628 102.22C5.00668 104.433 4.80711 106.645 4.40791 108.441C3.79247 110.238 3.19363 112.051 2.19563 113.664H0V124.093H3.40984V116.874H21.2741H21.2576Z" fill="white"/>
<path d="M7.2851 69.1533H3.34298V76.6883H2.21191V68.1387H7.2851V69.1533Z" fill="white"/>
<path d="M17.1155 70.7502C17.1155 70.4508 17.0656 70.2012 16.9658 69.985C16.866 69.7688 16.6997 69.5858 16.5001 69.4527C16.3171 69.3363 16.1008 69.2531 15.868 69.2032C15.6351 69.1533 15.3358 69.1201 14.9865 69.1201H14.0383V72.5299H14.8202C15.2859 72.5299 15.6518 72.4967 15.9346 72.4135C16.2173 72.347 16.4502 72.1973 16.6498 72.0143C16.8161 71.848 16.9325 71.6484 17.0157 71.4488C17.0989 71.2492 17.1321 71.0163 17.1321 70.7335M18.3131 70.7002C18.3131 71.0662 18.2466 71.4321 18.1136 71.7648C17.9805 72.0975 17.7975 72.3802 17.5646 72.6131C17.2652 72.9125 16.9159 73.1121 16.5167 73.2784C16.1175 73.4281 15.6185 73.4947 15.0031 73.4947H14.0383V76.6883H12.8906V68.1221H15.0363C15.5353 68.1221 15.9845 68.1553 16.3338 68.2551C16.6997 68.3383 16.9991 68.4714 17.2819 68.6543C17.5979 68.8872 17.8474 69.1533 18.0304 69.486C18.2134 69.8187 18.2965 70.2345 18.2965 70.7002" fill="white"/>
<path d="M30.0562 68.1387L26.9457 75.3576C26.8127 75.657 26.6629 75.9065 26.4966 76.0895C26.3303 76.2724 26.1806 76.4221 25.9976 76.5053C25.8313 76.6051 25.6483 76.6716 25.482 76.6883C25.3157 76.7049 25.1327 76.7215 24.9664 76.7215C24.8 76.7215 24.6337 76.7215 24.4174 76.7215C24.2012 76.7215 24.0848 76.7215 24.0182 76.7215V75.657H24.1014C24.1014 75.657 24.2511 75.6736 24.3509 75.6902C24.4674 75.7069 24.6171 75.7069 24.8001 75.7069C24.8832 75.7069 24.983 75.7069 25.0828 75.6902C25.1992 75.6902 25.3157 75.657 25.3988 75.6071C25.5153 75.5572 25.6151 75.4907 25.7149 75.3909C25.8147 75.3077 25.8978 75.158 25.981 74.975L26.1806 74.5093L23.1699 68.1719H24.4341L26.7462 73.2119L28.842 68.1719H30.0229L30.0562 68.1387Z" fill="white"/>
<path d="M41.7667 76.6883H40.619V69.1533H36.7102V76.6883H35.5625V68.1387H41.7667V76.6883Z" fill="white"/>
<path d="M54.4241 76.6883H53.2764V69.1533H49.3508V76.6883H48.2197V68.1387H54.4241V76.6883Z" fill="white"/>
<path d="M64.821 73.3283L63.5068 69.303L62.1928 73.3283H64.821V73.3283ZM59.9473 76.6883L62.8249 68.1221H64.2221L67.0997 76.6883H65.8854L65.1203 74.2931H61.8435L61.0618 76.6883H59.9141H59.9473Z" fill="white"/>
<path d="M87.3588 76.6883H85.895L82.8677 72.7628H82.1691V76.6883H81.0381V68.1221H82.1691V71.981C82.6183 71.981 82.9675 71.848 83.2336 71.6484C83.4997 71.4321 83.6994 71.1327 83.8657 70.7335C83.9322 70.5672 84.0155 70.4009 84.0487 70.2512C84.0986 70.0848 84.1485 69.9684 84.1817 69.8686C84.4146 69.2199 84.6974 68.7708 85.0634 68.5213C85.4293 68.2718 85.9283 68.1387 86.5438 68.1387H86.893V69.1533H86.6103C86.1445 69.1533 85.8118 69.2531 85.6288 69.4361C85.4459 69.6191 85.2795 69.9684 85.1132 70.4674C84.9469 70.983 84.7806 71.349 84.581 71.5818C84.3814 71.8313 84.1485 72.0309 83.8657 72.2139L87.3421 76.7216L87.3588 76.6883Z" fill="white"/>
<path d="M98.7193 72.4138C98.7193 71.8483 98.6527 71.3493 98.5363 70.9168C98.4198 70.4843 98.2369 70.1184 98.0206 69.8356C97.7878 69.5362 97.5217 69.32 97.2056 69.1703C96.8896 69.0206 96.5236 68.954 96.1244 68.954C95.7252 68.954 95.3427 69.0206 95.0433 69.1703C94.7273 69.32 94.4611 69.5362 94.2283 69.8522C94.012 70.135 93.8291 70.501 93.7126 70.9501C93.5796 71.3825 93.5296 71.8815 93.5296 72.4304C93.5296 73.5449 93.7625 74.4098 94.2283 75.0086C94.694 75.6074 95.326 75.9068 96.1244 75.9068C96.9228 75.9068 97.5549 75.6074 98.0206 75.0086C98.4864 74.4265 98.7193 73.5615 98.7193 72.4304M98.869 69.137C99.2016 69.503 99.4512 69.9853 99.6341 70.5342C99.8171 71.0998 99.9002 71.7318 99.9002 72.4304C99.9002 73.129 99.8171 73.7611 99.6341 74.31C99.4512 74.8589 99.2016 75.3413 98.869 75.7239C98.5197 76.1064 98.1205 76.4225 97.6548 76.6054C97.189 76.7884 96.6899 76.8882 96.1244 76.8882C95.5422 76.8882 95.0101 76.7884 94.561 76.6054C94.0952 76.4225 93.696 76.1231 93.3633 75.7405C93.0306 75.3579 92.7811 74.8922 92.5981 74.3266C92.4318 73.7777 92.332 73.1457 92.332 72.4304C92.332 71.7152 92.4318 71.0831 92.5981 70.5342C92.7811 69.9853 93.0306 69.5362 93.3633 69.137C93.696 68.7544 94.0952 68.4717 94.561 68.2721C95.0267 68.0725 95.5422 67.9727 96.1244 67.9727C96.7066 67.9727 97.2222 68.0725 97.688 68.2721C98.1537 68.4883 98.5529 68.7711 98.869 69.137" fill="white"/>
<path d="M113.19 76.6883H112.059V69.3197L109.813 74.3429H109.131L106.919 69.3197V76.6883H105.854V68.1387H107.401L109.547 72.9125L111.61 68.1387H113.19V76.6883Z" fill="white"/>
<path d="M125.848 76.6883H124.7V69.1533H120.791V76.6883H119.644V68.1387H125.848V76.6883Z" fill="white"/>
<path d="M136.245 73.3283L134.931 69.303L133.617 73.3283H136.245V73.3283ZM131.371 76.6883L134.249 68.1221H135.646L138.54 76.6883H137.343L136.561 74.2931H133.301L132.519 76.6883H131.371V76.6883Z" fill="white"/>
<path d="M150.267 76.6883H149.136V72.4966H145.21V76.6883H144.062V68.1387H145.21V71.482H149.136V68.1387H150.267V76.6883Z" fill="white"/>
<path d="M162.857 76.6883H161.726V69.9018L157.884 76.6883H156.72V68.1387H157.867V74.8253L161.66 68.1387H162.857V76.6883Z" fill="white"/>
<path d="M174.618 65.5771C174.601 66.1593 174.418 66.6084 174.069 66.9577C173.719 67.307 173.187 67.49 172.489 67.49C171.79 67.49 171.274 67.307 170.908 66.9577C170.559 66.6084 170.376 66.1427 170.359 65.5771H171.391C171.391 66.0096 171.491 66.309 171.674 66.5086C171.857 66.6916 172.123 66.7914 172.489 66.7914C172.855 66.7914 173.121 66.7082 173.304 66.5086C173.487 66.3256 173.57 66.0096 173.586 65.5771H174.601H174.618ZM175.466 76.7049H174.318V69.9018L170.476 76.7049H169.312V68.1387H170.459V74.8253L174.252 68.1387H175.466V76.7049Z" fill="white"/>
<path d="M57.6348 21.8147C46.4571 21.8147 37.3918 30.8799 37.3918 42.0576H36.7432C36.7432 30.514 46.0912 21.166 57.6348 21.166H78.543V21.8147H57.6348Z" fill="white"/>
<path d="M57.6348 19.9518C45.4259 19.9518 35.5289 29.8487 35.5289 42.0576H34.7139C34.7139 29.3996 44.9768 19.1367 57.6348 19.1367H78.5431V19.9518H57.6348Z" fill="white"/>
<path d="M57.6344 17.9221C44.2944 17.9221 33.4992 28.7338 33.4992 42.0572H32.3682C32.3682 28.1018 43.6789 16.791 57.6344 16.791H78.5426V17.9221H57.6344V17.9221Z" fill="white"/>
<path d="M57.6349 15.5773C42.9975 15.5773 31.1544 27.437 31.1544 42.0578H29.541C29.541 26.5388 42.1159 13.9473 57.6516 13.9473H78.5598V15.5607H57.6516L57.6349 15.5773Z" fill="white"/>
<path d="M57.6348 12.7329C41.4338 12.7329 28.3266 25.8567 28.3266 42.041H26.0479C26.0479 24.5925 40.1863 10.4541 57.6348 10.4541H78.543V12.7163H57.6348V12.7329Z" fill="white"/>
<path d="M57.6342 9.2559C39.5204 9.2559 24.833 23.9432 24.833 42.0571H21.7559C21.7559 22.2466 37.8072 6.17871 57.6342 6.17871H78.5425V9.2559H57.6342V9.2559Z" fill="white"/>
<path d="M57.6346 4.96478C37.1422 4.96478 20.542 21.5816 20.542 42.0574H16.5C16.5 19.3361 34.9133 0.922852 57.6346 0.922852H78.5429V4.96478H57.6346V4.96478Z" fill="white"/>
<path d="M78.4434 21.1658C89.6211 21.1658 98.6863 12.1005 98.6863 0.922852H99.335C99.335 12.4665 89.987 21.8311 78.4434 21.8311H57.5352V21.1824H78.4434V21.1658Z" fill="white"/>
<path d="M78.4434 23.0287C90.6524 23.0287 100.549 13.1318 100.549 0.922852H101.364C101.364 13.5809 91.1015 23.8437 78.4434 23.8437H57.5352V23.0287H78.4434Z" fill="white"/>
<path d="M78.4434 25.0414C91.7668 25.0414 102.578 14.2296 102.578 0.90625H103.71C103.71 14.8617 92.3989 26.1725 78.4434 26.1725H57.5352V25.0414H78.4434V25.0414Z" fill="white"/>
<path d="M78.4434 27.4033C93.0642 27.4033 104.924 15.5437 104.924 0.922852H106.554C106.554 16.4419 93.9624 29.0334 78.4434 29.0334H57.5352V27.4199H78.4434V27.4033Z" fill="white"/>
<path d="M78.4435 30.231C94.6278 30.231 107.752 17.1072 107.752 0.90625H110.014C110.014 18.3547 95.8753 32.4932 78.4268 32.4932H57.5186V30.231H78.4268H78.4435Z" fill="white"/>
<path d="M78.4434 33.724C96.5572 33.724 111.245 19.0367 111.245 0.922852H114.322C114.322 20.7333 98.2539 36.8012 78.4434 36.8012H57.5352V33.724H78.4434V33.724Z" fill="white"/>
<path d="M78.4434 38.0154C98.9358 38.0154 115.536 21.3986 115.536 0.922852H119.578C119.578 23.6441 101.165 42.0574 78.4434 42.0574H57.5352V38.0154H78.4434V38.0154Z" fill="white"/>
<path d="M120.043 21.1658C131.221 21.1658 140.286 12.1005 140.286 0.922852H140.935C140.935 12.4665 131.587 21.8311 120.043 21.8311V21.1824V21.1658Z" fill="white"/>
<path d="M120.043 23.0287C132.252 23.0287 142.166 13.1318 142.166 0.922852H142.964C142.964 13.5809 132.701 23.8437 120.043 23.8437V23.0287Z" fill="white"/>
<path d="M120.043 25.0414C133.383 25.0414 144.178 14.2296 144.178 0.90625H145.309C145.309 14.8617 133.998 26.1725 120.043 26.1725V25.0414V25.0414Z" fill="white"/>
<path d="M120.044 27.4033C134.681 27.4033 146.524 15.5437 146.524 0.922852H148.138C148.138 16.4419 135.546 29.0334 120.027 29.0334V27.4199L120.044 27.4033Z" fill="white"/>
<path d="M120.043 30.231C136.244 30.231 149.368 17.1072 149.368 0.90625H151.63C151.63 18.3547 137.491 32.4932 120.043 32.4932V30.231Z" fill="white"/>
<path d="M120.043 33.724C138.157 33.724 152.844 19.0367 152.844 0.922852H155.921C155.921 20.7333 139.853 36.8012 120.043 36.8012V33.724V33.724Z" fill="white"/>
<path d="M120.043 38.0154C140.535 38.0154 157.136 21.3986 157.136 0.922852H161.178C161.178 23.6441 142.748 42.0574 120.043 42.0574V38.0154V38.0154Z" fill="white"/>
</svg>
