<svg width="12" height="12" viewBox="0 0 12 12" fill="none" xmlns="http://www.w3.org/2000/svg">
<path d="M5.99956 11.1531C5.97333 11.1531 5.90751 11.1461 5.86324 11.081L5.05275 9.88856C4.86214 9.60815 4.5975 9.3888 4.28743 9.25425C2.6955 8.56326 1.67813 6.99544 1.69553 5.26004C1.70701 4.1153 2.15918 3.04363 2.96874 2.2424C3.77822 1.44126 4.8547 1 5.99956 1H5.99959C8.37296 1 10.3038 2.9309 10.3038 5.30427C10.3038 7.02145 9.28542 8.57231 7.70931 9.25529C7.40102 9.38888 7.1372 9.60787 6.94639 9.8886L6.13589 11.081C6.09162 11.1461 6.0258 11.1531 5.99956 11.1531V11.1531Z" fill="#56C8D1"/>
<circle cx="6" cy="5" r="2" fill="white"/>
</svg>
