<svg width="144" height="144" viewBox="0 0 144 144" fill="none" xmlns="http://www.w3.org/2000/svg">
<g clip-path="url(#clip0_11831_39379)">
<path d="M46.3952 93.0948H46.4018C46.4073 93.0948 46.4128 93.0937 46.4183 93.0937H122.906C124.789 93.0937 126.445 91.8446 126.962 90.034L143.837 30.9715C144.201 29.6982 143.946 28.3293 143.15 27.2725C142.352 26.2156 141.105 25.5937 139.781 25.5937H36.6658L33.65 12.0223C33.2204 10.092 31.5088 8.71875 29.5312 8.71875H4.21875C1.88855 8.71875 0 10.6073 0 12.9375C0 15.2677 1.88855 17.1562 4.21875 17.1562H26.1474C26.6814 19.5612 40.5791 82.1019 41.3789 85.6999C36.8954 87.6489 33.75 92.1192 33.75 97.3125C33.75 104.291 39.4277 109.969 46.4062 109.969H122.906C125.236 109.969 127.125 108.08 127.125 105.75C127.125 103.42 125.236 101.531 122.906 101.531H46.4062C44.0804 101.531 42.1875 99.6383 42.1875 97.3125C42.1875 94.99 44.0738 93.1003 46.3952 93.0948V93.0948ZM134.188 34.0312L119.723 84.6562H49.79L38.54 34.0312H134.188Z" fill="#56C8D1"/>
<path d="M42.1875 122.625C42.1875 129.604 47.8652 135.281 54.8437 135.281C61.8223 135.281 67.5 129.604 67.5 122.625C67.5 115.646 61.8223 109.969 54.8437 109.969C47.8652 109.969 42.1875 115.646 42.1875 122.625ZM54.8437 118.406C57.1695 118.406 59.0625 120.299 59.0625 122.625C59.0625 124.951 57.1695 126.844 54.8437 126.844C52.5179 126.844 50.625 124.951 50.625 122.625C50.625 120.299 52.5179 118.406 54.8437 118.406Z" fill="#56C8D1"/>
<path d="M101.812 122.625C101.812 129.604 107.49 135.281 114.469 135.281C121.447 135.281 127.125 129.604 127.125 122.625C127.125 115.646 121.447 109.969 114.469 109.969C107.49 109.969 101.812 115.646 101.812 122.625ZM114.469 118.406C116.795 118.406 118.687 120.299 118.687 122.625C118.687 124.951 116.795 126.844 114.469 126.844C112.143 126.844 110.25 124.951 110.25 122.625C110.25 120.299 112.143 118.406 114.469 118.406Z" fill="#56C8D1"/>
</g>
<defs>
<clipPath id="clip0_11831_39379">
<rect width="144" height="144" fill="white"/>
</clipPath>
</defs>
</svg>
