<svg width="24" height="25" viewBox="0 0 24 25" fill="none" xmlns="http://www.w3.org/2000/svg">
<g clip-path="url(#clip0_10813_33664)">
<path d="M18.7737 16.0097C17.8232 17.3151 16.2836 18.1653 14.5489 18.1653H12.1149C11.2741 18.1653 10.5581 17.6315 10.2869 16.8843C9.95226 16.7845 9.62406 16.6549 9.30379 16.4958C8.62557 16.1588 8.00973 15.7023 7.46762 15.1367C3.95117 15.9092 1.31934 19.0426 1.31934 22.7911V23.281C1.31934 23.9546 1.86536 24.5006 2.53889 24.5006H21.4605C22.1341 24.5006 22.6801 23.9546 22.6801 23.281V22.7911C22.68 19.8953 21.1094 17.3666 18.7737 16.0097Z" fill="#56C8D1"/>
<path d="M6.17187 12.6224C6.69603 12.6224 7.15225 12.3319 7.38861 11.9032C7.39483 11.9201 7.40114 11.937 7.40751 11.9539C7.40939 11.9589 7.41127 11.964 7.41315 11.9691C7.96764 13.4286 9.04654 14.6521 10.4692 15.1867C10.8133 14.64 11.4217 14.2764 12.1154 14.2764H14.5494C14.7922 14.2764 15.0182 14.2079 15.2163 14.0972C15.549 13.9111 15.8481 13.4392 16.0026 13.189C16.2499 12.7887 16.4414 12.3647 16.6113 11.9024C16.7067 12.0758 16.838 12.2266 16.9952 12.3447V12.9416C16.9952 14.2902 15.8981 15.3874 14.5494 15.3874H12.1154C11.6552 15.3874 11.2822 15.7605 11.2822 16.2206C11.2822 16.6808 11.6552 17.0538 12.1154 17.0538H14.5494C16.8169 17.0538 18.6616 15.2091 18.6616 12.9416V12.3447C18.9989 12.0913 19.2171 11.6881 19.2171 11.2338V8.72139V7.75799C19.2171 7.29435 18.9897 6.88412 18.6406 6.63189C18.3698 3.2054 15.495 0.5 12.0002 0.5C8.50521 0.5 5.63049 3.2054 5.35972 6.63183C5.01058 6.88407 4.7832 7.29435 4.7832 7.75793V11.2337C4.7832 12.0028 5.40802 12.6224 6.17187 12.6224ZM12.0002 2.16644C14.5873 2.16644 16.7213 4.14359 16.9707 6.66629C16.807 6.7951 16.6728 6.95972 16.5804 7.14862C15.7942 5.09744 14.0392 3.66935 12.0001 3.66935C9.91706 3.66935 8.19017 5.14652 7.42286 7.14043C7.42182 7.14314 7.42083 7.14591 7.41978 7.14868C7.32737 6.95978 7.19324 6.79515 7.0295 6.66635C7.27907 4.14359 9.41296 2.16644 12.0002 2.16644Z" fill="#56C8D1"/>
</g>
<defs>
<clipPath id="clip0_10813_33664">
<rect width="24" height="24" fill="white" transform="translate(0 0.5)"/>
</clipPath>
</defs>
</svg>
