<svg width="32" height="32" viewBox="0 0 32 32" fill="none" xmlns="http://www.w3.org/2000/svg">
<g clip-path="url(#clip0_10813_26977)">
<path d="M23.0269 6.67864L20.1962 1.82931C20.0615 1.59864 19.8402 1.43064 19.5815 1.36398C19.3242 1.29998 19.0482 1.33731 18.8189 1.47464L10.1655 6.66664L23.0269 6.67864Z" fill="#56C8D1"/>
<path d="M4 7.99996C3.26667 7.99996 2.66667 7.39996 2.66667 6.66663C2.66667 5.93329 3.26667 5.33329 4 5.33329H8.49333L12.9467 2.66663H4C2.02667 2.66663 0.386667 4.10663 0.0666667 5.99996C0.04 6.10663 0 6.21329 0 6.33329V26.6666C0 28.8666 1.8 30.6666 4 30.6666H26.6667C28.1333 30.6666 29.3333 29.4666 29.3333 28V25.3333H26C22.6933 25.3333 20 22.64 20 19.3333C20 16.0266 22.6933 13.3333 26 13.3333H29.3333V10.6666C29.3333 9.19996 28.1333 7.99996 26.6667 7.99996H4ZM25.3333 5.33329C25.3333 3.98663 24.3333 2.86663 23.0267 2.69329L25.3333 6.66663V5.33329Z" fill="#56C8D1"/>
<path d="M31 15.3334H26C23.7947 15.3334 22 17.128 22 19.3334C22 21.5387 23.7947 23.3334 26 23.3334H31C31.552 23.3334 32 22.8854 32 22.3334V16.3334C32 15.7814 31.552 15.3334 31 15.3334ZM26 20.6667C25.264 20.6667 24.6667 20.0694 24.6667 19.3334C24.6667 18.5974 25.264 18 26 18C26.736 18 27.3333 18.5974 27.3333 19.3334C27.3333 20.0694 26.736 20.6667 26 20.6667Z" fill="#56C8D1"/>
</g>
<defs>
<clipPath id="clip0_10813_26977">
<rect width="32" height="32" fill="white"/>
</clipPath>
</defs>
</svg>
