<svg width="16" height="17" viewBox="0 0 16 17" fill="none" xmlns="http://www.w3.org/2000/svg">
<path d="M15.0175 11.8C14.9765 11.7675 12 9.622 11.183 9.776C10.793 9.845 10.57 10.111 10.1225 10.6435C10.0505 10.7295 9.8775 10.9355 9.743 11.082C9.4602 10.9898 9.18433 10.8775 8.9175 10.746C7.54026 10.0755 6.4275 8.96274 5.757 7.5855C5.62543 7.31871 5.51315 7.04284 5.421 6.76C5.568 6.625 5.774 6.452 5.862 6.378C6.392 5.933 6.6585 5.71 6.7275 5.319C6.869 4.509 4.725 1.512 4.7025 1.485C4.60522 1.34604 4.47827 1.23043 4.33084 1.14655C4.1834 1.06267 4.01916 1.01261 3.85 1C2.981 1 0.5 4.2185 0.5 4.7605C0.5 4.792 0.5455 7.994 4.494 12.0105C8.5065 15.9545 11.708 16 11.7395 16C12.282 16 15.5 13.519 15.5 12.65C15.4875 12.4814 15.4378 12.3177 15.3543 12.1707C15.2709 12.0238 15.1558 11.8971 15.0175 11.8V11.8Z" fill="#56C8D1"/>
</svg>
