<svg width="23" height="22" viewBox="0 0 23 22" fill="none" xmlns="http://www.w3.org/2000/svg">
<g clip-path="url(#clip0_10814_26032)">
<path d="M9.42489 17.4795C11.3263 17.4795 13.1733 16.8451 14.6733 15.6768L20.3326 21.336C20.7553 21.7443 21.429 21.7326 21.8373 21.3098C22.2356 20.8974 22.2356 20.2436 21.8373 19.8313L16.178 14.1721C19.0773 10.44 18.4021 5.06428 14.6701 2.16507C10.938 -0.734146 5.56233 -0.0590194 2.66311 3.67305C-0.236099 7.40512 0.439027 12.7808 4.1711 15.68C5.6736 16.8473 7.52225 17.4804 9.42489 17.4795ZM4.87775 4.37643C7.38909 1.86505 11.4608 1.865 13.9722 4.37634C16.4835 6.88768 16.4836 10.9594 13.9723 13.4707C11.4609 15.9821 7.38923 15.9822 4.87784 13.4708C4.8778 13.4708 4.8778 13.4708 4.87775 13.4707C2.36641 10.9777 2.35162 6.92087 4.84466 4.40953C4.85567 4.39846 4.86669 4.38745 4.87775 4.37643V4.37643Z" fill="#56C8D1"/>
</g>
<defs>
<clipPath id="clip0_10814_26032">
<rect width="21.2727" height="21.2727" fill="white" transform="translate(0.863281 0.363281)"/>
</clipPath>
</defs>
</svg>
