<svg width="16" height="16" viewBox="0 0 16 16" fill="none" xmlns="http://www.w3.org/2000/svg">
<g clip-path="url(#clip0_10813_27974)">
<path d="M12.3329 4.16313H15.5424L8.24424 0.0677971C8.08153 -0.0235247 8.24031 0.00384375 4.9043 0.00384375L12.3329 4.16313Z" fill="#56C8D1"/>
<path d="M12.4193 8.58111H15.6287L6.14274 3.27726C5.98188 3.18732 6.14556 3.21369 2.79883 3.21369L12.4193 8.58111Z" fill="#56C8D1"/>
<path d="M10.2331 11.7911H13.4409L3.95496 6.48725C3.79646 6.39865 3.95855 6.42367 0.74707 6.42367L10.2331 11.7911Z" fill="#56C8D1"/>
<path d="M9.60158 12.5825L0.00195312 7.15076V10.1328C0.00195312 10.3138 0.0998358 10.4807 0.257892 10.5691L9.60162 15.7934C9.60158 15.4186 9.60158 13.1492 9.60158 12.5825Z" fill="#56C8D1"/>
<path d="M10.6013 12.7908V16H13.3106C13.5867 16 13.8105 15.7761 13.8105 15.5001V12.7908H10.6013Z" fill="#56C8D1"/>
<path d="M5.89866 2.214C6.15432 2.214 6.40738 2.27996 6.63052 2.40471L11.7031 5.2409V4.95603L4.29102 0.80603V2.214H5.89866Z" fill="#56C8D1"/>
<path d="M15.9123 7.59416V5.16284H12.7031V5.79985L15.9123 7.59416Z" fill="#56C8D1"/>
<path d="M3.71099 5.42393C3.96665 5.42393 4.21972 5.48988 4.44285 5.61463L11.7891 9.72212V9.37461L2.18945 4.0188V5.42393H3.71099Z" fill="#56C8D1"/>
<path d="M12.7888 9.58093V10.2811L13.9287 10.9185C14.1708 11.0538 14.3385 11.2783 14.4066 11.5328C14.5985 12.2496 14.8099 12.3935 14.8102 12.7902H15.4981C15.7742 12.7902 15.998 12.5664 15.998 12.2903V9.58096H12.7888V9.58093Z" fill="#56C8D1"/>
</g>
<defs>
<clipPath id="clip0_10813_27974">
<rect width="16" height="16" fill="white"/>
</clipPath>
</defs>
</svg>
