<svg width="16" height="16" viewBox="0 0 16 16" fill="none" xmlns="http://www.w3.org/2000/svg">
<path d="M7.19277 1.10401C7.59225 0.557657 8.40775 0.557659 8.80723 1.10402L11.09 4.2261C11.2135 4.3949 11.3867 4.52076 11.5854 4.58598L15.2601 5.79228C15.9031 6.00338 16.1551 6.77896 15.759 7.32773L13.4951 10.4636C13.3727 10.6331 13.3066 10.8368 13.3059 11.0459L13.2942 14.9135C13.2922 15.5903 12.6324 16.0697 11.9881 15.8625L8.30614 14.6784C8.10706 14.6144 7.89293 14.6144 7.69386 14.6784L4.01192 15.8625C3.36759 16.0697 2.70784 15.5903 2.70579 14.9135L2.69408 11.0459C2.69345 10.8368 2.62728 10.6331 2.50488 10.4636L0.241023 7.32773C-0.155146 6.77896 0.0968575 6.00338 0.739921 5.79228L4.41463 4.58598C4.6133 4.52076 4.78654 4.3949 4.90996 4.2261L7.19277 1.10401Z" fill="#56C8D1"/>
</svg>
