<svg width="16" height="17" viewBox="0 0 16 17" fill="none" xmlns="http://www.w3.org/2000/svg">
<path d="M8.00033 1.16699C6.54993 1.16699 5.13211 1.59708 3.92615 2.40288C2.72019 3.20868 1.78025 4.35399 1.22521 5.69398C0.67017 7.03397 0.524945 8.50846 0.807903 9.93099C1.09086 11.3535 1.78929 12.6602 2.81488 13.6858C3.84046 14.7114 5.14714 15.4098 6.56967 15.6928C7.99219 15.9757 9.46668 15.8305 10.8067 15.2754C12.1467 14.7204 13.292 13.7805 14.0978 12.5745C14.9036 11.3685 15.3337 9.95072 15.3337 8.50033C15.3314 6.55611 14.558 4.69218 13.1832 3.31741C11.8085 1.94264 9.94455 1.16929 8.00033 1.16699V1.16699ZM10.4717 10.9717C10.3466 11.0966 10.1771 11.1669 10.0003 11.1669C9.82355 11.1669 9.65401 11.0966 9.529 10.9717L7.529 8.97166C7.40396 8.84666 7.3337 8.67712 7.33366 8.50033V4.50033C7.33366 4.32351 7.4039 4.15395 7.52892 4.02892C7.65395 3.9039 7.82352 3.83366 8.00033 3.83366C8.17714 3.83366 8.34671 3.9039 8.47173 4.02892C8.59676 4.15395 8.667 4.32351 8.667 4.50033V8.22433L10.4717 10.029C10.5966 10.154 10.6669 10.3235 10.6669 10.5003C10.6669 10.6771 10.5966 10.8466 10.4717 10.9717V10.9717Z" fill="#56C8D1"/>
</svg>
