<svg width="40" height="40" viewBox="0 0 40 40" fill="none" xmlns="http://www.w3.org/2000/svg">
<path d="M37.4856 17.6145C36.884 17.3149 36.2484 16.6472 36.6705 14.123C37.0664 11.7551 36.3332 11.2707 35.3335 10.8834C35.2751 10.8608 35.2163 10.838 35.1572 10.814C35.0873 10.7857 35.0738 10.6747 35.0947 10.2978C35.1241 9.75974 35.179 8.7581 33.8187 8.57536C33.1526 8.48599 32.7048 8.58607 32.45 8.88185C32.1076 9.27927 32.264 9.81849 32.3781 10.2122C32.4062 10.3003 32.429 10.3899 32.4462 10.4808C32.4613 10.6019 32.4256 10.6854 32.3433 10.8626C32.1843 11.1702 32.1013 11.5115 32.1012 11.8579C32.1012 12.3891 32.0029 12.5721 30.961 13.3052C30.6691 13.4983 30.3603 13.6644 30.0383 13.8017C29.2901 14.1471 28.4421 14.5386 28.3098 15.7521C28.2014 16.7454 27.5999 17.4385 27.4019 17.4732C27.3791 17.4447 27.3608 17.4128 27.3478 17.3787C27.2072 17.0443 26.9884 16.8201 26.6982 16.7122C26.0966 16.4884 25.3966 16.8361 24.7196 17.1722C24.6305 17.2165 24.542 17.2604 24.4551 17.3022C23.8987 17.57 23.2833 17.6901 22.9691 17.6928C23.0346 17.5874 23.1218 17.4752 23.2069 17.3653C23.4726 17.0233 23.8737 16.5059 23.5116 16.001C23.1394 15.4818 22.709 15.6736 22.3944 15.8135C22.1285 15.9396 21.8486 16.0337 21.5605 16.0937C20.8573 16.238 20.5575 16.6124 20.3384 16.8858C20.1702 17.0958 20.0947 17.1818 19.912 17.2047C19.1568 17.2988 19.188 18.0557 19.2048 18.4625C19.2135 18.674 19.2266 18.9937 19.1381 19.0581C18.808 19.299 18.4621 19.7807 18.4827 20.269C18.4846 20.3158 18.475 20.3622 18.4549 20.4044C18.4347 20.4466 18.4046 20.4833 18.3671 20.5112C18.3349 20.5364 18.2969 20.5531 18.2566 20.5599C18.2162 20.5667 18.1749 20.5634 18.1362 20.5503C18.0078 20.5065 17.9872 20.4556 17.9872 20.3507C17.9821 20.2176 17.9881 20.0843 18.0051 19.9522C18.0158 19.9419 18.0324 19.9271 18.0465 19.9145C18.2404 19.7434 18.4084 19.545 18.545 19.3254C19.2223 18.2929 18.5541 17.4461 18.5252 17.4105C18.4742 17.3474 18.4048 17.3018 18.3267 17.2801C17.7681 17.1238 17.4457 17.6041 17.1866 17.9897C16.8753 18.4532 16.5226 18.9785 15.7501 19.0617C14.6758 19.1774 14.5771 19.0737 14.4279 18.9165C14.2048 18.668 13.9213 18.4813 13.6048 18.3747C12.9032 18.1125 11.708 18.3205 10.5523 18.5216C9.94881 18.6266 9.03663 18.7854 8.83545 18.705C8.83241 18.7038 8.83045 18.7028 8.82967 18.7026C8.82186 18.6879 8.75045 18.5211 8.94459 17.9946C8.94792 17.9853 8.9533 17.9769 8.96031 17.97C8.96733 17.963 8.97582 17.9578 8.98514 17.9546C8.99616 17.9504 9.00797 17.9486 9.01974 17.9494C9.03151 17.9503 9.04296 17.9537 9.05327 17.9594C9.52561 18.2152 10.0047 18.23 10.4384 18.002C10.841 17.7903 11.0512 17.3597 11.0002 16.8501C10.9335 16.1803 10.3903 15.3629 9.48147 15.0964C8.71241 14.871 8.24577 15.4636 7.79506 16.0368C7.26952 16.7054 6.67389 17.463 5.42881 17.6643C5.0198 17.7238 4.62809 17.8695 4.27959 18.0917C3.9311 18.3139 3.63376 18.6076 3.40725 18.9533C2.54702 20.2227 2.47991 22.2175 2.79522 23.6312C2.98514 24.4833 2.84514 24.804 2.77616 24.9022C2.74983 24.9445 2.70943 24.9761 2.66209 24.9915C2.43163 24.9776 1.52983 24.9654 1.0953 25.5638C0.812095 25.9538 0.80686 26.4762 1.07967 27.1165C2.21663 29.7834 2.99249 31.013 3.67342 31.2277C3.77447 31.262 3.88189 31.2733 3.98787 31.2609C4.09385 31.2484 4.19572 31.2125 4.28608 31.1558C4.57897 30.9733 4.72608 30.5558 5.0053 29.704C5.34124 28.6776 5.84983 27.1264 6.72405 26.868C7.16155 26.739 7.71311 26.9334 8.3628 27.4467C8.77639 28.093 9.52913 29.0893 10.1819 28.9654C10.6561 28.8754 10.8161 28.4391 10.9329 28.1206C11.0137 27.9001 11.0901 27.6919 11.2232 27.6284C11.4057 27.5379 11.5763 27.425 11.731 27.2925C11.7881 27.2405 11.8515 27.1958 11.9198 27.1597C11.9726 27.169 12.0225 27.1906 12.0655 27.2227C12.128 27.2604 12.1847 27.2958 12.238 27.3288C12.7224 27.6289 12.9707 27.7654 13.7764 27.8572C13.9453 27.8765 14.0063 27.9616 14.1429 28.2661C14.2762 28.5636 14.5248 29.1173 15.2469 28.9903C15.7292 28.9054 15.8615 29.0989 16.2469 29.7827L16.3194 29.9109C16.9008 30.9336 17.8597 31.449 19.1761 31.449C19.4571 31.4479 19.7377 31.4269 20.0158 31.3861C21.2162 31.215 21.6623 30.9166 21.9289 30.7383C22.0997 30.6241 22.0998 30.6241 22.2785 30.6743C22.7524 30.8072 23.134 30.6069 23.4405 30.4461C23.8089 30.2528 24.0526 30.1254 24.4845 30.3896C25.2209 30.8401 25.733 30.641 26.1445 30.4812C26.4683 30.3554 26.748 30.2468 27.2137 30.3629C28.0855 30.5801 28.4481 30.2993 28.7673 30.0515C29.0465 29.8083 29.3945 29.6579 29.763 29.6213C30.7864 29.4807 30.8093 28.5772 30.8244 27.9794C30.843 27.2518 30.9069 27.1179 31.2519 27.084C31.8676 27.0238 31.9791 27.179 32.148 27.4142C32.3102 27.6397 32.5553 27.9807 33.1544 27.9807C33.4273 27.9807 34.2574 27.9807 34.5601 28.3269C34.6805 28.4646 34.7208 28.6652 34.6837 28.9401C34.6122 29.4699 34.674 29.9178 34.8675 30.2712C34.9618 30.4414 35.1044 30.5797 35.2773 30.6689C35.4502 30.7581 35.6456 30.7941 35.839 30.7724C36.0323 30.7507 36.2149 30.6722 36.3636 30.5469C36.5124 30.4215 36.6208 30.2549 36.675 30.0681C37.4865 27.2613 37.0405 26.1725 36.6093 25.1194C36.4627 24.786 36.3429 24.4414 36.2512 24.089C36.1533 23.6816 36.0966 23.4619 35.9741 23.31C35.7587 23.0426 35.4624 23.1036 35.2855 23.1401C35.0508 23.1937 34.8091 23.2093 34.5695 23.1864C34.5268 23.1858 34.4848 23.1748 34.4472 23.1544C34.4096 23.1339 34.3775 23.1047 34.3537 23.0692C34.1115 22.7318 34.1965 21.8036 34.3339 21.2525C34.3529 21.1922 34.3533 21.1276 34.3352 21.067C34.3274 21.0123 34.2815 20.5535 34.7392 19.7612C35.0651 19.1969 35.1001 18.5299 35.1257 18.0429C35.1291 17.9767 35.1335 17.9011 35.1382 17.8294C35.3244 18.0075 35.4741 18.2819 35.6637 18.6293C35.872 19.0301 36.1106 19.4143 36.3774 19.7787C37.0296 20.6459 37.884 21.2593 38.4555 21.2714C38.5606 21.277 38.6656 21.2582 38.7623 21.2166C38.859 21.175 38.9447 21.1117 39.013 21.0315C39.1692 20.8409 39.2012 20.5416 39.1103 20.1165C38.9419 19.3306 38.3266 18.0337 37.4856 17.6145V17.6145Z" fill="#72CBD2"/>
</svg>
