<svg width="48" height="48" viewBox="0 0 48 48" fill="none" xmlns="http://www.w3.org/2000/svg">
<g clip-path="url(#clip0_10743_13563)">
<path fill-rule="evenodd" clip-rule="evenodd" d="M24.2944 7.02464L25.8059 11.0056C25.8513 11.1254 25.9571 11.2021 26.085 11.2084L30.3381 11.4157C30.4713 11.4222 30.581 11.5061 30.6223 11.6329C30.6634 11.7598 30.6241 11.8921 30.5201 11.9757L27.2011 14.6433C27.1013 14.7235 27.0609 14.8479 27.0945 14.9714L28.2116 19.0804C28.2466 19.2091 28.2007 19.3394 28.0928 19.4177C27.9849 19.4961 27.8469 19.4995 27.7352 19.4265L24.1725 17.0942C24.0654 17.0241 23.9346 17.0241 23.8276 17.0942L20.2649 19.4265C20.1533 19.4995 20.0152 19.4961 19.9074 19.4177C19.7995 19.3394 19.7537 19.209 19.7886 19.0804L20.9057 14.9714C20.9393 14.8479 20.8989 14.7235 20.7992 14.6433L17.4801 11.9757C17.3762 11.8921 17.3367 11.7598 17.3779 11.6329C17.4191 11.5061 17.5289 11.4223 17.6621 11.4157L21.9152 11.2084C22.0431 11.2022 22.1489 11.1254 22.1942 11.0056L23.7057 7.02464C23.753 6.89995 23.8667 6.82158 24.0001 6.82158C24.1335 6.82158 24.2471 6.89995 24.2944 7.02464V7.02464ZM16.0572 5.77223L18.7174 8.16764C19.0248 8.4443 19.4984 8.41936 19.775 8.11195C20.0517 7.80455 20.0267 7.33102 19.7193 7.05436L17.0591 4.65895C16.7517 4.3823 16.2782 4.40723 16.0015 4.71464C15.7248 5.02205 15.7497 5.49558 16.0572 5.77223V5.77223ZM30.9409 4.65895L28.2651 7.06833C27.9577 7.34498 27.9328 7.81852 28.2094 8.12592C28.4861 8.43333 28.9596 8.45827 29.267 8.18161L31.9428 5.77223C32.2502 5.49558 32.2752 5.02205 31.9985 4.71464C31.7218 4.40723 31.2483 4.3823 30.9409 4.65895V4.65895ZM24.7501 4.03561C24.7501 4.4498 24.4142 4.78561 24.0001 4.78561C23.5859 4.78561 23.2501 4.4498 23.2501 4.03561V1.2832C23.2501 0.869016 23.5859 0.533203 24.0001 0.533203C24.4142 0.533203 24.7501 0.869016 24.7501 1.2832V4.03561ZM24.0001 21.8329C26.9062 21.8329 29.2622 24.1889 29.2622 27.0949C29.2622 30.0011 26.9062 32.357 24.0001 32.357C21.0939 32.357 18.7381 30.0011 18.7381 27.0949C18.7381 24.1888 21.0939 21.8329 24.0001 21.8329V21.8329ZM34.3474 42.582C33.7887 37.3609 29.3694 33.2945 24.0001 33.2945C18.6306 33.2945 14.2113 37.3609 13.6526 42.5821V44.6857C13.6526 46.2176 14.902 47.467 16.4339 47.467H31.5662C33.098 47.467 34.3474 46.2176 34.3474 44.6857V42.582ZM39.7264 25.6542C41.9006 25.6542 43.6631 27.4168 43.6631 29.5908C43.6631 31.765 41.9006 33.5275 39.7264 33.5275C37.5523 33.5275 35.7898 31.765 35.7898 29.5908C35.7897 27.4168 37.5522 25.6542 39.7264 25.6542ZM8.27368 25.6542C10.4478 25.6542 12.2103 27.4168 12.2103 29.5908C12.2103 31.765 10.4478 33.5275 8.27368 33.5275C6.09953 33.5275 4.33703 31.765 4.33703 29.5908C4.33703 27.4168 6.09953 25.6542 8.27368 25.6542V25.6542ZM8.27359 34.5791C10.5678 34.5791 12.6302 35.5713 14.0552 37.1501C13.0496 38.6728 12.3827 40.4447 12.1679 42.3653H2.53469C1.9509 42.3653 1.44859 42.1115 1.10219 41.6416C0.755779 41.1718 0.661935 40.6169 0.834623 40.0591C1.81759 36.8849 4.77643 34.5791 8.27359 34.5791V34.5791ZM39.7263 34.5791C43.2237 34.5791 46.1824 36.8849 47.1653 40.0591C47.338 40.6169 47.2442 41.1717 46.8977 41.6416C46.5513 42.1116 46.0491 42.3653 45.4652 42.3653H35.8321C35.6172 40.4447 34.9502 38.6729 33.9447 37.1501C35.3698 35.5713 37.4322 34.5791 39.7263 34.5791ZM7.68259 7.02464L9.19403 11.0056C9.2395 11.1254 9.34525 11.2021 9.47312 11.2084L13.7263 11.4157C13.8595 11.4222 13.9692 11.5061 14.0104 11.6329C14.0516 11.7598 14.0122 11.8921 13.9082 11.9757L10.5892 14.6433C10.4895 14.7235 10.4491 14.8479 10.4826 14.9714L11.5997 19.0804C11.6347 19.2091 11.5889 19.3394 11.481 19.4177C11.3731 19.4961 11.2351 19.4995 11.1234 19.4265L7.56062 17.0942C7.45356 17.0241 7.32278 17.0241 7.21572 17.0942L3.65303 19.4265C3.54147 19.4995 3.40337 19.4961 3.29556 19.4177C3.18765 19.3394 3.14181 19.209 3.17678 19.0804L4.2939 14.9714C4.32747 14.8479 4.28706 14.7235 4.18731 14.6433L0.868279 11.9756C0.76431 11.892 0.724842 11.7597 0.766092 11.6328C0.807248 11.506 0.917029 11.4222 1.05025 11.4156L5.3034 11.2083C5.43128 11.2021 5.53703 11.1253 5.5824 11.0055L7.09394 7.02464C7.14128 6.89995 7.2549 6.82158 7.38831 6.82158C7.52172 6.82158 7.63525 6.89995 7.68259 7.02464V7.02464ZM40.8566 7.02464L42.368 11.0056C42.4135 11.1254 42.5192 11.2021 42.6471 11.2084L46.9003 11.4157C47.0335 11.4222 47.1432 11.5061 47.1844 11.6329C47.2256 11.7598 47.1862 11.8921 47.0822 11.9757L43.7632 14.6433C43.6635 14.7235 43.6231 14.8479 43.6566 14.9714L44.7738 19.0804C44.8087 19.2091 44.7629 19.3394 44.6551 19.4177C44.5472 19.4961 44.4092 19.4995 44.2975 19.4265L40.7347 17.0942C40.6277 17.0241 40.4969 17.0241 40.3898 17.0942L36.8271 19.4265C36.7156 19.4995 36.5775 19.4961 36.4696 19.4177C36.3617 19.3394 36.3158 19.209 36.3508 19.0804L37.4679 14.9714C37.5015 14.8479 37.4611 14.7235 37.3613 14.6433L34.0423 11.9757C33.9383 11.8921 33.8988 11.7598 33.9401 11.6329C33.9812 11.5061 34.091 11.4223 34.2242 11.4157L38.4774 11.2084C38.6053 11.2022 38.711 11.1254 38.7564 11.0056L40.2678 7.02464C40.3152 6.89995 40.4288 6.82158 40.5622 6.82158C40.6956 6.82158 40.8092 6.89995 40.8566 7.02464V7.02464Z" fill="#56C8D1"/>
</g>
<defs>
<clipPath id="clip0_10743_13563">
<rect width="48" height="48" fill="white"/>
</clipPath>
</defs>
</svg>
