<svg width="48" height="48" viewBox="0 0 48 48" fill="none" xmlns="http://www.w3.org/2000/svg">
<path d="M16.8727 25.6405H16.0312C15.2546 25.6405 14.625 26.2701 14.625 27.0468C14.625 27.8234 15.2546 28.453 16.0312 28.453H31.9688C32.7454 28.453 33.375 27.8234 33.375 27.0468C33.375 26.2701 32.7454 25.6405 31.9688 25.6405H31.1273C30.56 22.7606 28.2864 20.4862 25.4062 19.9189V22.1249C25.4062 22.9015 24.7766 23.5311 24 23.5311C23.2234 23.5311 22.5938 22.9015 22.5938 22.1249V19.9189C19.7137 20.4862 17.4401 22.7606 16.8727 25.6405Z" fill="#56C8D1"/>
<path d="M31.2487 37.7646C29.5762 39.9394 26.9492 41.3437 24 41.3437C21.0508 41.3437 18.4238 39.9394 16.7513 37.7646C14.0452 39.7252 12.2812 42.9103 12.2812 46.5C12.2812 47.2766 12.9109 47.9062 13.6875 47.9062H34.3125C35.0891 47.9062 35.7188 47.2766 35.7188 46.5C35.7188 42.9103 33.9548 39.7252 31.2487 37.7646Z" fill="#56C8D1"/>
<path d="M24 38.5312C27.4949 38.5312 30.3281 35.698 30.3281 32.2031V31.2656H17.6719V32.2031C17.6719 35.698 20.5051 38.5312 24 38.5312Z" fill="#56C8D1"/>
<path d="M25.4062 19.9191V19.3125C25.4062 18.5359 24.7766 17.9062 24 17.9062C23.2234 17.9062 22.5938 18.5359 22.5938 19.3125V19.9191C23.049 19.8294 23.5189 19.7812 24 19.7812C24.4811 19.7812 24.951 19.8294 25.4062 19.9191Z" fill="#56C8D1"/>
<path d="M28.3125 10.6405H44.25C45.0266 10.6405 45.6562 10.0109 45.6562 9.23426C45.6562 8.45763 45.0266 7.82801 44.25 7.82801H43.4086C42.8411 4.9481 40.5676 2.67373 37.6875 2.10645V4.31238C37.6875 5.08901 37.0579 5.71863 36.2812 5.71863C35.5046 5.71863 34.875 5.08901 34.875 4.31238V2.10645C31.9949 2.67373 29.7214 4.9481 29.1539 7.82801H28.3125C27.5359 7.82801 26.9062 8.45763 26.9062 9.23426C26.9062 10.0109 27.5359 10.6405 28.3125 10.6405Z" fill="#56C8D1"/>
<path d="M36.2812 20.7188C39.7762 20.7188 42.6094 17.8855 42.6094 14.3906V13.4531H29.9531V14.3906C29.9531 17.8855 32.7863 20.7188 36.2812 20.7188Z" fill="#56C8D1"/>
<path d="M43.6421 19.8037C41.9762 22.0629 39.2972 23.5314 36.2813 23.5314C35.2125 23.5314 34.1863 23.3464 33.2322 23.0078C33.2345 23.0132 33.2372 23.0185 33.2396 23.0238C34.9468 23.5643 36.1875 25.1635 36.1875 27.047C36.1875 28.9685 34.8958 30.5929 33.1354 31.1004C33.1386 31.1551 33.1407 31.2102 33.1407 31.2658V32.2033C33.1407 33.29 32.9496 34.3328 32.6001 35.3005C32.702 35.3566 32.8023 35.4173 32.8989 35.4873C34.0804 36.3434 35.1013 37.3753 35.9382 38.5315H46.5938C47.3704 38.5315 48 37.9019 48 37.1252V28.219C48 24.7488 46.2772 21.6737 43.6421 19.8037V19.8037Z" fill="#56C8D1"/>
<path d="M37.6875 2.10656V1.5C37.6875 0.723375 37.0579 0.09375 36.2812 0.09375C35.5046 0.09375 34.875 0.723375 34.875 1.5V2.10656C35.3302 2.01694 35.8001 1.96875 36.2812 1.96875C36.7624 1.96875 37.2323 2.01694 37.6875 2.10656Z" fill="#56C8D1"/>
<path d="M3.75 10.6405H19.6875C20.4641 10.6405 21.0938 10.0109 21.0938 9.23426C21.0938 8.45763 20.4641 7.82801 19.6875 7.82801H18.8461C18.2786 4.9481 16.0051 2.67373 13.125 2.10645V4.31238C13.125 5.08901 12.4954 5.71863 11.7188 5.71863C10.9421 5.71863 10.3125 5.08901 10.3125 4.31238V2.10645C7.43241 2.67373 5.15887 4.9481 4.59141 7.82801H3.75C2.97337 7.82801 2.34375 8.45763 2.34375 9.23426C2.34375 10.0109 2.97337 10.6405 3.75 10.6405Z" fill="#56C8D1"/>
<path d="M18.0469 14.3906V13.4531H5.39062V14.3906C5.39062 17.8855 8.22384 20.7188 11.7188 20.7188C15.2137 20.7188 18.0469 17.8855 18.0469 14.3906Z" fill="#56C8D1"/>
<path d="M15.1012 35.4872C15.1978 35.4173 15.2981 35.3565 15.4 35.3004C15.0504 34.3327 14.8595 33.2899 14.8595 32.2032V31.2657C14.8595 31.2101 14.8615 31.1551 14.8647 31.1003C13.1043 30.5929 11.8125 28.9685 11.8125 27.047C11.8125 25.1635 13.0533 23.5643 14.7604 23.0238C14.7627 23.0184 14.7654 23.0131 14.7678 23.0078C13.8137 23.3464 12.7875 23.5314 11.7187 23.5314C8.70281 23.5314 6.02381 22.0629 4.35797 19.8037C1.72284 21.6737 0 24.7488 0 28.2189V37.1251C0 37.9018 0.629625 38.5314 1.40625 38.5314H12.062C12.8987 37.3752 13.9197 36.3433 15.1012 35.4872V35.4872Z" fill="#56C8D1"/>
<path d="M13.125 2.10656V1.5C13.125 0.723375 12.4954 0.09375 11.7188 0.09375C10.9421 0.09375 10.3125 0.723375 10.3125 1.5V2.10656C10.7677 2.01694 11.2376 1.96875 11.7188 1.96875C12.1999 1.96875 12.6698 2.01694 13.125 2.10656Z" fill="#56C8D1"/>
</svg>
