<svg width="48" height="40" viewBox="0 0 48 40" fill="none" xmlns="http://www.w3.org/2000/svg">
<path d="M22.1227 11.3904C22.4954 11.9581 23.0287 12.7269 23.8004 12.7269H24.1972C24.9247 12.7269 25.4909 11.9821 25.8577 11.4354C26.3077 10.7634 26.5987 9.98487 26.6999 9.18237C26.8267 8.17887 26.8432 7.01262 26.2342 6.15237C25.7249 5.43312 24.8827 4.99512 24.0007 4.99512C23.1067 4.99512 22.2794 5.44887 21.7694 6.17787C21.1492 7.06362 21.1784 8.15112 21.3022 9.18162C21.3959 9.96087 21.6869 10.7274 22.1227 11.3904V11.3904Z" fill="#56C8D1"/>
<path d="M23.019 18.9681C23.019 18.9681 23.3858 16.0214 23.3865 16.0161C23.4495 15.5099 22.6718 15.1049 22.9763 14.5791C23.1443 14.2881 23.301 13.8164 23.7038 13.8164H24.297C24.6938 13.8164 24.8573 14.2896 25.0245 14.5791C25.3313 15.1109 24.5513 15.5091 24.6143 16.0161L24.9818 18.9704L26.4675 13.5996C28.485 14.5311 29.886 16.5749 29.886 18.9464V21.9411C29.886 23.2506 29.016 24.1371 28.2278 25.0701V38.2634C28.2278 40.2179 25.3223 40.4969 25.0658 38.5461L24 29.1509C24 29.1509 22.9343 38.5364 22.9335 38.5461C22.7168 40.4579 19.7715 40.2494 19.7715 38.3406C19.7715 38.3406 19.7715 25.0709 19.7715 25.0701C18.9728 24.1244 18.1133 23.2626 18.1133 21.9411V19.1451C18.1133 16.7549 19.4948 14.5889 21.5385 13.6124L23.019 18.9681Z" fill="#56C8D1"/>
<path d="M41.3849 5.06937C41.6737 5.50887 42.0862 6.10362 42.6839 6.10362H42.9907C43.5532 6.10362 43.9919 5.52762 44.2754 5.10387C44.6242 4.58412 44.8492 3.98112 44.9272 3.36012C45.0254 2.58312 45.0382 1.68087 44.5664 1.01562C44.1727 0.459117 43.5202 0.120117 42.8384 0.120117C42.1462 0.120117 41.5064 0.471117 41.1119 1.03587C40.6319 1.72137 40.6544 2.56287 40.7504 3.36012C40.8224 3.96312 41.0482 4.55637 41.3849 5.06937V5.06937Z" fill="#56C8D1"/>
<path d="M47.3922 10.9138V13.2313C47.3922 14.2513 46.7172 14.9338 46.1097 15.6537V25.8687C46.1097 27.3762 43.8597 27.5937 43.6647 26.0862L42.8397 18.8112C42.8397 18.8112 42.0147 26.0787 42.0147 26.0862C41.8422 27.5637 39.5622 27.4062 39.5622 25.9287V22.1712C40.2747 21.3312 41.0622 20.2737 41.0622 18.7587V15.9763C41.0622 13.7788 40.0197 11.7387 38.3247 10.4337C38.5347 8.84375 39.5397 7.45625 40.9347 6.78875L42.0747 10.9362C42.0747 10.9362 42.3597 8.65625 42.3597 8.64875C42.4122 8.25875 41.8122 7.94375 42.0447 7.53875C42.1722 7.31375 42.2922 6.94625 42.6072 6.94625H43.0647C43.3722 6.94625 43.4997 7.31375 43.6272 7.53875C43.8672 7.95125 43.2672 8.25875 43.3122 8.64875L43.5972 10.9362L44.7447 6.78125C46.3122 7.50125 47.3922 9.08375 47.3922 10.9138Z" fill="#56C8D1"/>
<path d="M3.70964 5.06937C3.99839 5.50887 4.41089 6.10362 5.00864 6.10362H5.31539C5.87789 6.10362 6.31664 5.52762 6.60014 5.10387C6.94889 4.58412 7.17389 3.98112 7.25189 3.36012C7.35014 2.58387 7.36289 1.68162 6.89114 1.01562C6.49739 0.459117 5.84564 0.120117 5.16314 0.120117C4.47089 0.120117 3.83114 0.471117 3.43664 1.03587C2.95664 1.72137 2.97914 2.56287 3.07514 3.36012C3.14714 3.96312 3.37289 4.55637 3.70964 5.06937V5.06937Z" fill="#56C8D1"/>
<path d="M6.93742 16.1562V18.7587C6.93742 20.2887 7.72492 21.3388 8.43742 22.1713V25.8688C8.43742 27.3763 6.18742 27.5938 5.98492 26.0863L5.15992 18.8113C5.15992 18.8113 4.33492 26.0788 4.33492 26.0863C4.16992 27.5638 1.88992 27.4062 1.88992 25.9287V15.6537C1.27492 14.9262 0.607422 14.2588 0.607422 13.2313V11.0712C0.607422 9.21875 1.67242 7.54625 3.25492 6.78875L4.40242 10.9363C4.40242 10.9363 4.68742 8.65625 4.68742 8.64875C4.73242 8.25875 4.13242 7.94375 4.37242 7.53875C4.49992 7.31375 4.61992 6.94625 4.93492 6.94625H5.39242C5.69992 6.94625 5.82742 7.31375 5.95492 7.53875C6.19492 7.95125 5.58742 8.25875 5.63992 8.64875L5.92492 10.9363L7.07242 6.78125C8.49742 7.44125 9.53242 8.82125 9.68992 10.4562C7.97992 11.798 6.93742 13.8988 6.93742 16.1562V16.1562Z" fill="#56C8D1"/>
<path d="M12.162 8.9472C12.5085 9.4752 13.0043 10.1892 13.722 10.1892H14.0903C14.766 10.1892 15.2933 9.49695 15.6338 8.98845C16.0523 8.3637 16.323 7.63995 16.4168 6.8937C16.5345 5.9607 16.5495 4.87695 15.984 4.07745C15.5108 3.40845 14.7278 3.00195 13.908 3.00195C13.077 3.00195 12.3083 3.4242 11.8335 4.10145C11.2575 4.92495 11.2838 5.9352 11.3993 6.8937C11.487 7.6182 11.7578 8.33145 12.162 8.9472V8.9472Z" fill="#56C8D1"/>
<path d="M16.3478 21.9382C16.3478 23.5297 17.1083 24.6382 17.8395 25.5285V33.9292C17.8395 35.745 15.1395 36.0045 14.898 34.1887L13.9073 25.4572C13.9073 25.4572 12.9165 34.1827 12.9165 34.1887C12.7163 35.9692 9.97504 35.775 9.97504 33.9997V21.6667C9.23254 20.7825 8.43604 19.9867 8.43604 18.7545V16.1542C8.43604 13.932 9.72154 11.9212 11.6198 11.013L12.9938 15.9885C12.9938 15.9885 13.3358 13.2532 13.3358 13.2472C13.395 12.7755 12.6758 12.3982 12.9585 11.9092C13.1115 11.6377 13.2593 11.202 13.6305 11.202H14.1848C14.55 11.202 14.7038 11.6445 14.8628 11.9092C15.1455 12.4042 14.4203 12.7755 14.4795 13.2472L14.8215 15.9945L16.2008 11.001C17.2973 11.508 18.1935 12.363 18.7538 13.4302C17.2508 14.892 16.3485 16.956 16.3485 19.143V21.9382H16.3478Z" fill="#56C8D1"/>
<path d="M32.3466 8.9472C32.6931 9.4752 33.1888 10.1892 33.9066 10.1892H34.2748C34.9506 10.1892 35.4778 9.49695 35.8183 8.98845C36.2368 8.3637 36.5076 7.63995 36.6013 6.8937C36.7191 5.9607 36.7341 4.87695 36.1686 4.07745C35.6953 3.40845 34.9123 3.00195 34.0926 3.00195C33.2616 3.00195 32.4928 3.4242 32.0181 4.10145C31.4421 4.92495 31.4683 5.9352 31.5838 6.8937C31.6708 7.6182 31.9423 8.33145 32.3466 8.9472Z" fill="#56C8D1"/>
<path d="M39.564 15.9722V18.7547C39.564 19.975 38.7563 20.7947 38.025 21.667V33.9295C38.025 35.7452 35.319 36.0047 35.0835 34.189L34.0928 25.4575C34.0928 25.4575 33.102 34.183 33.102 34.189C32.8958 35.9695 30.1605 35.7752 30.1605 34V25.5287C30.8978 24.6325 31.6523 23.5187 31.6523 21.9385V18.9437C31.6523 16.8332 30.774 14.8465 29.3003 13.4312C29.8665 12.382 30.7388 11.527 31.806 11.014L33.18 15.9895C33.18 15.9895 33.522 13.2542 33.522 13.2482C33.5813 12.7765 32.856 12.3992 33.1388 11.9102C33.2978 11.6387 33.4455 11.203 33.8168 11.203H34.371C34.7363 11.203 34.89 11.6455 35.043 11.9102C35.3318 12.4052 34.6065 12.7765 34.6658 13.2482L35.0078 15.9955L36.387 11.002C38.2613 11.869 39.564 13.7672 39.564 15.9722V15.9722Z" fill="#56C8D1"/>
</svg>
